<svg xmlns="http://www.w3.org/2000/svg" xmlns:xlink="http://www.w3.org/1999/xlink" id="Layer_1" x="0" y="0" version="1.1" viewBox="0 0 436.3 541.2" xml:space="preserve" style="enable-background:new 0 0 436.3 541.2"><style type="text/css">.st0{fill:#7c3f52}.st0,.st1,.st2,.st3,.st4{fill-rule:evenodd;clip-rule:evenodd}.st1{fill:#fef7e4;stroke:#7c3f52;stroke-width:3;stroke-miterlimit:10}.st2{fill:#eddecf}.st3{fill:#61c3a7}.st4{fill:#e27241;stroke-linecap:round;stroke-linejoin:round;stroke-width:3;stroke-miterlimit:10}.st4,.st5,.st6,.st7{stroke:#7c3f52}.st5,.st6,.st7,.st8,.st9{stroke-width:3;stroke-miterlimit:10}.st5{fill-rule:evenodd;clip-rule:evenodd;fill:#c96345;stroke-linecap:round;stroke-linejoin:round}.st6{fill:#7c3f52}.st10,.st7,.st8,.st9{stroke-linecap:round;stroke-linejoin:round}.st7{fill:#fef7e4}.st8,.st9{fill:none;stroke:#eddecf}.st9{stroke:#c96345}.st10{fill:#fef7e4;stroke:#7c3f52;stroke-width:2.9998;stroke-miterlimit:9.9996}.st11,.st12,.st13{stroke-miterlimit:10}.st11,.st12,.st13,.st14,.st15,.st16{stroke-linecap:round;stroke-linejoin:round}.st11{fill:none;stroke:#61c3a7;stroke-width:11}.st12,.st13{stroke-width:3}.st12{fill-rule:evenodd;clip-rule:evenodd;fill:#fef7e4;stroke:#7c3f52}.st13{fill:none;stroke:#bd5942}.st14,.st15,.st16{fill:#ed4e56;stroke:#7c3f52;stroke-width:3.0002;stroke-miterlimit:10.0006}.st15,.st16{fill:none;stroke-width:3;stroke-miterlimit:10}.st16{fill:#ed4e56}.st17{fill:#fef7e4}.st18{fill:none;stroke:#7c3f52;stroke-width:4;stroke-linejoin:round;stroke-miterlimit:10}.st19{opacity:.5;fill:#fed19a;enable-background:new}.st20{fill:#ed4e56}.st21{fill:#7c3f52}.st22{fill:#fed19a;fill-opacity:.5}</style><g id="Layer_1_1_"><g><path d="M213.7,169.4c-6.9-1-12-5.6-11.7-8c0.2-2.4,6-3.6,12.9-2.5c6.9,1,12.3,3.8,12,6.3 C226.8,167.6,220.6,170.5,213.7,169.4L213.7,169.4z" class="st0"/><path d="M189.5,131.9c14.5,5.4,20.3,15.2,17.5,29.5c5,5.2,10.5,4.7,16.1,1.7c1.8-8.2-3.5-15.9,3.2-20.9 c13.7-10.2,31.9-16.1,42.9-25.1c26.5-21.7,38.4-53.8,40.4-94.3c1-19.5-9.1-18.3-8.9-0.4c0.4,30.2-13.1,68.8-26.3,69.5 c-3.8,0.1,0.6-19.5-1.6-31.9c-2.8-15.7-14-11.5-10.2,0.1c4.9,15.2,3,40.2-7.3,48.4c-12.3,9.6-19.8,9.6-28.1,5 c-5.1-2.8-10.9-0.4-5.9,5.2c2,2.2,6,4.2,11.5,5.9c-17.1,11.8-25.2,9.3-32.3,3.5C187.4,117.3,179.5,130,189.5,131.9L189.5,131.9z" class="st1"/><path d="M281.6,90.1c-2.6,2.9-7.2,3.8-8.9,3c-3.2-1.7,1.4-18.8-0.4-31.2c-1.3-8.8-5.4-11.6-7.7-10.2l-0.3,0.3 l-0.1,0.2c3,1.8,4.7,5,5.7,9.5c1.4,7.7-3.9,35.2,2.4,35.2c3.5,0,7.2-1.6,8.4-5.3L281.6,90.1z" class="st2"/><path d="M192.6,131.7c8.5,3.7,14.7,9.7,16,18l0,0c0.3-11-6.1-17.7-18.6-20.5c-1.8-0.4-4-2-2.2-3.2 c-1.9,1.2-2.3,3.1,0.4,3.9C189,130.2,192.6,131.7,192.6,131.7z" class="st2"/><path d="M219,163.3c1-0.3,1.9-0.7,2.8-1.2c1.8-8.2-3.3-15.7,3.4-20.7c13.7-10.2,31.9-16.1,42.9-25.1 c26.5-21.7,38.8-53.8,40.4-94.3c0.4-9-2.7-11.8-2.7-11.8s0.8,9.9,0,18.4c-3.9,39-16,64.1-37.6,82.8 c-14.4,12.5-43.5,20.3-47.9,27.7C215.5,147,220.5,155.6,219,163.3L219,163.3z" class="st2"/><path d="M221,114c3.6,5.1,10.8,7.2,20.1,7.6c-3.2,3.6-6.6,6.1-10.4,6.8c1.7-1.3,3.6-2.9,5.5-4.6 c-6-1-10.5-2.4-12.9-4.5C220.8,117.1,220.3,115.3,221,114L221,114z" class="st2"/><path d="M181.9,87.8" class="st3"/></g><path id="XMLID_33_" d="M134.8,257.5l20,5.2c0,0,9.6-34.5,33.9-25.6c24.3,8.8,43.4-6.8,43.4-6.8 c7.2,27.9-31.5,42-71.7,72.4c-19.6,14.8-19.3,70.4-19.3,70.4l155.4-0.1c-0.6-0.9-10.4-21.3-11-46.8c-0.5-24.6,20.1-62.2,17.7-116.7 s-65.6-69.8-65.6-69.8c13.3-13-19.2-36.7-19.2-36.7v38.9c-34.8,2.3-49.1,23.4-49.1,23.4l4.7,15.3c0,0-43.7,39-54.8,47.8 c-11.1,8.7,4.9,32.3,4.9,32.3L134.8,257.5z" class="st4"/><path id="XMLID_32_" d="M303.1,386.5L303.1,386.5c0-2.3-1.9-4.3-4.3-4.3H140.4c-2.3,0-4.3,1.9-4.3,4.3l0,0 c0,2.3,1.9,4.3,4.3,4.3h158.5C301.2,390.8,303.1,388.9,303.1,386.5z" class="st4"/><path id="XMLID_31_" d="M313.3,430.5l-9-27.3c0-1.5-1.2-2.7-2.7-2.7H139.9c-1.5,0-2.7,1.2-2.7,2.7l-9,27.3 c0,1.5,1.2,2.7,2.7,2.7h179.6C312,433.2,313.3,432,313.3,430.5z" class="st5"/><path id="XMLID_30_" d="M270.6,502.1c0,0-29.4-18.4-29.4-30.8S255,447,255,447c0-1.5-2.1-5.4-2.5-5.4h-31.7h-31.7 c-0.4,0-2.5,3.9-2.5,5.4c0,0,13.8,11.9,13.8,24.3s-29.5,30.8-29.5,30.8c-2,3.3,1.1,5.4,1.5,5.4h48.4h48.4 C269.6,507.5,272.6,505.4,270.6,502.1z" class="st4"/><path d="M129.5,219.9c0,0,9.1-1,12.1,2.6c3.3,3.9,7.9,11.9,2.2,17.6s-10.7,10.5-25.3,8.9c0,0-4.3-7.6-3.8-12.1 s2.4-7.9,8.3-12.3C129.2,220.1,129.5,219.9,129.5,219.9z" class="st6"/><path d="M146.8,226.1c0,0,12.1-9,25.6-9s44.5,3,61-7.5c16.6-10.5,40.7,12.1,21.1,40.7c0,0-16.6,19.6,0,33.1 c0,0-12.1-3-16.6-13.6c0,0-6.8,24.9,18.1,33.1c0,0-24.1,6.8-28.6-3c0,0-5.3,18.8,14.3,26.4c0,0-33.4,6.5-42.8-15.7 c0,0-6.9,15.7,1.4,27c0,0-26.3-11.1-23.3-29.9s13.5-24.3,13.5-24.3s17.3-12.7,21.5-15.7s12.9-11.1,16.2-16.8s5.4-11.5,3.9-20.5 c0,0-10.5,6.4-17.7,8.2s-14.4,1.5-19.8,0.3s-8.4-3.9-16.5-3s-14.7,9.9-14.7,9.9s-7,9.5-8.6,17.1l-20-5.2l-10.8,3.2l-5.3-11.8 c0,0,8.4,1.5,12.9-0.3c4.5-1.8,10-6,12.3-8.6C146.2,237.6,148.2,235.2,146.8,226.1z" class="st7"/><path d="M196.1,230c0,0,5.6,4.1,17.8-0.5" class="st8"/><path d="M148.9,250.4c0,0,1.5-9.1,11.2-14.7" class="st8"/><path d="M249.4,219.9c0,0,7.1,6.1,2.5,16.2" class="st8"/><path d="M277.2,174.9c0,0,11.4,8.9,14.2,25.4" class="st9"/><path d="M162.5,318.8c0,0-11,10.4-8.6,28.6" class="st9"/><path d="M196.7,204.4c0,0,17,2,30.7-4.8" class="st9"/><path d="M264.2,252c0,0-12.3,8.2-6.1,23.8" class="st9"/><path d="M223.4,118c0,0,10.7,7.6,8.9,15.6" class="st9"/><ellipse cx="209.6" cy="178.4" class="st10" rx="25.9" ry="17.1" transform="matrix(0.9496 -0.3134 0.3134 0.9496 -45.3467 74.6758)"/><line x1="162" x2="282.2" y1="533.8" y2="533.8" class="st11"/><line x1="342" x2="419.8" y1="533.8" y2="533.8" class="st11"/><line x1="26.2" x2="98.5" y1="534.6" y2="534.6" class="st11"/><path d="M188.2,446.5l52.3,23.2l-69.3,32c0,0,11.8-8,17.5-13s11.3-11.8,11.8-15.4s-0.4-10.4-4.8-16.8 C191.2,450,188.2,446.5,188.2,446.5z" class="st12"/><line x1="297.9" x2="263.3" y1="422.9" y2="422.9" class="st13"/><line x1="256.5" x2="247.2" y1="422.9" y2="422.9" class="st13"/><path d="M235.8,482.1c0,0,7.6,13.1,20.7,17.7" class="st9"/><ellipse cx="128.8" cy="231" class="st14" rx="20.2" ry="19.5" transform="matrix(0.8922 -0.4517 0.4517 0.8922 -90.4436 83.0942)"/><path d="M202.5,173c0,0,4.8,27.8,15-1.4" class="st15"/><g><path d="M247.7,159.9c-7.9-4.2-12-11.9-10.7-14.7s8.8-1.7,16.7,2.6c7.9,4.2,13.2,10,11.9,12.8 C264.2,163.3,255.6,164.1,247.7,159.9L247.7,159.9z" class="st0"/><path d="M234.6,104c15.2,12.8,18,27.2,8.4,43.2c3.8,8.4,10.6,10.3,18.7,9.1c5.8-9.1,2.7-20.7,13-23.9 c21-6.4,45.6-5.6,62.7-11.7c41.4-14.8,69.7-48.4,89.7-96.4c9.6-23.1-3.1-26.1-10.6-4.3c-12.6,36.7-45.6,77.4-61.9,72.6 c-4.6-1.6,9.2-23.4,11.9-39.2c3.4-20.2-11.9-20-12.4-4.4c-0.7,20.5-13.8,49.9-29.9,55.3c-19,6.3-28.1,3-36.1-6.1 c-4.9-5.6-13-5.2-9.4,3.7c1.5,3.6,5.4,7.6,11.3,12.1c-25.7,6.9-34.5,0.3-40.5-9.8C238.5,85.5,223.4,97.4,234.6,104L234.6,104z" class="st1"/><path d="M364.2,93.4c-4.4,2.4-10.4,1.5-12-0.3c-3.1-3.4,9.8-22.1,13-37.9c2.3-11.2-1.5-16.4-4.9-15.6l-0.5,0.2 l-0.2,0.2c2.9,3.5,3.5,8.1,2.8,13.9c-1.6,10-20,40.8-12.3,43.6c4.2,1.5,9.3,1.2,12.5-2.7L364.2,93.4z" class="st2"/><path d="M238.5,105.1c8.7,8.2,13.6,18.1,11.6,28.7l0,0c5.2-13.2,0.3-24-13.6-32.8c-2-1.2-3.9-4.2-1.3-4.8 c-2.8,0.7-4.1,2.7-1.2,4.9C234.9,101.8,238.5,105.1,238.5,105.1z" class="st2"/><path d="M256.7,154.7c1.3,0,2.5,0,3.9-0.2c5.8-9.1,2.8-20.4,13-23.6c21-6.4,45.6-5.6,62.7-11.7 c41.4-14.8,70.2-48.2,89.7-96.4c4.4-10.8,1.9-15.4,1.9-15.4s-3.3,12.3-8,22.2c-21.7,45.5-47.1,70.5-81.3,83.8 c-22.8,8.8-61.4,5.7-70,12.7C259.6,133.5,261.9,146.1,256.7,154.7L256.7,154.7z" class="st2"/><path d="M280.6,96c2.1,7.7,10,13.4,21.1,17.9c-5.4,2.9-10.6,4.5-15.5,3.7c2.7-0.9,5.6-1.9,8.7-3.2 c-6.9-3.8-11.6-7.5-13.7-11.1C279,99.7,279.2,97.3,280.6,96L280.6,96z" class="st2"/><path d="M244.6,47.4" class="st3"/></g><path d="M277,325c0,0-2.7,19.1,6.4,35" class="st9"/></g><g id="Layer_7"><path d="M410.6,33.2c0,0-8.7,1.2-8.7,15.4c0,7.7,0,49.9,0,49.9l10.6-44.2" class="st15"/><circle cx="403.3" cy="123.9" r="25.4" class="st16"/><polygon points="379.3 121.8 385.4 116.3 391.3 121.7 397.2 116.4 403.2 121.8 409.1 116.5 414.9 121.8 421.2 116.1 427.5 121.8 427.5 125.3 427.5 130.4 421.2 124.7 414.9 130.4 409.1 125.1 403.2 130.4 397.2 125 391.3 130.3 385.4 124.9 379.3 130.4 379.3 125.3" class="st17"/><polyline points="379.5 121.8 385.6 116.4 391.5 121.8 397.4 116.5 403.4 121.8 409.3 116.6 415.1 121.8 421.4 116.2 427.7 121.8" class="st15"/><polyline points="379.5 130.5 385.6 125 391.5 130.4 397.4 125.1 403.4 130.5 409.3 125.2 415.1 130.5 421.4 124.8 427.7 130.5" class="st15"/><circle cx="403.5" cy="137.6" r="3.3" class="st7"/><circle cx="414.6" cy="137.6" r="3.3" class="st7"/><circle cx="392.4" cy="137.6" r="3.3" class="st7"/><circle cx="403.4" cy="109.4" r="3.3" class="st7"/><circle cx="414.5" cy="109.4" r="3.3" class="st7"/><circle cx="392.3" cy="109.4" r="3.3" class="st7"/></g><g id="Layer_2_1_"><g id="XMLID_23_"><path id="XMLID_24_" d="M95.4,165.4c-29.2-0.2-47,10.4-53.4,31.8c-1.5,21.7-3,43.2-4.8,64.7 C35,288,24.3,304.2,5,310.5v8c18.5,6.3,29.2,22.3,32.2,47.9c1.7,21.4,3.4,42.9,5.1,64.3c5.4,21.7,20.7,32.5,46,32.5h6.6v-6.9 c-11.5-0.7-20.3-4.7-26.7-11.9c-6.3-7.2-9.5-16.1-9.5-26.9c0-4.4,0.2-11.1,0.7-20.1s0.7-15.8,0.7-20.5c0-30-9.7-50.8-29.2-62.5 c19.7-11.7,29.6-32.5,29.6-62.5c0-4.4-0.3-11.1-0.9-20.1c-0.6-9-0.9-15.8-0.9-20.5c0-10.7,3.2-19.7,9.7-26.9s15.4-11.1,26.9-11.9 v-7.1L95.4,165.4L95.4,165.4z" class="st12"/></g><path id="XMLID_22_" d="M93,461.4c-11.8-0.8-29.7-5.4-36.3-12.8c-6.5-7.4-9.8-16.7-9.8-27.7c0-4.5,0.2-11.4,0.8-20.7 c0.5-9.3,0.8-16.3,0.8-21.1c0-30.9-10.1-52.4-30.2-64.5c20.4-12.1,30.5-33.6,30.5-64.5c0-4.5-0.3-11.4-0.9-20.7 c-0.6-9.3-0.9-16.3-0.9-21.1c0-11.1,3.3-20.3,10-27.7s24.6-12.3,36.4-13.1c0,0-14.5-0.7-27.8,5c-13.2,5.8-19.4,16.6-21.7,24.9 l-4.8,67.1c0,0-1.3,16-8.9,28.2s-16.3,17.5-23,19l-0.1,5.5c0,0,13.5,4.8,19.6,14.3s10.2,15.9,12.2,31.6c1.9,15.7,5,61,5.3,67 c0.3,5.9,9.1,20.6,15.6,24C66.3,457.6,75,462.2,93,461.4z" class="st2"/><polyline points="5.2 310.5 31.1 314.5 5.2 318.5" class="st18"/><line x1="42.4" x2="59.9" y1="430.7" y2="430.7" class="st18"/><ellipse cx="46" cy="349.7" class="st2" rx="6.5" ry="8.2" transform="matrix(0.8839 -0.4676 0.4676 0.8839 -158.1915 62.0933)"/><ellipse cx="49.3" cy="363.9" class="st2" rx="3.2" ry="4.1" transform="matrix(0.8839 -0.4676 0.4676 0.8839 -164.4452 65.2817)"/><line x1="42.1" x2="59.5" y1="198" y2="198" class="st18"/><g id="XMLID_21_"><path id="XMLID_25_" d="M341.5,464.5c29.2,0.2,47-10.4,53.4-31.8c1.5-21.7,3-43.2,4.8-64.7 c2.2-26.1,12.9-42.3,32.2-48.6v-8c-18.5-6.3-29.2-22.3-32.2-47.9c-1.7-21.4-3.4-42.9-5.1-64.3c-5.4-21.7-20.7-32.5-46-32.5H342 v6.9c11.5,0.7,20.3,4.7,26.7,11.9c6.3,7.2,9.5,16.1,9.5,26.9c0,4.4-0.2,11.1-0.7,20.1s-0.7,15.8-0.7,20.5c0,30,9.7,50.8,29.2,62.5 c-19.7,11.7-29.6,32.5-29.6,62.5c0,4.4,0.3,11.1,0.9,20.1s0.9,15.8,0.9,20.5c0,10.7-3.2,19.7-9.7,26.9s-15.4,11.1-26.9,11.9 L341.5,464.5L341.5,464.5z" class="st12"/></g><path id="XMLID_20_" d="M343.9,168.5c11.8,0.8,29.7,5.4,36.3,12.8c6.5,7.4,9.8,16.7,9.8,27.7c0,4.5-0.2,11.4-0.8,20.7 c-0.5,9.3-0.8,16.3-0.8,21.1c0,30.9,10.1,52.4,30.2,64.5c-20.4,12.1-30.5,33.6-30.5,64.5c0,4.5,0.3,11.4,0.9,20.7 s0.9,16.3,0.9,21.1c0,11.1-3.3,20.3-10,27.7s-24.6,12.3-36.4,13.1c0,0,14.5,0.7,27.8-5c13.2-5.8,19.4-16.6,21.7-24.9l4.8-67.1 c0,0,1.3-16,8.9-28.2s16.3-17.5,23-19l0.1-5.5c0,0-13.5-4.8-19.6-14.3S400,282.5,398,266.8c-1.9-15.7-5-61-5.3-67 c-0.3-5.9-9.1-20.6-15.6-24S361.9,167.7,343.9,168.5z" class="st2"/><polyline points="431.7 319.4 405.8 315.4 431.7 311.4" class="st18"/><line x1="394.5" x2="377" y1="199.2" y2="199.2" class="st18"/><ellipse cx="390.7" cy="280" class="st2" rx="6.5" ry="8.2" transform="matrix(0.8839 -0.4676 0.4676 0.8839 -85.5916 215.1865)"/><ellipse cx="387.4" cy="265.8" class="st2" rx="3.2" ry="4.1" transform="matrix(0.8839 -0.4676 0.4676 0.8839 -79.3378 211.9981)"/><line x1="394.8" x2="377.3" y1="431.9" y2="431.9" class="st18"/></g><g id="garland"><path d="M94.9,165c0,0-7.1-5.5-10.4-0.7c-2.1,3-5.9,21.2-18.1,25.1" class="st15"/><path d="M42.2,191.4c0,0-7,5.2,2.7,16.3s24,29.2,16.5,37.5" class="st15"/><path d="M35.8,254.9c0,0-5.7,3.8-0.7,13.6s21,39.8,6.1,40.5" class="st15"/><path d="M17.3,302.1c0,0-7.2-0.5-7.2,4.7s-0.9,17.6,9,21.7" class="st15"/><path d="M54.4,339.9c0,0,13.3,9.3,5,14.7s-31.9,35-21.3,45" class="st15"/><path d="M60.2,412.4c0,0,8.6,7-17.9,22.6c0,0-6.1,6.3,3.6,9.3" class="st15"/><path d="M70.4,444.1c0,0,13.3,2.5,13.1,20.8s6.8,17.4,3.8,25.1c-2.9,7.7-4.3,10.6-4.1,17.2c0.2,6.6,0,20.1,0,20.1" class="st15"/><g><circle id="flare_1_" cx="77.1" cy="156.3" r="3.7" class="st19"/><path id="light_7_" d="M80.9,158.4c0,0-4.6-5.1-5.6-4.2s3.7,6,3.7,6L80.9,158.4z" class="st20"/><polygon points="78.6 160.4 81.1 158 85.2 163 83.3 164.7" class="st21"/></g><g><circle id="flare_2_" cx="89.7" cy="183.8" r="4.6" class="st22"/><path id="light_6_" d="M84.5,182.2c0,0,7,5.1,7.9,3.7c1-1.4-6.1-6.4-6.1-6.4L84.5,182.2z" class="st20"/><polygon points="86.7 179.1 84.3 182.7 78.1 177.7 79.9 175" class="st21"/></g><g><circle id="flare_3_" cx="71.7" cy="200.3" r="4.2" class="st22"/><path id="light_5_" d="M68.6,196.3c0,0,2.5,7.5,4,7s-1.2-8-1.2-8L68.6,196.3z" class="st20"/><polygon points="71.9 195.2 68.2 196.5 66.2 189.5 68.9 188.5" class="st21"/></g><g><circle id="flare_4_" cx="34.9" cy="180.6" r="4.6" class="st22"/><path id="light_4_" d="M39.5,183.3c0,0-5.5-6.6-6.8-5.5s4.4,7.6,4.4,7.6L39.5,183.3z" class="st20"/><polygon points="36.7 185.7 39.9 182.9 44.7 189.1 42.3 191.3" class="st21"/></g><g><circle id="flare_5_" cx="29.7" cy="207.5" r="4.8" class="st22"/><path id="light_3_" d="M34.4,204.3c0,0-8.7,2.5-8.1,4.2c0.5,1.7,9.1-1,9.1-1L34.4,204.3z" class="st20"/><polygon points="35.5 208 34.1 203.8 42.2 201.8 43.2 205" class="st21"/></g><g><circle id="flare_6_" cx="63.9" cy="209.6" r="4.6" class="st22"/><path id="light_2_" d="M61.7,214.6c0,0,6-6.3,4.7-7.4c-1.2-1.1-7.1,5.2-7.1,5.2L61.7,214.6z" class="st20"/><polygon points="58.9 212 62.1 214.9 56.3 220.4 54 218.2" class="st21"/></g><g><circle id="flare_7_" cx="71.1" cy="252.7" r="4.7" class="st22"/><path id="light_1_" d="M66.5,249.7c0,0,5.4,6.9,6.7,5.8c1.3-1.1-4.2-7.9-4.2-7.9L66.5,249.7z" class="st20"/><polygon points="69.5 247.4 66.1 250.1 61.4 243.6 64 241.5" class="st21"/></g><g><circle id="flare_8_" cx="28.9" cy="246.4" r="4.5" class="st22"/><path id="light" d="M33.1,249.7c0,0-4.6-7.1-6-6.2s3.4,8,3.4,8L33.1,249.7z" class="st20"/><polygon points="30 251.7 33.5 249.3 37.5 256.1 34.8 257.9" class="st21"/></g><g><circle id="flare_9_" cx="25.5" cy="273" r="4.2" class="st22"/><path id="light_8_" d="M29.6,270.2c0,0-7.7,1.9-7.2,3.4s8-0.6,8-0.6L29.6,270.2z" class="st20"/><polygon points="30.4 273.6 29.4 269.8 36.5 268.3 37.3 271.1" class="st21"/></g><g><circle id="flare" cx="50.7" cy="317.2" r="4.6" class="st22"/><path id="light_21_" d="M45.7,315.1c0,0,6.4,5.9,7.5,4.6s-5.4-7-5.4-7L45.7,315.1z" class="st20"/><polygon points="48.3 312.3 45.4 315.5 39.8 309.9 41.9 307.4" class="st21"/></g><g><circle id="flare_10_" cx="52.9" cy="275.9" r="4.6" class="st22"/><path id="light_20_" d="M50.7,280.9c0,0,6-6.3,4.7-7.4c-1.2-1.1-7.1,5.2-7.1,5.2L50.7,280.9z" class="st20"/><polygon points="47.9 278.3 51.1 281.2 45.3 286.7 43 284.5" class="st21"/></g><g><circle id="flare_11_" cx="12.4" cy="290.8" r="4.6" class="st22"/><path id="light_19_" d="M16.2,294.8c0,0-3.5-7.9-5.1-7.2c-1.5,0.7,2.2,8.6,2.2,8.6L16.2,294.8z" class="st20"/><polygon points="12.7 296.3 16.6 294.5 19.5 301.9 16.6 303.3" class="st21"/></g><g><circle id="flare_12_" cx="13.8" cy="338.5" r="4.6" class="st22"/><path id="light_18_" d="M14.2,333c0,0-3.4,7.9-1.9,8.6c1.6,0.6,4.9-7.4,4.9-7.4L14.2,333z" class="st20"/><polygon points="17.7 334.5 13.7 332.9 17.2 325.7 20.2 327" class="st21"/></g><g><circle id="flare_13_" cx="74.6" cy="349.9" r="4.6" class="st22"/><path id="light_17_" d="M69.3,350.9c0,0,8.6,1.3,8.8-0.4s-8.4-2.8-8.4-2.8L69.3,350.9z" class="st20"/><polygon points="69.8 347.2 69.3 351.5 61.5 349.9 61.9 346.7" class="st21"/></g><g><circle id="flare_14_" cx="58.1" cy="373.8" r="4.6" class="st22"/><path id="light_16_" d="M52.8,372.5c0,0,7.2,4.8,8.1,3.3c0.9-1.4-6.4-6.1-6.4-6.1L52.8,372.5z" class="st20"/><polygon points="54.9 369.4 52.6 373 46.2 368.4 47.9 365.6" class="st21"/></g><g><circle id="flare_15_" cx="25.4" cy="399.9" r="4.6" class="st22"/><path id="light_15_" d="M28.6,395.4c0,0-7.1,5-6.1,6.4s8-3.8,8-3.8L28.6,395.4z" class="st20"/><polygon points="30.8 398.5 28.2 395.1 34.9 390.7 36.8 393.3" class="st21"/></g><g><circle id="flare_16_" cx="72.1" cy="423.4" r="4.6" class="st22"/><path id="light_14_" d="M66.8,422.1c0,0,7.2,4.8,8.1,3.3c0.9-1.4-6.4-6.1-6.4-6.1L66.8,422.1z" class="st20"/><polygon points="68.9 418.9 66.6 422.6 60.1 417.9 61.8 415.2" class="st21"/></g><g><circle id="flare_17_" cx="34.3" cy="449.6" r="4.6" class="st22"/><path id="light_13_" d="M38.4,446c0,0-8,3.4-7.3,4.9s8.6-2,8.6-2L38.4,446z" class="st20"/><polygon points="39.9 449.4 38.1 445.5 45.5 442.7 46.9 445.6" class="st21"/></g><g><circle id="flare_18_" cx="81.2" cy="438" r="4.6" class="st22"/><path id="light_12_" d="M77.5,441.9c0,0,7.7-4.1,6.8-5.5c-0.8-1.5-8.4,2.7-8.4,2.7L77.5,441.9z" class="st20"/><polygon points="75.7 438.6 77.8 442.4 70.6 445.8 69 443" class="st21"/></g><g><circle id="flare_19_" cx="72" cy="464.3" r="4.6" class="st22"/><path id="light_11_" d="M75.8,460.4c0,0-7.7,3.9-7,5.4c0.8,1.5,8.5-2.5,8.5-2.5L75.8,460.4z" class="st20"/><polygon points="77.5 463.7 75.4 459.9 82.7 456.7 84.2 459.5" class="st21"/></g><g><circle id="flare_20_" cx="97.4" cy="495.6" r="4.6" class="st22"/><path id="light_10_" d="M92.5,493.2c0,0,6.1,6.1,7.3,4.9c1.2-1.2-5.1-7.2-5.1-7.2L92.5,493.2z" class="st20"/><polygon points="95.1 490.5 92.1 493.6 86.7 487.8 89 485.4" class="st21"/></g><g><circle id="flare_21_" cx="72.3" cy="516.6" r="4.6" class="st22"/><path id="light_9_" d="M75.9,512.5c0,0-7.5,4.3-6.6,5.8c0.9,1.4,8.3-3,8.3-3L75.9,512.5z" class="st20"/><polygon points="77.8 515.8 75.5 512.1 82.6 508.4 84.3 511.2" class="st21"/></g><path d="M343.9,165.8c0,0,7.1-5.5,10.4-0.7c2.1,3,5.9,21.2,18.1,25.1" class="st15"/><path d="M396.6,192.2c0,0,7,5.2-2.7,16.3s-24,29.2-16.5,37.5" class="st15"/><path d="M402.9,255.7c0,0,5.7,3.8,0.7,13.6c-5,9.7-21,39.8-6.1,40.5" class="st15"/><path d="M421.4,302.9c0,0,7.2-0.5,7.2,4.7s0.9,17.6-9,21.7" class="st15"/><path d="M384.4,340.7c0,0-13.3,9.3-5,14.7c8.4,5.4,31.9,35,21.2,45" class="st15"/><path d="M378.5,413.3c0,0-8.6,7,17.9,22.6c0,0,6.1,6.3-3.6,9.3" class="st15"/><path d="M368.3,444.9c0,0-13.3,2.5-13.1,20.8s-6.8,17.4-3.8,25.1s4.3,10.6,4.1,17.2c-0.2,6.6,0,20.1,0,20.1" class="st15"/><g><circle id="flare_43_" cx="361.7" cy="157.1" r="3.7" class="st19"/><path id="light_22_" d="M357.9,159.2c0,0,4.6-5.1,5.6-4.2s-3.7,6-3.7,6L357.9,159.2z" class="st20"/><polygon points="360.1 161.2 357.6 158.9 353.6 163.8 355.4 165.5" class="st21"/></g><g><circle id="flare_42_" cx="349" cy="184.6" r="4.6" class="st22"/><path id="light_23_" d="M354.2,183c0,0-7,5.1-7.9,3.7s6.1-6.4,6.1-6.4L354.2,183z" class="st20"/><polygon points="352 180 354.5 183.5 360.7 178.5 358.8 175.9" class="st21"/></g><g><circle id="flare_41_" cx="367.1" cy="201.1" r="4.2" class="st22"/><path id="light_24_" d="M370.1,197.1c0,0-2.5,7.5-4,7s1.2-8,1.2-8L370.1,197.1z" class="st20"/><polygon points="366.8 196 370.6 197.4 372.6 190.3 369.8 189.3" class="st21"/></g><g><circle id="flare_40_" cx="403.8" cy="181.4" r="4.6" class="st22"/><path id="light_25_" d="M399.2,184.1c0,0,5.5-6.6,6.8-5.5c1.2,1.1-4.4,7.6-4.4,7.6L399.2,184.1z" class="st20"/><polygon points="402.1 186.5 398.9 183.7 394.1 190 396.5 192.1" class="st21"/></g><g><circle id="flare_39_" cx="409" cy="208.4" r="4.8" class="st22"/><path id="light_26_" d="M404.4,205.1c0,0,8.7,2.5,8.1,4.2s-9.1-1-9.1-1L404.4,205.1z" class="st20"/><polygon points="403.3 208.9 404.6 204.6 396.6 202.6 395.5 205.8" class="st21"/></g><g><circle id="flare_38_" cx="374.8" cy="210.4" r="4.6" class="st22"/><path id="light_27_" d="M377.1,215.4c0,0-6-6.3-4.7-7.4s7.1,5.2,7.1,5.2L377.1,215.4z" class="st20"/><polygon points="379.8 212.8 376.6 215.7 382.4 221.2 384.8 219.1" class="st21"/></g><g><circle id="flare_37_" cx="367.6" cy="253.6" r="4.7" class="st22"/><path id="light_28_" d="M372.3,250.6c0,0-5.4,6.9-6.7,5.8c-1.3-1.1,4.2-7.9,4.2-7.9L372.3,250.6z" class="st20"/><polygon points="369.2 248.2 372.6 251 377.3 244.4 374.8 242.3" class="st21"/></g><g><circle id="flare_36_" cx="409.8" cy="247.2" r="4.5" class="st22"/><path id="light_29_" d="M405.6,250.5c0,0,4.6-7.1,6-6.2s-3.4,8-3.4,8L405.6,250.5z" class="st20"/><polygon points="408.8 252.6 405.2 250.2 401.3 256.9 403.9 258.7" class="st21"/></g><g><circle id="flare_35_" cx="413.3" cy="273.8" r="4.2" class="st22"/><path id="light_30_" d="M409.1,271c0,0,7.7,1.9,7.2,3.4c-0.4,1.5-8-0.6-8-0.6L409.1,271z" class="st20"/><polygon points="408.3 274.4 409.3 270.6 402.2 269.1 401.4 272" class="st21"/></g><g><circle id="flare_34_" cx="388" cy="318" r="4.6" class="st22"/><path id="light_31_" d="M393,315.9c0,0-6.4,5.9-7.5,4.6s5.4-7,5.4-7L393,315.9z" class="st20"/><polygon points="390.4 313.1 393.3 316.3 398.9 310.7 396.8 308.3" class="st21"/></g><g><circle id="flare_33_" cx="385.8" cy="276.7" r="4.6" class="st22"/><path id="light_32_" d="M388.1,281.7c0,0-6-6.3-4.7-7.4c1.2-1.1,7.1,5.2,7.1,5.2L388.1,281.7z" class="st20"/><polygon points="390.8 279.1 387.6 282 393.4 287.5 395.8 285.4" class="st21"/></g><g><circle id="flare_32_" cx="426.3" cy="291.6" r="4.6" class="st22"/><path id="light_33_" d="M422.6,295.6c0,0,3.5-7.9,5.1-7.2c1.5,0.7-2.2,8.6-2.2,8.6L422.6,295.6z" class="st20"/><polygon points="426 297.2 422.1 295.3 419.2 302.7 422.1 304.1" class="st21"/></g><g><circle id="flare_31_" cx="424.9" cy="339.3" r="4.6" class="st22"/><path id="light_34_" d="M424.5,333.9c0,0,3.4,7.9,1.9,8.6c-1.6,0.6-4.9-7.4-4.9-7.4L424.5,333.9z" class="st20"/><polygon points="421 335.4 425 333.7 421.5 326.6 418.5 327.8" class="st21"/></g><g><circle id="flare_30_" cx="364.1" cy="350.8" r="4.6" class="st22"/><path id="light_35_" d="M369.4,351.8c0,0-8.6,1.3-8.8-0.4c-0.2-1.7,8.4-2.8,8.4-2.8L369.4,351.8z" class="st20"/><polygon points="368.9 348 369.4 352.3 377.3 350.8 376.8 347.6" class="st21"/></g><g><circle id="flare_29_" cx="380.6" cy="374.7" r="4.6" class="st22"/><path id="light_36_" d="M385.9,373.3c0,0-7.2,4.8-8.1,3.3s6.4-6.1,6.4-6.1L385.9,373.3z" class="st20"/><polygon points="383.8 370.2 386.1 373.8 392.6 369.2 390.9 366.4" class="st21"/></g><g><circle id="flare_28_" cx="413.3" cy="400.7" r="4.6" class="st22"/><path id="light_37_" d="M410.1,396.3c0,0,7.1,5,6.1,6.4c-1,1.3-8-3.8-8-3.8L410.1,396.3z" class="st20"/><polygon points="408 399.4 410.5 395.9 403.8 391.6 401.9 394.2" class="st21"/></g><g><circle id="flare_27_" cx="366.7" cy="424.2" r="4.6" class="st22"/><path id="light_38_" d="M371.9,422.9c0,0-7.2,4.8-8.1,3.3s6.4-6.1,6.4-6.1L371.9,422.9z" class="st20"/><polygon points="369.9 419.7 372.2 423.4 378.6 418.8 376.9 416" class="st21"/></g><g><circle id="flare_26_" cx="404.4" cy="450.4" r="4.6" class="st22"/><path id="light_39_" d="M400.4,446.8c0,0,8,3.4,7.3,4.9s-8.6-2-8.6-2L400.4,446.8z" class="st20"/><polygon points="398.9 450.3 400.7 446.3 393.2 443.5 391.9 446.5" class="st21"/></g><g><circle id="flare_25_" cx="357.5" cy="438.8" r="4.6" class="st22"/><path id="light_40_" d="M361.2,442.8c0,0-7.7-4.1-6.8-5.5s8.4,2.7,8.4,2.7L361.2,442.8z" class="st20"/><polygon points="363 439.4 360.9 443.2 368.1 446.6 369.7 443.8" class="st21"/></g><g><circle id="flare_24_" cx="366.8" cy="465.1" r="4.6" class="st22"/><path id="light_41_" d="M363,461.2c0,0,7.7,3.9,7,5.4c-0.8,1.5-8.5-2.5-8.5-2.5L363,461.2z" class="st20"/><polygon points="361.3 464.6 363.3 460.7 356 457.5 354.5 460.3" class="st21"/></g><g><circle id="flare_23_" cx="341.4" cy="496.4" r="4.6" class="st22"/><path id="light_42_" d="M346.3,494c0,0-6.1,6.1-7.3,4.9c-1.2-1.2,5.1-7.2,5.1-7.2L346.3,494z" class="st20"/><polygon points="343.6 491.3 346.6 494.5 352 488.6 349.8 486.2" class="st21"/></g><g><circle id="flare_22_" cx="366.4" cy="517.4" r="4.6" class="st22"/><path id="light_43_" d="M362.8,513.3c0,0,7.5,4.3,6.6,5.8c-0.9,1.4-8.3-3-8.3-3L362.8,513.3z" class="st20"/><polygon points="361 516.6 363.2 512.9 356.1 509.2 354.5 512" class="st21"/></g></g></svg>