<svg xmlns="http://www.w3.org/2000/svg" xmlns:xlink="http://www.w3.org/1999/xlink" id="Layer_1" x="0" y="0" version="1.1" viewBox="0 0 1922 206.2" xml:space="preserve" style="enable-background:new 0 0 1922 206.2"><style type="text/css">.st0{fill:#fff}</style><path d="M1922,125.2c0,0-140,29.7-178.3,35.9l-12-33.2l-10.3,26.4l-7.7-21.4l-6.7,17.3l-11.3-31.3l-10.9,28.1	c-30.9-22.6-72.2-49.7-116.8-70.8c-52.4-24.8-120.4-1-169.7,24.5l-8.6-23.8l-11.6,29.9l-5.4-14.9l-8.8,22.7l-8.2-22.7l-7.8,20.1	C1278.2,64.6,1176.4,3.8,1108,0.2C1056.9-2.6,975.1,30.7,900.8,68l-5.1-14.1l-8.1,20.9c-2.4,1.2-4.8,2.5-7.2,3.7l-1.7-4.6l-2.7,6.9	c-16,8.4-31.3,16.7-45.7,24.8c-71.1-9.8-136.5-18.1-202.4-23.3l-11.2-31.1l-8.6,22.1l-11.4-31.5l-14.6,37.4	c-35-1.9-70.6-2.9-107.5-2.7l-12.5-34.7l-10,25.7L435,20.2l-19.9,51.2l-7.4-20.5l-10.8,27.7C287,83.9,161.2,99.8,0,131.2l1,75h1921	V125.2z M1350,168c-1-0.1-2-0.2-2.9-0.2l2.8,0L1350,168z" class="st0"/></svg>