<svg xmlns="http://www.w3.org/2000/svg" xmlns:xlink="http://www.w3.org/1999/xlink" id="Layer_1" x="0" y="0" enable-background="new 0 0 820.4 1072.6" version="1.1" viewBox="0 0 820.4 1072.6" xml:space="preserve"><style type="text/css">.st0{fill:url(#SVGID_1_)}</style><g transform="translate(0.000000,1280.000000) scale(0.100000,-0.100000)"><radialGradient id="SVGID_1_" cx="-5411.82" cy="2077.418" r=".5" gradientTransform="matrix(820.4438 0 0 1072.6428 4444196.5 -2220890.5)" gradientUnits="userSpaceOnUse"><stop offset=".2" stop-color="wheat"/><stop offset=".95" stop-color="#FFDAB9"/></radialGradient><path d="M5413,12780.5c-9-13-16-31-16-39c0-35-31-118-61-163c-41-62-73-77-178-84c-75-5-92-3-117,13 c-45,30-62,55-69,108c-7,58-25,105-49,129c-22,22-122,23-232,2c-222-40-407-43-669-10c-215,28-328,36-442,33c-61-2-110-6-110-9 c1-4-20-22-48-40c-74-51-100-108-97-217c3-84,2-85-16-68c-15,13-40,17-113,18c-52,1-100-1-106-5c-7-4-16,0-21,8c-6,11-34,20-86,27 c-69,9-79,8-90-7c-12-16-13-16-19-1c-4,10-18,16-39,16c-37,1-166,24-173,32c-3,3,2,19,11,37c11,22,13,35,6,44c-6,7-10,27-10,44 c2,72-95,138-182,123c-148-25-188-30-317-40c-78-5-168-16-200-24c-38-10-89-13-148-10c-134,7-328,5-530-6c-125-7-209-7-275,1 c-52,5-119,12-149,14s-72,6-95,9c-56,8-560,46-616,46c-34,0-48-5-55-19c-6-10-20-36-32-57c-29-54-39-177-18-227c14-34,19-37,56-37 c45,0,45-15-1-25c-16-4-32-10-35-14c-2-5,28-44,69-87c67-73,75-78,109-76c40,3,43-2,38-74c-2-25,2-33,21-38l23-7l-27-10 c-18-7-29-20-33-40c-4-19-16-34-30-39c-27-10-42-47-26-63c18-18,13-24-32-35c-55-14-77-39-84-94c-3-24-12-50-20-60 c-16-18-14-84,2-81c6,1,11-34,12-85c2-69,6-90,20-102c10-8,18-19,19-25c1-21,26-69,42-82c16-12,15-13-5-19c-27-8-29-19-6-33 c14-8,15-12,4-25c-8-10-11-26-7-42c6-21,1-33-20-56c-21-21-30-42-35-86c-6-54,9-330,31-582c5-63,14-241,20-395s13-296,15-315 s7-69,10-110c13-189,25-374,31-472c5-96,8-110,30-131c15-16,40-26,67-29c35-4,53-14,88-50l45-45l-104,5c-57,3-113,0-125-5 c-111-49-132-63-149-105c-25-62-41-230-26-263c9-21,9-31,0-46c-16-25-15-45,4-74c14-21,16-70,17-337c1-191-3-358-10-428 c-7-63-15-258-19-434c-3-180-10-330-16-345c-5-14-12-46-14-69c-3-40,0-47,36-81c36-33,40-41,34-71c-6-27-3-36,17-51s21-19,6-19 c-10,0-22-11-27-25c-5-13-23-31-40-40c-27-14-30-20-25-48c3-18,7-49,10-70c5-43,12-57,27-57c6,0,26-14,45-31c33-29,40-30,102-27 l66,3l3-31c4-38-21-102-43-110c-23-9-18-31,10-38c35-9,31-18-18-42c-31-15-43-28-47-48c-4-21-14-31-42-41c-52-18-81-38-97-68 c-12-23-11-49,8-199c76-589,82-710,55-983c-9-88-17-243-18-345c-1-173,0-188,22-235c31-67,56-91,114-111c58-19,57-30-2-105 c-28-35-39-61-44-100c-9-68-34-115-85-161c-23-20-41-42-41-48s11-39,24-73c32-81,44-128,52-207c6-60-8-228-22-264c-4-10,0-18,10-21 c9-3,23-7,32-10c13-4,10-12-18-43c-33-36-35-44-41-128c-4-49-14-114-24-144c-9-32-19-114-24-200c-4-80-10-165-14-190 c-9-59,14-141,43-155c12-5,23-22,27-43c8-42,25-72,42-72c7,0,29-15,49-32c46-41,50-41,404-5c374,39,786,67,986,67 c212,0,671-25,823-46c137-18,148-15,192,63c28,49,33,53,67,53c68,0,87-1,142-3c54-2,55-2,58,28c5,43,14,48,58,31c21-8,63-22,93-31 l54-16l23,28c21,27,24,27,56,15c18-8,59-22,91-33c73-24,285-124,310-147c15-13,41-17,120-19c56-1,118-3,137-3c19-1,71-1,115,0 c47,0,102-6,135-16c102-30,107-29,148,7c21,19,47,39,57,45c17,9,18,16,8,75c-11,63-26,94-93,186c-41,57-39,65,13,57 c68-11,104-30,130-71c25-40,47-114,47-157c0-26,3-28,50-30c21-1,26-7,30-41l5-40l55,2c30,0,81,4,112,8c39,5,63,4,72-4 c10-8,31-8,85,4c40,8,89,15,109,15c45,0,149-22,215-45c73-26,80-19,76,73l-4,77l38,3c20,2,37,7,37,13c0,5,4,9,10,9c5,0,14-19,21-42 c33-123,43-132,135-118c38,5,193,12,344,15s343,9,425,13c193,10,778,5,965-8c80-6,197-17,260-25c373-50,425-53,484-26 c27,11,46,26,44,33c-3,7-26,18-52,24c-85,22-77,34,26,40c40,2,76,4,81,4c4,0,7,8,7,17s7,24,15,33c9,10,17,42,19,77 c3,33,11,81,20,107s16,55,16,66c0,29-37,48-120,61c-41,6-82,14-90,17c-16,5,79,23,140,25c19,1,38,6,41,11c4,5-2,35-13,67 c-26,78-81,129-139,129h-41l6,34c5,28,3,34-14,39c-29,8-25,20,16,42c43,23,60,50,44,71c-10,11-8,17,9,31c14,12,22,30,23,56 c1,20,6,37,12,37s44-25,84-56c42-31,80-53,88-50c19,7,19,113-1,207c-14,68-14,78,5,165c11,52,20,100,20,108c0,13-137,86-189,101 c-39,12-9,25,68,32c86,7,97,18,111,114c6,35,20,105,32,155l21,92l-21,53c-11,30-28,89-36,133c-13,61-24,88-49,117 c-17,21-45,54-60,73c-25,31-36,36-88,42c-32,4-59,11-59,16c0,6,23,7,58,4c65-8,112,10,145,55c17,24,19,48,21,285 c2,239,4,268,29,384c40,182,67,356,67,429s-19,154-56,237c-19,42-28,83-32,143c-5,83-5,83-38,97c-29,12-39,12-76-1 c-58-20-63-19-44,10s14,45-16,45c-61,0-155,46-135,66c2,2,34-9,73-25c91-38,143-46,206-30c110,26,157,78,165,182c2,34-3,172-12,307 c-10,135-19,272-20,305c-2,33-6,83-9,110c-14,115-18,440-6,610c6,99,12,187,12,195s4,58,9,110s11,140,13,195c5,112-2,133-53,155 c-26,10-34,22-47,66c-8,30-20,54-25,54c-19,0-8,22,27,53c20,18,45,35,55,39c28,11,25,77-6,142c-36,76-48,83-142,91l-82,8l-16,53 c-19,66-12,102,22,110c34,9,180-2,221-17c48-17,63-7,51,33c-5,18-9,58-9,88c-1,56-12,81-41,92c-15,6-16,20-12,111 c9,159-19,282-75,334c-24,22-27,31-25,81c2,32,10,84,19,117c8,33,24,123,35,200c11,78,33,181,50,234c17,51,31,119,32,149 c2,52,0,57-26,70c-15,7-32,25-38,39c-13,35-10,236,6,388c8,72,16,162,19,200c9,130,27,320,32,334c8,24,16,270,10,296 c-5,21-11,24-35,19c-27-6-28-4-34,37c-3,24-1,51,4,60c5,10,9,29,9,43s4,27,9,30c15,9,52,125,54,168c2,37-1,44-26,56 c-21,10-27,18-21,30c3,10,13,51,21,92c37,197-33,370-175,431c-52,23-218,40-367,39c-140-1-395,9-448,17c-27,5-141,4-255-1 c-147-6-233-5-301,3c-53,6-130,14-171,16c-136,7-209,14-272,26c-61,11-79,13-198,23c-30,2-138,16-240,31 C5432,12808.5,5433,12808.5,5413,12780.5z" class="st0"/></g></svg>