<svg xmlns="http://www.w3.org/2000/svg" xmlns:xlink="http://www.w3.org/1999/xlink" id="text" x="0" y="0" enable-background="new 0 0 458.9 187.4" version="1.1" viewBox="0 0 458.9 187.4" xml:space="preserve"><style type="text/css">.st0{fill:#7c3f52}.st1{fill:#ed4e56}</style><path d="M159,151.4c0,0,1.1,1.3,0.8,3.9c-1.8,20.3-33.3,26.6-44.2,0.6c-9.7-23.2,16.4-90.6,33-98	c-1.9-5.1-2.9-6.8-4.4-8.7c-8.1,6.4-14.3,14.4-22.4,33.3c-4.5,10.4-9.6,24.6-12.9,37.9c-2-2.9-5.8-6.3-11.9-5.9	c-2.6,0.2-7.7,1.1-14,2.4c5.8-15.3,11.9-31.8,14.4-42.1c4.2-17.4,3-19.1-6.1-24.6C85.9,47,75.5,47.1,66,57s-21,27.3-23.8,44.9	c-1.3,8.6,6.2,13,7.5,11.6c1.9-2.1-2-0.9-0.6-10.6s8.8-25,14.8-32.7c6.1-7.7,20-19.1,27-14.7c0.4,0.3,0.8,7-1.4,15.3	c-2.5,9.1-9.8,34-14.7,47.8c-19,3.8-43.7,8.4-51.1,5.5c-11.3-4.5-14.2-10.6-12.4-20.4C13.6,91,23.8,83.4,36,88.7	c0.2-4.7-9.5-10.2-17-6.8c-15.2,6.9-21.8,29.9,0.5,44.3c11.2,7.2,30.6,4.8,52.6-0.7c-5.1,13.3-14.7,39.3-1.3,42.3	c0,0-4-6.5,1.9-23.6c1.9-5.5,4.7-12.8,7.7-20.8c15.1-3.6,23.7-1.9,27.7-0.4c-2.4,10-3.7,19.4-2.8,26c4.2,33.9,44.4,42.8,57.3,16.3	C165.8,159,164.2,153.2,159,151.4z" class="st0"/><path d="M454.9,106.9c-2.6-27.1-41-34.6-68.2-26.1c-0.3-4.9-1-9.6-1-13.3c0-3.7,2.7-10.9,4.4-14.1	c0.1-0.3,0.3-0.5,0.4-0.8c2.8-5.4,2.2-7.8-0.1-10.1c-2.3-2.3-3.1-2.9-5.7,4.3c-2,5.4-3.1,9.2-3.7,12.2	c-12.8,22.4-11.1,17.4-25.3,34.7c-5.2,6.3-10.9,11.9-16.9,17.1c3.2-11.2,6.5-22.3,11.1-32.1c6.5-13.8,11.5-19.1,11.5-19.1l-4.1-5.6	c-5.5,4.7-10.5,13.6-15,24.5c-8.3,13.3-21.3,37.2-24.2,35.2c-6.2-4.2,15.5-43.2,15.5-43.2l-6.1-6.2c-1.1,2.4-8.1,16.6-12.2,27.7	c-5.6,9.5-17.5,28.7-20.7,26.5c-6-4.1,13.7-45.6,13.7-45.6l-4.9-5.7c-1.9,3.1-4.1,8-6.3,13.5c-0.5-1.2-1.4-2.8-3.1-4.8	c-4.5-5.3-4.6-7.8-11-3.4c-6,4.2-14.9,19.9-17,33.2c-4.4,7.6-10.8,17.4-13.4,15.8c-5.3-3.3,18.5-62,18.5-62l-6-5.9	c0,0-5,11.9-10.4,27.9c-1.4-2.1-3.7-5-6.4-4.9c-4.3,0.1-12.8,7.1-20.1,22.3c-1.9,3.9-3.4,7.9-4.4,11.8c-4.9,8.9-15.2,22.6-19.5,21.2	c-6.5-2.2,11.2-46.9,11.2-46.9l-5.6-4.8c-7.2,17.2-8.9,21.9-10.9,29.5c-1.5,2.9-3.3,6-5.3,9.2c-6.2,9.4-16.1,19.3-18.2,18.5	c-2.2-0.8-0.7-16.1,3.8-30.6c1-3.3,2.1-6.5,3.2-9.4c11.4-6.7,21.8-24.3,24.3-30.9c2.7-6.9,3.1-10.7,2-12.3c-3.5-5.2-4.6-5.7-4.6-5.7	c-6.1-0.3-23.1,30.3-28.6,46.5c-1.2,3.7-2.6,7.9-3.8,12.2c-2.1,1.8-5.6,4.3-9.2,4.7c5-21.3-1.4-24.7-4.5-25.5	c-6-1.5-13.2,3.6-19.4,15.7c-8.4,16.3-13.5,44.5-2,46.8c8.8,1.7,22-24,25.2-34c3.6,0.3,6.5-1,8.8-2.8c-3.2,13-4.4,26,2,29.2	c7.1,3.6,19.1-13.7,24.4-22.1c-1.3,8.1-1,15.9,4.1,17.9c7.5,2.8,18-12.6,21.2-17.8c-0.5,7.1,1.1,12.6,5.2,13.7	c5.1,1.4,13.6-12.5,19.1-22.8c-1.8,9.4-1.7,16.7,2,19c4,2.5,12.5-9.8,17-16.9c0.4,12,8.4,22.5,22-2.5c-1.2,6.4-0.4,12.2,5.6,14.6	c4.5,1.8,14.2-13.2,19-21.5c-1.8,8.1-1,13.9,4.5,16.6c4.3,2.1,14-14.2,20.2-25.7c-2.7,8.1-5,16.6-7,24.9	c-8.5,6.9-16.9,13.3-24.1,20.4c-85.5-21.6-125.1,19.2-122,47.4c1.2-45.2,72.1-52.3,116.5-41.5c-4.5,5.2-9.6,12.5-12.5,18.9	c-9.3,20.4,19,23,37.4-13.1c32.3,6.6,70.5,10,100.6-4.2C445.8,136.8,456.2,120.7,454.9,106.9z M201.4,69.3	c-4,10.4-13.6,20-17.4,23.5c6.1-15.5,12.3-25.2,15.5-29.4C206.6,53.9,206.5,56.2,201.4,69.3z M157.9,93.4c2.2,0.7,2.9,7.3,0.7,17.9	c-1.3-0.5-2.6-1.5-3.8-3c-1.8-2.3-0.1-10,1.1-14.7C156.7,93.3,157.4,93.2,157.9,93.4z M139,142.7c-5.9-3.4-1.7-20,3.1-31.7	c2.7-6.5,6.4-11.5,9.6-14.5c-1.4,6.1-1.7,14.7,6.3,17.4C154.8,126.1,143.6,145.3,139,142.7z M248.9,99.8c-4.7,9-15.5,28.8-18.8,27.3	c-4.3-1.9,0.8-23,10.8-36.5c6.2-8.4,10.9-9.1,13.4-8.5c-0.6,1.7-1.1,3.4-1.7,5.2C251.2,91.5,250,95.8,248.9,99.8z M273.7,118.6	c-4.8-3.4,1.4-23.5,5.6-30.3c4.3-6.8,10.7-15,13.5-9.4c1.7,3.5,0.2,10.9-1.2,16.1C289.2,99.9,277.9,121.6,273.7,118.6z M328.4,123.6	c-1.9,6.9-4.4,13.3-7.1,19.1c-3.5-0.7-6.9-1.5-10.4-2.4C316.9,134.1,323.3,128.2,328.4,123.6z M291.3,164.9c2.4-5.2,7.7-12,14-18.9	c4,1,8.3,2,12.6,3C300,181.1,285.6,177.4,291.3,164.9z M431,134.7c-19.2,15.1-60.2,17.3-102.9,9.3c3.8-8.9,6.7-18.7,9.4-28.5	c12.7-11.7,30.9-30.3,40.2-44.9c1-1.6,1.9-2.9,2.7-4.1c0.3,4.1,1.4,7.5,0.6,16.3c-8.9,3.6-15.5,8.2-18.8,11.3	c-8.2,7.6-8.5,10.7-3.7,15.6c7,7.2,15,3.6,23.3-7.6c3.7-5,4.8-10.6,5-16C437.1,70.6,471.7,102.8,431,134.7z M380.3,88.2	c-3.4,15.8-16.6,21-20.2,18.2C357.9,104.7,366.8,93.7,380.3,88.2z" class="st0"/><path d="M214.4,70.6c0,0,1.5,2.1,3.7,4.1c2.3,2,2,2.6,5-5.2c3.4-8.8,7.8-10.5,7.8-10.5s0-0.4-0.8-1.3	C220.7,58.8,214.4,70.6,214.4,70.6z" class="st0"/><path d="M149.4,24c1.5,0,2.7-1.2,2.7-2.7s-1.2-2.7-2.7-2.7s-2.7,1.2-2.7,2.7C146.7,22.7,147.9,24,149.4,24z" class="st1"/><path d="M297.5,20.9v9.7c0,1.1,0.9,2,2,2s2-0.9,2-2V21l11.7-12.4c0.7-0.8,0.7-2-0.1-2.8c-0.8-0.7-2-0.7-2.8,0.1	l-10.7,11.3l-9-11.2c-0.7-0.8-1.9-1-2.8-0.3c-0.8,0.7-1,1.9-0.3,2.8L297.5,20.9z" class="st1"/><path d="M232.7,30.7c1.1,0,2-0.9,2-2v-7.9c7.4,0.1,13-0.3,15.7-3c1.1-1.1,1.6-2.6,1.6-4.3c-0.1-2.1-1-3.9-2.6-5.2	c-5-4.3-15.7-3.2-16.9-3c-1.3,0.2-1.7,1.3-1.7,2.2s0,21.3,0,21.3C230.8,29.8,231.6,30.7,232.7,30.7z M246.9,11.3	c0.8,0.7,1.1,1.4,1.2,2.4c0,0.8-0.2,1.2-0.5,1.4c-1.8,1.9-7.9,1.9-12.9,1.8V9C238.2,8.8,244.2,9,246.9,11.3z" class="st1"/><path d="M262,30.7c1.1,0,2-0.9,2-2v-7.9c7.4,0.1,13-0.3,15.7-3c1.1-1.1,1.6-2.6,1.6-4.3c-0.1-2.1-1-3.9-2.6-5.2	c-5-4.3-15.7-3.2-16.9-3c-1.3,0.2-1.7,1.3-1.7,2.2s0,21.3,0,21.3C260,29.8,260.9,30.7,262,30.7z M276.1,11.3	c0.8,0.7,1.1,1.4,1.2,2.4c0,0.8-0.2,1.2-0.5,1.4c-1.8,1.9-7.9,1.9-12.9,1.8V9C267.5,8.8,273.5,9,276.1,11.3z" class="st1"/><path d="M194.7,32.3c0.9,0.5,2.1,0.2,2.7-0.7l5.3-9.4h12.4l5.3,9.4c0.4,0.6,1,1,1.7,1c0.3,0,0.7-0.1,1-0.3	c0.9-0.5,1.3-1.7,0.7-2.7L210.6,6.3c-0.3-0.6-1-1-1.7-1s-1.4,0.4-1.7,1L194,29.6C193.4,30.5,193.7,31.7,194.7,32.3z M208.9,11.2l4,7	h-8L208.9,11.2z" class="st1"/><path d="M166.5,32.5c1.1,0,2-0.9,2-2v-9.7h14.3v9.7c0,1.1,0.9,2,2,2s2-0.9,2-2V7.2c0-1.1-0.9-2-2-2s-2,0.9-2,2v9.7	h-14.3V7.2c0-1.1-0.9-2-2-2s-2,0.9-2,2v23.3C164.6,31.6,165.5,32.5,166.5,32.5z" class="st1"/><path d="M320.3,24c1.5,0,2.7-1.2,2.7-2.7s-1.2-2.7-2.7-2.7s-2.7,1.2-2.7,2.7C317.6,22.7,318.8,24,320.3,24z" class="st1"/></svg>