<?xml version="1.0" encoding="utf-8"?>
<!-- Generator: Adobe Illustrator 24.0.0, SVG Export Plug-In . SVG Version: 6.00 Build 0)  -->
<svg version="1.1" id="trees" xmlns="http://www.w3.org/2000/svg" xmlns:xlink="http://www.w3.org/1999/xlink" x="0px" y="0px"
	 viewBox="0 0 1005.9 465.1" style="enable-background:new 0 0 1005.9 465.1;" xml:space="preserve">
<style type="text/css">
	.st0{fill:#61C3A7;}
	.st1{fill:none;stroke:#61C3A7;stroke-width:11;stroke-linecap:round;stroke-linejoin:round;stroke-miterlimit:10;}
</style>
<path class="st0" d="M624,287.9c-54-0.6-93.7-23.9-125.1-54.3c20.9-8.9,38.7-23.6,56.2-39.7C489,193.2,452.9,145,424.9,105
	c20.2-1.2,34.9-12.6,49.1-25.7c-55-0.6-71-62.9-92.4-73.9c-21.4,10.9-37.4,73.3-92.4,73.9c14.3,13.1,28.9,24.5,49.1,25.7
	c-28,40-64.1,88.2-130.1,88.9c17.5,16.1,35.4,30.8,56.2,39.7c-31.4,30.4-71.1,53.7-125.1,54.3c54.8,66.6,132.2,98,209.9,104.5
	L332.7,455h97.8L414,392.2C505.8,384,588.9,343.4,624,287.9z"/>
<path class="st0" d="M717.1,282.1c110.5-38-39.7-34.6-29.2-89.3l-0.6-0.4c110.5-38-40.6-26.4-45-120h-2.6
	c-2.3,93.7-153.7,85.5-42.3,121l-0.6,0.4c11.8,54.4-138.6,54.3-27.2,89.9c26.9,31.8-244.2,104,57.3,124.4l-6.3,45.2l23.7-0.3
	l23.7-0.3l-7.3-44.9C964.7,380.8,690.9,314.5,717.1,282.1z"/>
<path class="st0" d="M1002,356.1c-30.6-0.3-53.1-13.5-71-30.8c11.8-5.1,22-13.4,31.9-22.5c-37.5-0.4-58-27.8-73.8-50.4
	c11.5-0.7,19.8-7.2,27.9-14.6c-31.2-0.3-40.3-35.7-52.4-41.9c-12.1,6.2-21.2,41.6-52.4,41.9c8.1,7.4,16.4,13.9,27.9,14.6
	c-15.9,22.7-36.3,50-73.8,50.4c9.9,9.1,20.1,17.5,31.9,22.5c-17.8,17.2-40.3,30.5-71,30.8c31.1,37.7,75,55.6,119.1,59.3l-9.4,35.5
	h55.5l-9.4-35.6C934.9,410.6,982.1,387.6,1002,356.1z"/>
<path class="st0" d="M280,360c-30.6-0.3-53.1-13.5-71-30.8c11.8-5.1,22-13.4,31.9-22.5c-37.5-0.4-58-27.8-73.8-50.4
	c11.5-0.7,19.8-7.2,27.9-14.6c-31.2-0.3-40.3-35.7-52.4-41.9c-12.1,6.2-21.2,41.6-52.4,41.9c8.1,7.4,16.4,13.9,27.9,14.6
	c-15.9,22.7-36.3,50-73.8,50.4c9.9,9.1,20.1,17.5,31.9,22.5c-17.8,17.2-40.3,30.5-71,30.8c31.1,37.7,75,55.6,119.1,59.3l-9.4,35.5
	h55.5l-9.4-35.6C213,414.5,260.1,391.5,280,360z"/>
<line class="st1" x1="104.1" y1="454.3" x2="900.8" y2="454.3"/>
</svg>
