<?xml version="1.0" standalone="no"?>
<!DOCTYPE svg PUBLIC "-//W3C//DTD SVG 20010904//EN"
 "http://www.w3.org/TR/2001/REC-SVG-20010904/DTD/svg10.dtd">
<svg version="1.0" xmlns="http://www.w3.org/2000/svg"
 width="1472.000000pt" height="1472.000000pt" viewBox="0 0 1472.000000 1472.000000"
 preserveAspectRatio="xMidYMid meet">
<metadata>
Created by potrace 1.11, written by Peter Selinger 2001-2013
</metadata>
<g transform="translate(0.000000,1472.000000) scale(0.100000,-0.100000)"
fill="#000000" stroke="none">
<path d="M7355 14347 c-158 -139 -363 -348 -466 -477 -223 -276 -332 -510
-333 -715 0 -128 29 -209 112 -312 23 -29 30 -43 20 -43 -8 0 -78 -21 -154
-46 -535 -177 -1074 -465 -1492 -797 -156 -124 -450 -415 -562 -557 -376 -475
-590 -1012 -640 -1610 -12 -152 -44 -963 -65 -1655 -26 -886 -35 -1536 -35
-2601 l0 -1034 3521 0 c3348 0 3520 1 3515 18 -3 9 -12 45 -20 78 -29 112 -97
298 -151 411 -70 147 -161 278 -260 378 -135 135 -511 403 -1405 999 -688 460
-917 620 -1147 804 -170 136 -397 351 -498 472 -88 106 -197 276 -240 377 -64
149 -87 258 -89 418 -1 126 14 255 33 292 4 8 36 -8 96 -49 107 -71 354 -194
479 -237 204 -72 401 -109 616 -118 247 -10 451 21 730 112 207 67 327 84 464
67 165 -21 317 -88 460 -203 232 -186 450 -530 581 -914 15 -44 28 -81 30 -83
2 -2 202 47 445 109 l443 112 66 -16 c36 -9 140 -37 231 -62 91 -24 171 -45
178 -45 17 0 69 84 157 253 235 455 295 820 173 1050 -37 69 -79 108 -423 399
-313 264 -696 596 -1479 1283 -351 308 -647 567 -658 576 -19 15 -18 19 31
205 52 194 121 477 121 494 0 18 -247 264 -345 343 -479 386 -1136 636 -1822
693 l-83 7 -2 869 -3 869 -130 -114z m1336 -2837 c133 -25 260 -126 321 -257
26 -55 33 -83 36 -155 9 -192 -84 -349 -258 -432 -62 -29 -71 -31 -185 -31
-116 0 -122 1 -190 34 -286 140 -342 516 -108 731 107 98 242 137 384 110z"/>
<path d="M3970 4190 c-118 -8 -249 -27 -262 -39 -4 -4 4 -59 17 -124 14 -64
25 -121 25 -125 0 -5 -31 -16 -69 -25 -38 -9 -110 -32 -159 -52 -49 -19 -93
-35 -98 -34 -5 0 -33 52 -63 114 l-55 115 -85 -46 c-172 -93 -357 -236 -481
-374 -38 -43 -70 -82 -70 -88 0 -5 43 -44 95 -87 93 -75 104 -88 86 -99 -13
-9 -116 -166 -145 -223 -14 -29 -28 -53 -30 -53 -3 0 -57 25 -121 55 l-116 54
-28 -63 c-89 -196 -145 -442 -153 -663 l-3 -83 132 0 133 0 0 -62 c0 -62 23
-238 35 -269 5 -14 -16 -22 -123 -49 l-130 -32 20 -71 c59 -211 192 -477 314
-628 l30 -36 99 78 c54 44 99 79 100 79 1 0 58 -55 127 -123 l125 -123 -79
-102 -78 -101 77 -55 c166 -117 363 -211 562 -267 57 -16 105 -28 106 -26 1 1
14 59 30 130 23 103 31 126 44 122 30 -9 146 -24 239 -30 l92 -7 0 -129 0
-129 360 0 360 0 0 130 0 130 175 0 175 0 0 -130 0 -130 355 0 355 0 0 130 0
130 180 0 180 0 0 -130 0 -130 355 0 355 0 0 130 0 130 174 0 173 0 6 -67 c4
-38 7 -96 7 -130 l0 -63 355 0 355 0 0 130 0 130 175 0 175 0 0 -130 0 -130
360 0 360 0 0 130 0 130 175 0 175 0 0 -130 0 -130 355 0 355 0 0 63 c0 34 3
92 6 128 l7 66 171 6 c94 3 172 4 173 4 0 -1 7 -56 13 -122 7 -66 16 -123 20
-128 3 -4 58 2 121 12 182 32 339 85 514 172 156 78 149 60 70 189 -37 61 -66
112 -64 114 2 1 34 24 72 50 37 26 97 74 135 106 l67 59 93 -92 93 -92 50 55
c75 83 180 224 239 324 45 75 131 260 142 304 2 9 -37 28 -117 57 -82 29 -119
47 -116 57 15 55 62 260 67 292 l5 39 56 -7 c30 -4 88 -9 128 -13 l72 -6 6 39
c18 107 3 365 -29 529 -14 67 -61 234 -69 243 -1 1 -54 -16 -118 -38 -64 -22
-120 -40 -124 -40 -5 0 -19 30 -33 67 -14 36 -46 105 -72 151 -27 47 -48 88
-48 91 0 4 47 37 105 75 58 37 105 70 105 73 0 3 -26 42 -57 87 -80 112 -307
337 -421 416 -51 36 -96 66 -100 67 -4 1 -22 -23 -41 -55 -19 -31 -50 -80 -68
-109 l-33 -52 -92 49 c-80 42 -134 66 -210 93 -15 5 -13 19 24 128 33 98 38
123 27 130 -25 15 -172 51 -284 69 -60 10 -194 21 -297 25 l-188 8 0 -137 0
-136 -180 0 -180 0 0 135 0 135 -355 0 -355 0 0 -135 0 -135 -175 0 -175 0 0
43 c0 24 -3 85 -6 135 l-7 92 -353 0 -354 0 0 -135 0 -135 -175 0 -175 0 0
135 0 135 -360 0 -360 0 0 -135 0 -135 -175 0 -175 0 0 135 0 135 -355 0 -355
0 0 -135 0 -135 -180 0 -180 0 0 135 0 135 -355 0 -355 0 0 -135 0 -135 -174
0 -173 0 -7 92 c-3 50 -6 111 -6 135 l0 43 -187 -2 c-104 0 -240 -4 -303 -8z
m6586 -625 c221 -39 393 -117 572 -261 212 -169 365 -419 424 -694 26 -115 30
-345 9 -460 -89 -496 -469 -887 -964 -993 l-102 -22 -3270 0 c-3167 0 -3273 1
-3360 19 -179 37 -319 97 -466 198 -390 266 -590 737 -514 1208 64 390 325
733 689 906 99 46 236 89 331 103 33 5 1523 9 3311 10 2893 1 3261 -1 3340
-14z"/>
<path d="M3975 3278 c-165 -16 -340 -89 -481 -202 -428 -343 -462 -993 -70
-1382 124 -123 275 -207 454 -251 92 -23 312 -23 404 0 343 85 596 324 693
652 32 108 44 289 26 403 -77 492 -521 830 -1026 780z m281 -558 c120 -59 201
-166 226 -299 32 -171 -65 -357 -227 -437 -56 -27 -68 -29 -175 -29 -107 0
-119 2 -175 29 -159 78 -255 260 -227 431 21 128 108 247 219 301 77 38 107
44 206 40 74 -3 97 -8 153 -36z"/>
<path d="M10265 3278 c-233 -22 -466 -149 -616 -335 -152 -190 -217 -388 -206
-633 18 -423 301 -761 725 -867 92 -23 312 -23 404 0 291 72 523 260 644 521
100 218 111 484 29 710 -77 212 -243 400 -445 505 -164 85 -342 118 -535 99z
m279 -557 c121 -59 206 -174 229 -308 28 -169 -69 -351 -228 -429 -56 -27 -68
-29 -175 -29 -107 0 -119 2 -175 29 -162 80 -259 266 -227 437 22 121 94 224
197 285 73 42 128 54 228 50 73 -3 98 -9 151 -35z"/>
</g>
</svg>
