<?xml version="1.0" encoding="utf-8"?>
<!-- Generator: Adobe Illustrator 19.1.0, SVG Export Plug-In . SVG Version: 6.00 Build 0)  -->
<svg version="1.1" id="Layer_1" xmlns="http://www.w3.org/2000/svg" xmlns:xlink="http://www.w3.org/1999/xlink" x="0px" y="0px"
	 viewBox="638.6 -88.8 242.8 242.8" style="enable-background:new 638.6 -88.8 242.8 242.8;" xml:space="preserve">
<style type="text/css">
	.st0{fill:#FFFFFF;}
</style>
<path id="XMLID_1_" class="st0" d="M881.4,32.6C881.4,99.7,827,154,760,154S638.6,99.6,638.6,32.6S692.9-88.8,760-88.8
	S881.4-34.4,881.4,32.6z M709.1-29c-12.1-0.1-19.4,4.3-22.1,13.1c-0.6,9-1.3,17.9-2,26.8c-0.9,10.8-5.3,17.5-13.3,20.1v3.3
	c7.7,2.6,12.1,9.2,13.3,19.8c0.7,8.9,1.4,17.7,2.1,26.6c2.2,9,8.6,13.5,19,13.5h2.7v-2.9c-4.7-0.3-8.4-1.9-11-4.9s-3.9-6.7-3.9-11.1
	c0-1.8,0.1-4.6,0.3-8.3c0.2-3.7,0.3-6.5,0.3-8.5c0-12.4-4-21-12.1-25.8c8.2-4.8,12.2-13.5,12.2-25.8c0-1.8-0.1-4.6-0.4-8.3
	c-0.3-3.7-0.4-6.5-0.4-8.5c0-4.4,1.3-8.1,4-11.1s6.4-4.6,11.1-4.9V-29H709.1z M848.2,30.9c-7.7-2.6-12.1-9.2-13.3-19.8
	c-0.7-8.9-1.4-17.7-2.1-26.6c-2.2-9-8.6-13.5-19-13.5H811v2.9c4.7,0.3,8.4,1.9,11,4.9c2.6,3,3.9,6.7,3.9,11.1c0,1.8-0.1,4.6-0.3,8.3
	c-0.2,3.7-0.3,6.6-0.3,8.5c0,12.4,4,21,12.1,25.8c-8.2,4.8-12.2,13.5-12.2,25.8c0,1.8,0.1,4.6,0.4,8.3c0.3,3.7,0.4,6.6,0.4,8.5
	c0,4.4-1.3,8.1-4,11.1c-2.7,3-6.4,4.6-11.1,4.9v3C823,94.2,830.3,89.8,833,81c0.6-9,1.3-17.9,2-26.8c0.9-10.8,5.3-17.5,13.3-20.1
	L848.2,30.9L848.2,30.9z M725.5,8.7l8.3,2.1c0,0,4-14.3,14-10.6s18-2.8,18-2.8c3,11.5-13,17.4-29.7,29.9c-8.1,6.1-8,29.1-8,29.1
	h64.3c-0.3-0.4-4.3-8.8-4.5-19.4c-0.2-10.2,8.3-25.7,7.3-48.3c-1-22.5-27.2-28.9-27.2-28.9c5.5-5.4-7.9-15.2-7.9-15.2v16.1
	c-14.4,1-20.3,9.7-20.3,9.7l1.9,6.3c0,0-18.1,16.1-22.7,19.8c-4.6,3.6,2,13.4,2,13.4L725.5,8.7z M795.1,62.1L795.1,62.1
	c0-1-0.8-1.8-1.8-1.8h-65.6c-1,0-1.8,0.8-1.8,1.8l0,0c0,1,0.8,1.8,1.8,1.8h65.6C794.3,63.8,795.1,63,795.1,62.1z M799.3,80.3
	L795.6,69c0-0.6-0.5-1.1-1.1-1.1h-66.9c-0.6,0-1.1,0.5-1.1,1.1l-3.7,11.3c0,0.6,0.5,1.1,1.1,1.1h74.3
	C798.8,81.4,799.3,80.9,799.3,80.3z M781.7,109.9c0,0-12.2-7.6-12.2-12.7s5.7-10.1,5.7-10.1c0-0.6-0.9-2.2-1.1-2.2H761h-13.1
	c-0.2,0-1.1,1.6-1.1,2.2c0,0,5.7,4.9,5.7,10.1c0,5.1-12.2,12.7-12.2,12.7c-0.8,1.4,0.4,2.2,0.6,2.2h20h20
	C781.2,112.1,782.5,111.2,781.7,109.9z"/>
</svg>
