<?xml version="1.0" encoding="utf-8"?>
<!-- Generator: Adobe Illustrator 23.1.1, SVG Export Plug-In . SVG Version: 6.00 Build 0)  -->
<svg version="1.1" id="Layer_1" xmlns="http://www.w3.org/2000/svg" xmlns:xlink="http://www.w3.org/1999/xlink" x="0px" y="0px"
	 viewBox="0 0 817 242.8" style="enable-background:new 0 0 817 242.8;" xml:space="preserve">
<style type="text/css">
	.st0{fill:#FFFFFF;}
	.st1{enable-background:new    ;}
</style>
<path id="XMLID_1_" class="st0" d="M242.8,121.4c0,67.1-54.4,121.4-121.4,121.4S0,188.5,0,121.4S54.4,0,121.4,0
	S242.8,54.4,242.8,121.4z M70.5,59.8c-12-0.1-19.4,4.3-22,13.2c-0.6,9-1.3,17.9-2,26.8c-0.9,10.8-5.3,17.5-13.3,20.1v3.3
	c7.7,2.6,12.1,9.2,13.3,19.8c0.7,8.9,1.4,17.7,2.1,26.6c2.2,9,8.6,13.5,19,13.5h2.7v-2.9c-4.7-0.3-8.4-1.9-11-4.9s-3.9-6.7-3.9-11.1
	c0-1.8,0.1-4.6,0.3-8.3s0.3-6.5,0.3-8.5c0-12.4-4-21-12.1-25.8c8.2-4.8,12.2-13.5,12.2-25.8c0-1.8-0.1-4.6-0.4-8.3
	c-0.3-3.7-0.4-6.5-0.4-8.5c0-4.4,1.3-8.1,4-11.1s6.4-4.6,11.1-4.9v-3.2H70.5z M209.6,119.7c-7.7-2.6-12.1-9.2-13.3-19.8
	c-0.7-8.9-1.4-17.7-2.1-26.6c-2.2-9-8.6-13.5-19-13.5h-2.7v2.9c4.7,0.3,8.4,1.9,11,4.9s3.9,6.7,3.9,11.1c0,1.8-0.1,4.6-0.3,8.3
	c-0.2,3.7-0.3,6.6-0.3,8.5c0,12.4,4,21,12.1,25.8c-8.2,4.8-12.2,13.5-12.2,25.8c0,1.8,0.1,4.6,0.4,8.3c0.3,3.7,0.4,6.6,0.4,8.5
	c0,4.4-1.3,8.1-4,11.1s-6.4,4.6-11.1,4.9v3c12.1,0.1,19.4-4.3,22.1-13.1c0.6-9,1.3-17.9,2-26.8c0.9-10.8,5.3-17.5,13.3-20.1v-3.2
	C209.8,119.7,209.6,119.7,209.6,119.7z M86.9,97.5l8.3,2.1c0,0,4-14.3,14-10.6c10.1,3.7,18-2.8,18-2.8c3,11.5-13,17.4-29.7,29.9
	c-8.1,6.1-8,29.1-8,29.1h64.3c-0.3-0.4-4.3-8.8-4.5-19.4c-0.2-10.2,8.3-25.7,7.3-48.3s-27.2-28.9-27.2-28.9
	c5.5-5.4-7.9-15.2-7.9-15.2v16.1c-14.4,1-20.3,9.7-20.3,9.7l1.9,6.3c0,0-18.1,16.1-22.7,19.8s2,13.4,2,13.4L86.9,97.5z M156.5,150.8
	L156.5,150.8c0-1-0.8-1.8-1.8-1.8H89.2c-1,0-1.8,0.8-1.8,1.8l0,0c0,1,0.8,1.8,1.8,1.8h65.6C155.7,152.6,156.5,151.8,156.5,150.8z
	 M160.7,169l-3.7-11.3c0-0.6-0.5-1.1-1.1-1.1H89c-0.6,0-1.1,0.5-1.1,1.1L84.2,169c0,0.6,0.5,1.1,1.1,1.1h74.3
	C160.2,170.1,160.7,169.6,160.7,169z M143.1,198.6c0,0-12.2-7.6-12.2-12.7s5.7-10.1,5.7-10.1c0-0.6-0.9-2.2-1.1-2.2h-13.1h-13.1
	c-0.2,0-1.1,1.6-1.1,2.2c0,0,5.7,4.9,5.7,10.1s-12.2,12.7-12.2,12.7c-0.8,1.4,0.4,2.2,0.6,2.2h20h20
	C142.6,200.9,143.9,200,143.1,198.6z"/>
<g class="st1">
	<path class="st0" d="M368.3,170.1h-27.7c-6.1-9.6-11.7-17.9-16.6-25c-5-7-10.3-14.2-16.1-21.7h-10.5V156c0,1.7,0.3,3.2,0.8,4.5
		s1.7,2.3,3.4,2.9c0.9,0.3,2.4,0.7,4.6,0.9c2.2,0.3,4,0.5,5.5,0.5v5.2H268v-5c1.2-0.1,2.8-0.3,5-0.5s3.7-0.6,4.6-0.9
		c1.5-0.6,2.5-1.5,3.2-2.8c0.7-1.2,1-2.8,1-4.6V81.7c0-1.7-0.2-3.2-0.7-4.5s-1.6-2.3-3.4-3c-1.2-0.4-2.8-0.8-4.7-1.2
		c-1.9-0.4-3.6-0.6-4.9-0.7v-5.2h47.5c4.4,0,8.4,0.4,12.3,1.3c3.8,0.9,7.3,2.3,10.4,4.3c3,1.9,5.4,4.5,7.2,7.6
		c1.8,3.1,2.7,6.9,2.7,11.3c0,4-0.6,7.5-1.8,10.5c-1.2,3-3,5.7-5.4,7.9c-2.2,2.1-4.8,3.9-7.8,5.4s-6.4,2.8-10.1,3.9
		c5.1,6.7,9.3,12.4,12.7,17c3.4,4.6,7.5,10.2,12.4,16.8c2.1,2.9,4,5,5.8,6.4c1.7,1.4,3.4,2.5,5.1,3.4c1.3,0.6,2.8,1.1,4.7,1.5
		c1.9,0.3,3.5,0.5,4.7,0.6v5.1H368.3z M330.1,93.4c0-6.2-1.8-11.2-5.4-14.8c-3.6-3.6-8.6-5.5-15.2-5.5h-12.3v44.1h9.5
		c6.7,0,12.2-2.1,16.7-6.4C327.9,106.6,330.1,100.8,330.1,93.4z"/>
	<path class="st0" d="M417.3,170.1h-46.4V165c1.3-0.1,3.2-0.2,5.7-0.4s4.2-0.5,5.2-0.9c1.6-0.6,2.8-1.5,3.5-2.6s1.1-2.6,1.1-4.5V82
		c0-1.7-0.3-3.1-0.8-4.2s-1.8-2.1-3.8-2.9c-1.5-0.6-3.3-1.1-5.5-1.6s-4-0.8-5.4-0.9v-5.2h46.4v5.2c-1.5,0-3.3,0.2-5.4,0.5
		s-3.9,0.7-5.4,1.2c-1.8,0.6-3.1,1.5-3.7,2.8s-0.9,2.8-0.9,4.4v74.5c0,1.6,0.4,3,1.1,4.2s1.9,2.2,3.6,2.9c1,0.4,2.7,0.8,5,1.3
		s4.2,0.7,5.8,0.8v5.1H417.3z"/>
	<path class="st0" d="M554.1,170.1h-45.5V165c1.6,0,3.8-0.2,6.3-0.5c2.6-0.3,4.4-0.7,5.3-1.2c1.5-0.9,2.6-2,3.3-3.2s1.1-2.7,1.1-4.5
		V80.8h-1.1l-35.1,87.7h-3.6L451.4,79h-0.9v61.4c0,5.9,0.4,10.5,1.1,13.6s1.9,5.3,3.4,6.7c1.1,1,3.3,2,6.6,2.9
		c3.3,0.9,5.5,1.4,6.5,1.5v5.2h-41.6V165c2.2-0.2,4.5-0.6,6.9-1.1s4.2-1.3,5.5-2.4c1.7-1.4,2.9-3.4,3.5-6.2s0.9-7.5,0.9-14.1V88.5
		c0-3-0.4-5.5-1.1-7.5c-0.7-1.9-1.8-3.5-3.1-4.7c-1.5-1.3-3.3-2.3-5.5-2.9s-4.3-1-6.5-1.1v-5.2h35.1l29.5,77.3L517,79.8
		c0.9-2.4,1.7-4.9,2.4-7.4c0.7-2.6,1-4.3,1.1-5.2h33.6v5.2c-1.4,0-3.1,0.3-5.2,0.7c-2.1,0.4-3.6,0.8-4.6,1.1
		c-1.6,0.6-2.8,1.5-3.3,2.9c-0.6,1.4-0.9,2.8-0.9,4.4v74.2c0,1.7,0.3,3.1,0.9,4.3c0.6,1.2,1.7,2.2,3.3,3c0.9,0.5,2.4,0.9,4.6,1.3
		c2.2,0.4,4,0.6,5.3,0.7L554.1,170.1L554.1,170.1z"/>
</g>
<g class="st1">
	<path class="st0" d="M565.6,132.3c0-11.9,3.2-21.5,9.7-28.7c6.4-7.3,14.7-10.9,24.8-10.9c3.1,0,5.9,0.3,8.5,1
		c2.6,0.6,4.7,1.4,6.3,2.3s2.9,1.8,4,2.7c1.1,0.9,1.8,1.7,2.2,2.4l0.7,0.9h0.3c-0.1-1.3-0.1-2.8-0.1-4.5V84c0-2.2-1.1-3.3-3.3-3.3
		h-5.9v-16h18c6.7,0,10.1,3.4,10.1,10.1V151c0,2.2,1.1,3.3,3.3,3.3h5.8v15.9h-17.4c-6.2,0-9.4-2.6-9.4-7.7v-2.8h-0.3
		c-0.2,0.3-0.5,0.7-0.8,1.3s-1.2,1.6-2.5,3s-2.8,2.6-4.5,3.7c-1.6,1.1-3.9,2.1-6.7,3s-5.9,1.3-9.1,1.3c-10.2,0-18.4-3.7-24.5-11
		C568.7,153.6,565.6,144.1,565.6,132.3z M603.5,156c5.3,0,9.9-2,13.5-6c3.7-4,5.5-10,5.5-17.9c0-6.3-1.6-11.8-4.9-16.4
		s-7.9-6.9-13.8-6.9c-5.4,0-10,2.1-13.6,6.3c-3.6,4.2-5.4,9.9-5.4,17.2c0,7.1,1.7,12.9,5.2,17.2C593.4,153.9,597.9,156,603.5,156z"
		/>
	<path class="st0" d="M658,132.3c0-11.7,3.6-21.2,10.7-28.6c7.1-7.4,16.4-11.1,27.8-11.1c10.5,0,18.7,3.4,24.7,10.2
		c5.9,6.8,8.9,15.4,8.9,25.8l-0.4,7h-52.3c0.7,6.4,3.2,11.4,7.4,15c4.3,3.6,9.4,5.3,15.3,5.3c3.6,0,7.1-0.7,10.7-2.2
		c3.6-1.4,6.2-2.8,7.9-4.2l2.7-2.1l7.9,13.1c-0.3,0.3-0.7,0.7-1.3,1.3c-0.6,0.5-1.9,1.5-3.9,2.7c-2,1.3-4.1,2.4-6.3,3.4
		s-5,1.9-8.4,2.7s-6.9,1.3-10.5,1.3c-12.2,0-22-3.8-29.5-11.5C661.7,152.7,658,143.4,658,132.3z M677.9,122.5h32.8
		c-0.1-4.5-1.5-8.1-4.2-11s-6.1-4.3-10-4.3c-4.9,0-8.9,1.4-12.1,4.1C681.2,114,679,117.7,677.9,122.5z"/>
	<path class="st0" d="M765.3,170.1L743.6,113c-0.7-1.8-2.1-2.7-4.2-2.7h-1.6v-16h10.8c3.1,0,5.4,0.5,7.1,1.6c1.7,1.1,3,2.9,4,5.5
		l14.3,39.8l2.8,10.8h0.3c0.8-4.3,1.7-7.9,2.7-10.8l14.3-39.8c1-2.6,2.3-4.4,4-5.5s4.1-1.6,7.1-1.6h10.1v16h-1.8
		c-2.1,0-3.5,0.9-4.2,2.7l-21.7,57.1H765.3z"/>
</g>
</svg>
