<svg xmlns="http://www.w3.org/2000/svg" xmlns:xlink="http://www.w3.org/1999/xlink" id="Layer_1" x="0" y="0" version="1.1" viewBox="0 0 1207.4 495.1" xml:space="preserve" style="enable-background:new 0 0 1207.4 495.1"><style type="text/css">.st0{fill-rule:evenodd;clip-rule:evenodd}.st1{fill:#4eb987}.st2{fill:#455567}</style><path id="XMLID_1_" d="M421.4,246.6C421.4,313.7,367,368,300,368s-121.4-54.4-121.4-121.4S232.9,125.2,300,125.2	S421.4,179.6,421.4,246.6z M249.1,185c-12.1-0.1-19.4,4.3-22.1,13.1c-0.6,9-1.3,17.9-2,26.8c-0.9,10.8-5.3,17.5-13.3,20.1v3.3	c7.7,2.6,12.1,9.2,13.3,19.8c0.7,8.9,1.4,17.7,2.1,26.6c2.2,9,8.6,13.5,19,13.5h2.7v-2.9c-4.7-0.3-8.4-1.9-11-4.9	c-2.6-3-3.9-6.7-3.9-11.1c0-1.8,0.1-4.6,0.3-8.3c0.2-3.7,0.3-6.5,0.3-8.5c0-12.4-4-21-12.1-25.8c8.2-4.8,12.2-13.5,12.2-25.8	c0-1.8-0.1-4.6-0.4-8.3c-0.3-3.7-0.4-6.5-0.4-8.5c0-4.4,1.3-8.1,4-11.1c2.7-3,6.4-4.6,11.1-4.9V185z M388.2,244.9	c-7.7-2.6-12.1-9.2-13.3-19.8c-0.7-8.9-1.4-17.7-2.1-26.6c-2.2-9-8.6-13.5-19-13.5H351v2.9c4.7,0.3,8.4,1.9,11,4.9	c2.6,3,3.9,6.7,3.9,11.1c0,1.8-0.1,4.6-0.3,8.3c-0.2,3.7-0.3,6.6-0.3,8.5c0,12.4,4,21,12.1,25.8c-8.2,4.8-12.2,13.5-12.2,25.8	c0,1.8,0.1,4.6,0.4,8.3c0.3,3.7,0.4,6.6,0.4,8.5c0,4.4-1.3,8.1-4,11.1c-2.7,3-6.4,4.6-11.1,4.9v3c12.1,0.1,19.4-4.3,22.1-13.1	c0.6-9,1.3-17.9,2-26.8c0.9-10.8,5.3-17.5,13.3-20.1V244.9z M265.5,222.7l8.3,2.1c0,0,4-14.3,14-10.6c10.1,3.7,18-2.8,18-2.8	c3,11.5-13,17.4-29.7,29.9c-8.1,6.1-8,29.1-8,29.1l64.3,0c-0.3-0.4-4.3-8.8-4.5-19.4c-0.2-10.2,8.3-25.7,7.3-48.3	c-1-22.5-27.2-28.9-27.2-28.9c5.5-5.4-7.9-15.2-7.9-15.2v16.1c-14.4,1-20.3,9.7-20.3,9.7l1.9,6.3c0,0-18.1,16.1-22.7,19.8	c-4.6,3.6,2,13.4,2,13.4L265.5,222.7z M335.1,276.1L335.1,276.1c0-1-0.8-1.8-1.8-1.8h-65.6c-1,0-1.8,0.8-1.8,1.8l0,0	c0,1,0.8,1.8,1.8,1.8h65.6C334.3,277.8,335.1,277,335.1,276.1z M339.3,294.3l-3.7-11.3c0-0.6-0.5-1.1-1.1-1.1h-66.9	c-0.6,0-1.1,0.5-1.1,1.1l-3.7,11.3c0,0.6,0.5,1.1,1.1,1.1h74.3C338.8,295.4,339.3,294.9,339.3,294.3z M321.7,323.9	c0,0-12.2-7.6-12.2-12.7c0-5.1,5.7-10.1,5.7-10.1c0-0.6-0.9-2.2-1.1-2.2H301h-13.1c-0.2,0-1.1,1.6-1.1,2.2c0,0,5.7,4.9,5.7,10.1	c0,5.1-12.2,12.7-12.2,12.7c-0.8,1.4,0.4,2.2,0.6,2.2h20h20C321.2,326.1,322.5,325.2,321.7,323.9z" class="st0"/><path d="M546.9,295.4h-27.7c-6.1-9.6-11.7-17.9-16.6-25c-5-7-10.3-14.2-16.1-21.7h-10.5v32.6c0,1.7,0.3,3.2,0.8,4.5	c0.5,1.3,1.7,2.3,3.4,2.9c0.9,0.3,2.4,0.7,4.6,0.9c2.2,0.3,4,0.5,5.5,0.5v5.2h-43.5v-5.2c1.2-0.1,2.8-0.3,5-0.5	c2.2-0.2,3.7-0.6,4.6-0.9c1.5-0.6,2.5-1.5,3.2-2.8c0.7-1.2,1-2.8,1-4.6v-74.4c0-1.7-0.2-3.2-0.7-4.5c-0.5-1.3-1.6-2.3-3.4-3	c-1.2-0.4-2.8-0.8-4.7-1.2c-1.9-0.4-3.6-0.6-4.9-0.7v-5.2h47.5c4.4,0,8.4,0.4,12.3,1.3c3.8,0.9,7.3,2.3,10.4,4.3	c3,1.9,5.4,4.5,7.2,7.6c1.8,3.1,2.7,6.9,2.7,11.3c0,4-0.6,7.5-1.8,10.5c-1.2,3-3,5.7-5.4,7.9c-2.2,2.1-4.8,3.9-7.8,5.4	s-6.4,2.8-10.1,3.9c5.1,6.7,9.3,12.4,12.7,17c3.4,4.6,7.5,10.2,12.4,16.8c2.1,2.9,4,5,5.8,6.4c1.7,1.4,3.4,2.5,5.1,3.4	c1.3,0.6,2.8,1.1,4.7,1.5c1.9,0.3,3.5,0.5,4.7,0.6V295.4z M508.7,218.7c0-6.2-1.8-11.2-5.4-14.8c-3.6-3.6-8.6-5.5-15.2-5.5h-12.3	v44.1h9.5c6.7,0,12.2-2.1,16.7-6.4C506.5,231.8,508.7,226,508.7,218.7z"/><path d="M595.8,295.4h-46.4v-5.2c1.3-0.1,3.2-0.2,5.7-0.4c2.5-0.2,4.2-0.5,5.2-0.9c1.6-0.6,2.8-1.5,3.5-2.6c0.7-1.1,1.1-2.6,1.1-4.5	v-74.6c0-1.7-0.3-3.1-0.8-4.2c-0.5-1.1-1.8-2.1-3.8-2.9c-1.5-0.6-3.3-1.1-5.5-1.6c-2.2-0.5-4-0.8-5.4-0.9v-5.2h46.4v5.2	c-1.5,0-3.3,0.2-5.4,0.5c-2.1,0.3-3.9,0.7-5.4,1.2c-1.8,0.6-3.1,1.5-3.7,2.8c-0.6,1.3-0.9,2.8-0.9,4.4V281c0,1.6,0.3,3,1.1,4.2	c0.7,1.2,1.9,2.2,3.6,2.9c1,0.4,2.7,0.8,5,1.3c2.3,0.5,4.2,0.7,5.8,0.8V295.4z"/><path d="M732.7,295.4h-45.5v-5.2c1.6,0,3.8-0.2,6.3-0.5c2.6-0.3,4.4-0.7,5.3-1.2c1.5-0.9,2.6-2,3.3-3.2c0.7-1.2,1.1-2.7,1.1-4.5V206	h-1.1L667,293.7h-3.6l-33.4-89.5H629v61.4c0,5.9,0.4,10.5,1.1,13.6c0.8,3.1,1.9,5.3,3.4,6.7c1.1,1,3.3,2,6.6,2.9	c3.3,0.9,5.5,1.4,6.5,1.5v5.2h-41.6v-5.2c2.2-0.2,4.5-0.6,6.9-1.1c2.4-0.5,4.2-1.3,5.5-2.4c1.7-1.4,2.9-3.4,3.5-6.2	c0.6-2.8,0.9-7.5,0.9-14.1v-52.7c0-3-0.4-5.5-1.1-7.5c-0.7-1.9-1.8-3.5-3.1-4.7c-1.5-1.3-3.3-2.3-5.5-2.9c-2.2-0.6-4.3-1-6.5-1.1	v-5.2h35.1l29.5,77.3l25.2-64.6c0.9-2.4,1.7-4.9,2.4-7.4c0.7-2.6,1-4.3,1.1-5.2h33.6v5.2c-1.4,0-3.1,0.3-5.2,0.7	c-2.1,0.4-3.6,0.8-4.6,1.1c-1.6,0.6-2.8,1.5-3.3,2.9c-0.6,1.4-0.9,2.8-0.9,4.4v74.2c0,1.7,0.3,3.1,0.9,4.3c0.6,1.2,1.7,2.2,3.3,3	c0.9,0.5,2.4,0.9,4.6,1.3c2.2,0.4,4,0.6,5.3,0.7V295.4z"/><path d="M778.6,217.8c16.5,0,21.8,9.2,21.8,9.2h0.3c0,0-0.1-1.9-0.1-4.5v-13.4c0-2.2-1.2-3.3-3.3-3.3h-5.9v-16h18	c7,0,10.1,3.1,10.1,10.1v76.2c0,2.1,1.2,3.3,3.3,3.3h5.8v15.9h-17.4c-6.8,0-9.4-3.3-9.4-7.7c0-1.6,0-2.8,0-2.8h-0.3	c0,0-6.2,12.3-23.6,12.3c-20.5,0-33.7-16.2-33.7-39.7C744.2,233.4,758.6,217.8,778.6,217.8z M801.1,257.3c0-11.7-6.1-23.3-18.7-23.3	c-10.4,0-19,8.5-19,23.5c0,14.4,7.6,23.8,18.7,23.8C791.9,281.3,801.1,274.1,801.1,257.3z"/><path d="M875.1,217.8c21.7,0,33.6,15.9,33.6,36c0,2.2-0.4,7-0.4,7h-52.3c1.5,13.4,11.3,20.4,22.7,20.4c12.2,0,21.2-8.5,21.2-8.5	l7.9,13.1c0,0-11.6,11.4-30.5,11.4c-25.1,0-40.7-18.1-40.7-39.7C836.6,234.2,852.3,217.8,875.1,217.8z M889.3,247.7	c-0.3-9.1-6.5-15.3-14.3-15.3c-9.7,0-16.5,5.8-18.6,15.3H889.3z"/><g id="g10" transform="matrix(1.3333333,0,0,-1.3333333,0,400)"><g id="g12" transform="translate(178.0626,235.0086)"><path id="path14" d="M545.4-100.3l-7.5-13l-7.5,13h-25l32.4-56.2l32.4,56.2H545.4z" class="st1"/></g><g id="g16" transform="translate(178.0626,235.0086)"><path id="path18" d="M545.4-100.3l-7.5-13l-7.5,13h-12l19.5-33.7l19.5,33.7H545.4z" class="st2"/></g></g></svg>