<svg xmlns="http://www.w3.org/2000/svg" xmlns:xlink="http://www.w3.org/1999/xlink" id="Layer_1" x="0" y="0" version="1.1" viewBox="0 0 1437.7 297.5" xml:space="preserve" style="enable-background:new 0 0 1437.7 297.5"><style type="text/css">.st0{fill:#fadca5}.st1{fill:#d49758}.st2{fill:#8b5d29}.st3{fill:#603913}.st4{fill:#f38fbb}.st5{fill:#205fac}.st6{fill:#ee2c3e}.st7{fill:#fff}.st8{fill:#ec008c}.st9{fill:none}.st10{fill:#ed1c24}.st11{fill:#f7941d}.st12{fill:#f15a29}.st13{fill:#fff200}.st14{fill:#fff380}.st15{fill:#8dc63f}.st16{fill:#27aae1}.st17{fill:#77d1f2}.st18{fill:#662d91}.st19{fill:#9670b1}.st20{fill:#cadef3}.st21{fill:#226bb5}.st22{fill:#4f97d1}.st23{fill:#233f89}</style><g><path d="M463.2,76.7c0.5,6.3,1.2,12.6,2.1,18.9c0.5,3.7,1,7.3,1.6,10.9c-0.1-1.3-0.2-2.6-0.2-3.9 c1.5,13.2,5.2,25.6,9.4,38c2.3-9.3,6.4-21.6,5.9-37.3c-0.2-1.9-0.4-3.9-0.7-5.8C478.8,86.4,469.9,80,463.2,76.7z" class="st0"/><path d="M500.4,84.5h-2.7v2.9c4.7,0.3,8.4,1.9,11,4.9c2.6,3,3.9,6.6,3.9,11c0,1.8-0.1,4.6-0.3,8.3 c-0.2,3.7-0.3,6.5-0.3,8.4c0,6.2,1,11.4,3,15.7c-0.3-15.6-0.5-31.1-0.6-46.7C511.1,86,506.4,84.5,500.4,84.5z" class="st0"/><path d="M455,73.6c-0.1,0-0.2,0-0.2,0c0.1-0.1,0.1-0.1,0.1-0.2c-0.1-2.3-0.2-4.6-0.2-7c-2.6-4.2-7.8-8-7.8-8v16 c-3.4,0.2-6.2,0.9-8.7,1.7c1.3,8.6,2.8,17.3,4.7,25.8c-0.9-5.2-1.6-10.5-2.2-15.6c1.6,8.7,3.1,18.2,5.3,27.6c4-1.1,6.6-3.2,6.6-3.2 c1.2,4.6-0.7,8.3-4.4,11.9c1.3,4.3,2.7,8.6,4.2,12.8c0.9,2.3,1.8,4.5,2.9,6.6c1.9,3.7,4.1,7.4,6.5,10.8c-2.5-3.4-4.6-7-6.5-10.8 c-0.6-1.3-1.3-2.5-1.9-3.8c0.2,0.5,0.4,1,0.6,1.5c4,10.4,11,19.6,16,29.7l9,0c-0.2-0.3-3.4-6.9-4.3-15.6 c-2.3-6.3-4.8-12.5-7.6-18.6C458.6,116.8,455.9,95.3,455,73.6z" class="st0"/><path d="M504,202.5c0.1,1.3,0.2,2.7,0.3,4c0.2,0,0.3-0.1,0.4-0.1c-0.1-1.4-0.2-2.8-0.3-4.1 C504.2,202.3,504.1,202.4,504,202.5z" class="st0"/><path d="M471.8,173.3c0.1,0.3,0.3,0.7,0.4,1c0.3,0.8,0.6,1.7,0.9,2.5h6.9c0.7,0,1.3-0.4,1.6-1 c-0.2-0.8-0.4-1.5-0.6-2.3c-0.3-0.2-0.6-0.3-0.9-0.3H471.8z" class="st0"/><path d="M425.9,180.8c-1.6,4.4-3,8.9-4.3,13.4h10.7c0.5-0.7,0.9-1.5,1.4-2.2c0.2,0.4,0.4,0.7,0.7,1.1 c0.2,0.4,0.5,0.7,0.7,1.1h17c-2-4.5-4.2-9-6.6-13.4H425.9z" class="st0"/><path d="M437.2,197.7c5,8.6,8.9,17.7,11.9,27.1h13.5c-0.7-2.9-1.5-5.9-2.4-8.8c-2.1-2-3.7-4.2-3.7-6.1 c0-1.1,0.3-2.2,0.7-3.2c-1.1-3-2.3-6.1-3.5-9.1H448H437.2z" class="st0"/><path d="M460.3,180.8c0.1,0.3,0.2,0.6,0.3,1c1.6,4.1,3.1,8.2,4.3,12.5h7.2c-1.4-4.5-2.9-9-4.7-13.4H460.3z" class="st0"/><path d="M481.3,180.8h-6.6c1.5,4.4,2.8,8.9,3.9,13.4h6.4c0.4,0,0.7-0.2,0.9-0.5c-0.2-1.2-0.5-2.3-0.7-3.5l-2.8-8.4 C482.4,181.3,481.9,180.8,481.3,180.8z" class="st0"/><path d="M524,145.7c-0.9,0.5-1.7,1.1-2.5,1.7c0.1,5.8,0.2,11.7,0.3,17.5c1.3-9.3,5.6-15.2,13-17.6V144 c-7.6-2.6-12-9.2-13.2-19.7c-0.1-1.3-0.2-2.6-0.3-3.9c0.1,7.8,0.2,15.6,0.3,23.4C522.2,144.5,523.1,145.1,524,145.7z" class="st0"/><path d="M423.7,156.2c2.6-5.9,4.3-11.2,7.5-12.5c0.5-0.7,1-1.5,1.5-2.2c1,0.8,1.9,1.7,2.8,2.5c0.9,0.4,1.9,1,3,1.8 c7.5,5.7,13.2,14.3,17.5,23.6l6.5,0c-1.3-2.7-2.7-5.4-4.2-8.1c-6.3-11.4-11.6-22.5-15.8-34c-5.4,3.8-12.3,7.9-19.3,13.2 c-0.4,0.3-0.7,0.6-1.1,1c-2.1,6.2-4.2,12.3-6.3,18.5c-0.6,5.3-0.6,9.5-0.6,9.5l3.1,0c1.3-3.5,2.7-7,4.2-10.3 C422.9,158.2,423.3,157.2,423.7,156.2z" class="st0"/><path d="M511.8,171.4c0,1.8,0.1,4.6,0.4,8.3c0.2,3.7,0.4,6.5,0.4,8.4c0,4.4-1.3,8.1-4,11c-1.1,1.2-2.4,2.2-3.9,3 c0.1,1.4,0.2,2.8,0.3,4.3c5.5-1.1,9.5-3.5,12.1-7.3c-0.6-14.9-1.2-29.7-1.7-44.5C513,159.1,511.8,164.7,511.8,171.4z" class="st0"/><path d="M434.1,224.8h1.6c-0.3-0.5-0.6-1-0.8-1.5C434.6,223.8,434.4,224.3,434.1,224.8z" class="st0"/><path d="M497.5,204v3c0.4,0,0.8,0,1.2,0c-0.1-1-0.2-2-0.4-3.1C498.1,203.9,497.8,204,497.5,204z" class="st0"/><path d="M395.8,84.5C395.8,84.5,395.8,84.5,395.8,84.5c-0.1,0.2-0.1,0.4-0.1,0.6C395.7,84.9,395.7,84.7,395.8,84.5z" class="st0"/><path d="M413.7,181.9l-3.7,11.2c0,0.6,0.5,1.1,1.1,1.1h0.3c1-4.5,2-9,3.3-13.4C414.1,180.8,413.7,181.3,413.7,181.9z" class="st0"/><path d="M369.9,145.8c2.7-1.6,4.9-3.6,6.7-6.1c1.7-4.8,3.4-9.6,5.1-14.4c0.2-1.7,0.3-3.4,0.3-5.3 c0-1.8-0.1-4.6-0.4-8.3c-0.3-3.7-0.4-6.5-0.4-8.4c0-4.4,1.3-8.1,4-11c2.2-2.4,5-3.9,8.6-4.6c0.3-1.1,0.6-2.2,0.8-3.3 c-5.8,0.2-10.4,1.4-13.9,3.8c-2.2,7.2-4.8,14.2-7.3,21.2c-0.4,4.9-0.7,9.8-1.1,14.6c-0.7,8.9-3.9,15-9.5,18.3c-0.5,2-1,4-1.5,6 c4.1,2,7,5.4,8.9,10.1c1-3.3,2.1-6.6,3.2-9.9C372.5,147.6,371.3,146.6,369.9,145.8z" class="st0"/><path d="M425.5,109.4c0.6-2.1,1.2-4.2,1.8-6.3c-0.4,1.4-0.9,2.8-1.3,4.2C425.8,108.1,425.7,108.7,425.5,109.4z" class="st0"/><path d="M434.8,113.6c1.2,0.4,2.4,0.7,3.5,0.9c-2-7.2-3.5-14.6-4.5-22.4c-0.5,7.1-1.7,14.1-3.3,21 C431.8,112.9,433.2,113,434.8,113.6z" class="st0"/><path d="M433.1,78.6C433.1,78.6,433.1,78.6,433.1,78.6c0,0.2-0.1,0.3-0.1,0.5C433,78.9,433,78.7,433.1,78.6z" class="st0"/><path d="M458.9,176.8h6.8c-0.5-1.2-1-2.3-1.6-3.5h-6.6C458,174.4,458.5,175.6,458.9,176.8z" class="st0"/><path d="M386.9,206.3c2,0.5,4.2,0.7,6.6,0.7h1.6c0.1-1,0.3-2,0.4-2.9c-3.1-0.3-5.8-1.2-8-2.7 C387.4,203,387.1,204.6,386.9,206.3z" class="st0"/><path d="M412.6,122l7.7,2c2-5.5,3.9-11,5.7-16.6c2.4-9.4,4.6-18.9,6.5-28.5c-3.9,2.5-5.7,5.1-5.7,5.1l1.9,6.3 c0,0-7,6.3-13.4,11.8c-1.2,6.8-2.6,13.6-4.2,20.3L412.6,122z" class="st0"/><path d="M381.4,188.2c0-1.8,0.1-4.6,0.3-8.3c0.2-3.7,0.3-6.5,0.3-8.4c0-4.8-0.6-9-1.8-12.7c-2.4,7-4.6,14-5.4,20.9 c-0.3,2-0.5,3.9-0.7,5.9c0.2,2.7,0.4,5.4,0.6,8c1.1,4.5,3.3,7.9,6.6,10.2c0.5-2.8,1.1-5.6,1.6-8.4 C381.8,193.3,381.4,190.9,381.4,188.2z" class="st0"/><path d="M433.7,162c-1.2,2.5-2.3,5-3.4,7.5l8.5,0C437.2,167,435.5,164.4,433.7,162z" class="st0"/><path d="M406.2,110c-2.7,2.1-1.5,6.4,0,9.6c0.9-3.9,1.8-7.8,2.6-11.7C407.7,108.7,406.8,109.5,406.2,110z" class="st0"/><path d="M454.4,168.6c-4.3-9.4-9.6-18.1-16-21.6C444.9,153.5,450.1,160.8,454.4,168.6z" class="st0"/><path d="M428.8,173.3c-0.5,1.2-0.9,2.3-1.4,3.5h15.9c-0.7-1.2-1.4-2.3-2.1-3.5H428.8z" class="st0"/><path d="M414.9,173.3c-1,0-1.8,0.8-1.8,1.8c0,1,0.8,1.8,1.8,1.8h0.9c0.4-1.2,0.7-2.3,1.1-3.5H414.9z" class="st0"/><path d="M374.4,97.6c-0.3,4-0.6,8-0.8,12c2.6-7,5.1-14,7.3-21.2C377.8,90.5,375.6,93.6,374.4,97.6z" class="st1"/><path d="M359.3,144.2v3.3c0.8,0.3,1.5,0.6,2.3,1c0.5-2,1-4,1.5-6C361.9,143.1,360.6,143.7,359.3,144.2z" class="st1"/><path d="M395.2,87.6c0.4,0,0.8-0.1,1.2-0.1v-3c-0.2,0-0.4,0-0.6,0c0,0.2-0.1,0.4-0.1,0.6 C395.5,85.9,395.4,86.8,395.2,87.6z" class="st1"/><path d="M380.1,158.8c-1.1-3.4-2.8-6.3-5-8.8c-1.4,3.2-2.9,6.5-4.2,9.7c0.7,2.2,1.3,4.6,1.6,7.4 c0.5,6.1,1,12.3,1.5,18.4c0.2-2,0.5-3.9,0.7-5.9C375.6,172.8,377.7,165.8,380.1,158.8z" class="st1"/><path d="M408.2,123.3l2.9-0.9c1.6-6.7,3-13.5,4.2-20.3c-1.9,1.6-3.7,3.2-5.3,4.6c-0.9,4.9-1.8,9.8-3,14.6 C407.7,122.5,408.2,123.3,408.2,123.3z" class="st1"/><path d="M409.5,107.2c-0.3,0.2-0.5,0.4-0.8,0.6c-0.9,3.9-1.7,7.8-2.6,11.7c0.1,0.3,0.3,0.6,0.4,0.9 C407.7,116.1,408.6,111.6,409.5,107.2z" class="st1"/><path d="M385.3,199.3c-1-1.2-1.9-2.5-2.5-3.9c-0.6,2.8-1.1,5.6-1.6,8.4c1.6,1.1,3.6,2,5.7,2.5c0.2-1.6,0.4-3.3,0.7-4.9 C386.7,200.7,386,200.1,385.3,199.3z" class="st1"/><path d="M415.8,160c2-6.2,4.2-12.3,6.3-18.5C418.2,145.5,416.5,153.6,415.8,160z" class="st1"/><path d="M465.7,176.8h7.5c-0.3-0.8-0.6-1.7-0.9-2.5c-0.1-0.3-0.3-0.7-0.4-1h-7.7C464.7,174.4,465.2,175.6,465.7,176.8z" class="st1"/><path d="M467.4,180.8c1.8,4.5,3.4,8.9,4.7,13.4h6.4c-1.1-4.5-2.4-9-3.9-13.4H467.4z" class="st1"/><path d="M438.3,114.5c2.7,0.4,5.1,0.2,7.1-0.3c-1-4-1.8-8.1-2.5-12.1c-1.9-8.6-3.4-17.2-4.7-25.8 c-0.1,0-0.2,0.1-0.3,0.1c0,2,0,4.1,0,6.1c-0.7-1.7-1.6-3.4-2.3-5.2c-1,0.5-1.9,0.9-2.7,1.4c0,0.2-0.1,0.3-0.1,0.5 c-1.3,8.2-3.3,16.2-5.7,24.1c-0.6,2.1-1.2,4.2-1.8,6.3c-0.9,3.6-1.9,7.1-3,10.6c1.5-2.9,4.1-6.4,7.9-7c1.6-6.9,2.8-13.9,3.3-21 C434.8,99.9,436.3,107.3,438.3,114.5z" class="st1"/><path d="M452.5,135.4c-1.5-4.2-2.9-8.5-4.2-12.8c0,0,0,0,0,0C449.4,127,450.8,131.3,452.5,135.4z" class="st1"/><path d="M442.4,127.3c4.2,11.5,9.5,22.6,15.8,34c1.5,2.7,2.9,5.4,4.2,8.1l7.7,0c-5-10.1-12-19.3-16-29.7 c-0.2-0.5-0.4-1-0.6-1.5c-2.2-4.9-4.1-10-5.7-15.2C446.3,124.5,444.5,125.9,442.4,127.3z" class="st1"/><path d="M396.2,207v-2.9c-0.2,0-0.5,0-0.7-0.1c-0.1,1-0.3,1.9-0.4,2.9H396.2z" class="st1"/><path d="M464.1,194.2h0.9c-1.3-4.2-2.7-8.4-4.3-12.5C462,186,463.2,190.2,464.1,194.2z" class="st1"/><path d="M445.5,180.8c2.4,4.4,4.6,8.9,6.6,13.4h11.8c-1.2-3.7-2.7-8.4-4.5-13.4H445.5z" class="st1"/><path d="M441.2,173.3c0.7,1.2,1.4,2.3,2.1,3.5h14.6c-0.4-1.2-0.9-2.3-1.4-3.5H441.2z" class="st1"/><path d="M435.4,144c-0.9-0.9-1.8-1.7-2.8-2.5c-0.5,0.7-1,1.4-1.5,2.2C432.3,143.2,433.7,143.2,435.4,144z" class="st1"/><path d="M467.9,224.8c0.2,0,1.4-0.9,0.6-2.2c0,0-4.8-3-8.4-6.5c0.9,2.9,1.7,5.8,2.4,8.8H467.9z" class="st1"/><path d="M462.1,199.9c0-0.6-0.9-2.2-1-2.2h-7.5c1.3,3,2.4,6,3.5,9.1C458.6,202.9,462.1,199.9,462.1,199.9z" class="st1"/><path d="M418.4,173.3c-0.3,1.2-0.6,2.4-0.9,3.5h9.9c0.4-1.2,0.9-2.3,1.4-3.5H418.4z" class="st1"/><path d="M433.7,162c1.8,2.5,3.5,5,5.1,7.5l16,0c-0.1-0.3-0.3-0.6-0.4-0.9c-4.3-7.8-9.6-15.1-16-21.6 c-0.8-0.4-1.5-0.8-2.3-1c-7.4-2.5-13,11-16.7,23.5l10.8,0C431.4,167,432.5,164.4,433.7,162z" class="st1"/><path d="M416.5,180.8c-0.6,2.5-1.1,4.5-1.5,6c0.4-2,0.8-4,1.3-6h-1.5c0,0,0,0-0.1,0c-1.2,4.4-2.3,8.9-3.3,13.4h10.2 c1.3-4.5,2.8-9,4.3-13.4H416.5z" class="st1"/><path d="M418,173.3h-1c-0.4,1.2-0.8,2.3-1.1,3.5h1.3C417.4,175.6,417.7,174.4,418,173.3z" class="st1"/><path d="M422.5,159.2c-1.5,3.3-2.9,6.8-4.2,10.3l0.7,0C420,166,421.1,162.5,422.5,159.2z" class="st1"/><path d="M438,82.3c0-2,0-4.1,0-6.1c-0.8,0.3-1.5,0.6-2.2,0.9C436.5,78.9,437.3,80.6,438,82.3z" class="st1"/><path d="M486.1,193.1l-0.9-2.8c0.2,1.1,0.5,2.3,0.7,3.5C486,193.6,486.1,193.4,486.1,193.1z" class="st1"/><path d="M481.9,175c0-0.6-0.3-1.2-0.8-1.5c0.2,0.8,0.4,1.5,0.6,2.3C481.8,175.6,481.9,175.3,481.9,175z" class="st1"/><path d="M465.2,95.6c-0.9-6.3-1.5-12.6-2.1-18.9c-4.1-2-7.4-2.9-8.1-3.1c0.9,21.7,3.6,43.3,12.1,61.8 c2.8,6.1,5.4,12.3,7.6,18.6c-0.1-1.2-0.2-2.4-0.2-3.7c0-2.3,0.4-4.9,1-7.8c-4.3-11.6-7.9-23.3-8.8-35.9 C466.2,102.9,465.7,99.3,465.2,95.6z" class="st1"/><path d="M454.8,66.4c0.1,2.3,0.1,4.6,0.2,7C456.9,71.4,456.3,68.8,454.8,66.4z" class="st1"/><path d="M498.4,203.9c0.1,1,0.2,2,0.4,3.1c2,0,3.8-0.2,5.5-0.5c-0.1-1.3-0.2-2.7-0.3-4 C502.3,203.2,500.4,203.7,498.4,203.9z" class="st1"/><path d="M481.2,97.4c0.2,1.9,0.4,3.9,0.7,5.8c0-0.3,0-0.7,0-1C481.8,100.5,481.6,98.9,481.2,97.4z" class="st1"/><path d="M515.5,154.6c0.4,14.8,1,29.6,1.7,44.5c1-1.5,1.8-3.2,2.4-5.1c0.6-8.9,1.3-17.8,2-26.6 c0.1-0.8,0.2-1.6,0.3-2.4c-0.1-5.8-0.2-11.7-0.3-17.5C519,149.4,517,151.8,515.5,154.6z" class="st1"/><path d="M514.4,89c0.1,15.6,0.3,31.1,0.6,46.7c1.5,3.3,3.7,6,6.4,8.2c-0.1-7.8-0.2-15.6-0.3-23.4 c-0.6-7.5-1.2-15.1-1.8-22.6C518.4,94.1,516.8,91.2,514.4,89z" class="st1"/><path d="M435.1,194.2c-0.2-0.4-0.5-0.7-0.7-1.1C434.6,193.5,434.8,193.9,435.1,194.2L435.1,194.2z" class="st1"/><path d="M435,197.7c-0.2,0-1,1.6-1,2.2c0,0,5.7,4.9,5.7,10c0,5.1-12.1,12.7-12.1,12.7c-0.8,1.4,0.4,2.2,0.6,2.2h6 c0.2-0.5,0.5-1,0.7-1.5c0.3,0.5,0.6,1,0.8,1.5h12.2c-3.4-9.4-7.6-18.4-12.5-27.1H435z" class="st1"/><path d="M437,197.7c4.7,8.7,8.4,17.8,11.3,27.1h0.7c-3-9.4-6.9-18.5-11.9-27.1H437z" class="st1"/><path d="M395,87.6c0.2-0.9,0.4-1.7,0.6-2.6c0-0.2,0.1-0.4,0.1-0.6c-0.3,0-0.6,0-1,0c-0.3,1.1-0.5,2.2-0.8,3.3 C394.3,87.7,394.7,87.7,395,87.6z" class="st2"/><path d="M374,148.9c-0.1-0.1-0.3-0.2-0.4-0.4c-1.1,3.3-2.2,6.6-3.2,9.9c0.1,0.2,0.2,0.4,0.2,0.6 C371.7,155.7,372.9,152.3,374,148.9z" class="st2"/><path d="M381.2,129.4c0.3-1.3,0.5-2.7,0.7-4.1c-1.7,4.8-3.5,9.6-5.1,14.4c0.5-0.7,1-1.5,1.5-2.2 C379.2,134.8,380.2,132.1,381.2,129.4z" class="st2"/><path d="M395,87.6c0.1,0,0.1,0,0.2,0c0.1-0.9,0.3-1.7,0.4-2.6C395.4,85.9,395.2,86.8,395,87.6z" class="st2"/><path d="M374,148.9c-1.2,3.4-2.3,6.8-3.4,10.2c0.1,0.2,0.2,0.4,0.2,0.7c1.3-3.3,2.8-6.5,4.2-9.7 C374.8,149.7,374.4,149.3,374,148.9z" class="st2"/><path d="M381.2,129.4c-1,2.7-2,5.4-3,8.1C379.5,135.1,380.5,132.5,381.2,129.4z" class="st2"/><path d="M407,121.4c1.2-4.8,2.1-9.7,3-14.6c-0.2,0.2-0.4,0.3-0.5,0.5c-0.9,4.4-1.8,8.9-3,13.2 C406.7,120.8,406.9,121.1,407,121.4z" class="st2"/><path d="M427.3,103.1c2.2-8,4.2-16,5.7-24.1c0-0.2,0.1-0.3,0.1-0.5c-0.2,0.1-0.4,0.2-0.6,0.4c-1.9,9.5-4,19-6.5,28.5 C426.4,106,426.9,104.6,427.3,103.1z" class="st2"/><path d="M420.3,124l0.4,0.1c1.7-4.9,3.2-9.8,4.7-14.7c0.2-0.7,0.3-1.3,0.5-2C424.2,113,422.3,118.5,420.3,124z" class="st2"/><path d="M420.8,124.1l0.1,0c0,0,0.5-1.9,1.7-4.1c1-3.5,2-7.1,3-10.6C424,114.3,422.4,119.2,420.8,124.1z" class="st2"/><path d="M433,79c-1.5,8.1-3.4,16.1-5.7,24.1C429.7,95.2,431.6,87.2,433,79z" class="st2"/><path d="M456.9,173.3c0.6,1.2,1.1,2.3,1.7,3.5h0.4c-0.4-1.2-0.9-2.3-1.4-3.5H456.9z" class="st2"/><path d="M454.4,168.6c0.2,0.3,0.3,0.6,0.5,0.9l1,0c-4.3-9.3-10-17.9-17.5-23.6c-1.1-0.8-2.1-1.4-3-1.8c1,1,2.1,2,3,3 C444.8,150.5,450.2,159.2,454.4,168.6z" class="st2"/><path d="M460.7,181.8c-0.1-0.3-0.2-0.6-0.3-1h-0.1C460.4,181.1,460.5,181.4,460.7,181.8z" class="st2"/><path d="M423.7,156.2c-0.4,1-0.8,2-1.2,3c2.5-5.5,5.4-10.7,8.7-15.5C428,145,426.3,150.4,423.7,156.2z" class="st2"/><path d="M418.4,173.3H418c-0.3,1.2-0.6,2.3-0.9,3.5h0.4C417.8,175.6,418.1,174.5,418.4,173.3z" class="st2"/><path d="M436.2,146c0.8,0.3,1.5,0.6,2.3,1c-1-1-2-2-3-3c-1.7-0.8-3.1-0.8-4.3-0.4c-3.3,4.8-6.2,10-8.7,15.5 c-1.3,3.4-2.5,6.8-3.5,10.3l0.5,0C423.2,157,428.8,143.4,436.2,146z" class="st2"/><path d="M415,186.8c0.4-1.5,0.9-3.5,1.5-6h-0.2C415.8,182.8,415.4,184.8,415,186.8z" class="st2"/><path d="M456.4,173.3c0.5,1.2,0.9,2.3,1.4,3.5h0.7c-0.5-1.2-1.1-2.3-1.7-3.5H456.4z" class="st2"/><path d="M454.9,169.5c-0.2-0.3-0.3-0.6-0.5-0.9C454.6,168.9,454.7,169.2,454.9,169.5L454.9,169.5z" class="st2"/><path d="M460.3,180.8h-0.9c1.8,5,3.3,9.8,4.5,13.4h0.3c-0.9-4-2.1-8.2-3.5-12.5C460.5,181.4,460.4,181.1,460.3,180.8z" class="st2"/><path d="M455.4,142c1.9,3.8,4,7.5,6.5,10.8C459.4,149.4,457.3,145.8,455.4,142z" class="st2"/><path d="M446.1,114c-2.1-9.4-3.7-18.9-5.3-27.6c0.6,5.2,1.3,10.4,2.2,15.6c0.9,4,1.8,8,2.9,12 C445.9,114,446,114,446.1,114z" class="st2"/><path d="M455.4,142c-1.1-2.1-2-4.4-2.9-6.6c0.3,0.9,0.7,1.9,1,2.8C454.1,139.5,454.7,140.8,455.4,142z" class="st2"/><path d="M445.9,114c-1-4-2-8-2.9-12c0.7,4.1,1.5,8.1,2.5,12.1C445.6,114.1,445.7,114.1,445.9,114z" class="st2"/><path d="M447.8,123c1.6,5.2,3.4,10.3,5.7,15.2c-0.4-0.9-0.7-1.9-1-2.8c-1.6-4.1-3-8.4-4.2-12.7 C448.1,122.8,448,122.9,447.8,123z" class="st2"/><path d="M466.8,106.5c1.8,11.6,4,23,8.4,33.9c0.2,0.4,0.4,0.9,0.5,1.3c0.1-0.4,0.2-0.8,0.3-1.2 c-4.2-12.3-7.9-24.8-9.4-38C466.6,103.9,466.7,105.2,466.8,106.5z" class="st2"/><path d="M475.2,140.4c-4.4-11-6.6-22.3-8.4-33.9c0.9,12.6,4.5,24.3,8.8,35.9c0.1-0.2,0.1-0.4,0.1-0.7 C475.6,141.3,475.4,140.9,475.2,140.4z" class="st2"/><path d="M433.7,192.1c0.2,0.3,0.4,0.7,0.7,1C434.2,192.7,434,192.4,433.7,192.1c-0.5,0.6-1,1.4-1.4,2.1h0.3 C433,193.5,433.4,192.8,433.7,192.1z" class="st2"/><path d="M432.7,194.2h2.4c-0.2-0.4-0.4-0.7-0.7-1.1c-0.2-0.3-0.4-0.7-0.7-1C433.4,192.8,433,193.5,432.7,194.2z" class="st2"/><path d="M435.3,197.7c4.9,8.7,9.1,17.8,12.5,27.1h0.2h0.3c-2.9-9.4-6.6-18.5-11.3-27.1H435.3z" class="st2"/><path d="M504.4,202.3c0.1,1.4,0.2,2.8,0.3,4.1c0.1,0,0.2,0,0.3-0.1c-0.1-1.4-0.2-2.8-0.3-4.3 C504.6,202.2,504.5,202.2,504.4,202.3z" class="st2"/><path d="M369.9,145.8c1.4,0.8,2.6,1.7,3.7,2.8c1-2.9,2-5.9,3-8.8C374.9,142.2,372.6,144.2,369.9,145.8z" class="st0"/><path d="M385.3,92.4c-2.7,3-4,6.6-4,11c0,1.9,0.1,4.7,0.4,8.4c0.2,3.7,0.4,6.5,0.4,8.3c0,1.8-0.1,3.6-0.3,5.3 c4.4-12.4,8.8-24.8,12.1-37.6C390.4,88.4,387.5,90,385.3,92.4z" class="st0"/><path d="M455,73.6c0-0.1,0-0.1,0-0.2c0,0.1-0.1,0.1-0.1,0.2C454.9,73.5,454.9,73.5,455,73.6z" class="st0"/><path d="M411.1,194.2c-0.6,0-1.1-0.5-1.1-1.1l3.7-11.2c0-0.6,0.5-1.1,1-1.1c0.4-1.4,0.8-2.7,1.2-4h-0.9 c-1,0-1.8-0.8-1.8-1.8c0-1,0.8-1.8,1.8-1.8h2.1c0.4-1.3,0.9-2.5,1.3-3.8l-3.1,0c0,0,0-4.2,0.6-9.5c-3.4,10.4-6.5,20.9-8.4,31.5 c-3.8,21.4-6.5,43.2-8.5,65c1.6,0.7,3.2,1.3,4.8,2c1.5-20.5,3.3-43,7.8-64.3H411.1z" class="st0"/><path d="M393.5,207c-2.4,0-4.6-0.3-6.6-0.7c-1.8,14-2.5,28.3-2.9,42.6c2.4,1.5,4.9,2.9,7.4,4.2 c0.7-15.2,1.7-30.8,3.7-46H393.5z" class="st0"/><path d="M544.1,74c-0.3-0.4-0.5-0.7-0.8-1.1c-2.2,14.6-4.1,29.3-5.5,44C539.3,102.5,541.7,88.2,544.1,74z" class="st0"/><path d="M372.5,124.2c0.4-4.9,0.8-9.7,1.1-14.6c-3.3,9.2-6.7,18.3-9.3,27.8c-0.5,1.7-0.9,3.4-1.3,5.1 C368.6,139.1,371.7,133.1,372.5,124.2z" class="st0"/><path d="M556.8,196c1.5-3.4,2.9-6.8,4.2-10.4c-1.9-19.9-1.7-40.4-0.9-57.6c0.3-6.8,0.8-13.6,1.5-20.3 c-1.3-4-2.9-7.9-4.6-11.7C554.3,129.3,553.2,162.7,556.8,196z" class="st0"/><path d="M498.7,207c-0.4,0-0.8,0-1.2,0v-3c0.3,0,0.5-0.1,0.8-0.1c-2.4-20-5.9-39.8-10-60c-2.7-13.5-4.8-27.1-6.4-40.7 c0.5,15.7-3.6,28-5.9,37.3c2.3,6.7,4.7,13.4,6.9,20.1c3.4,9.6,6.5,19.4,8.5,28.8c1.6,7.6,3,34.5,3.4,67.1c2.4-1.1,4.8-2.2,7.2-3.4 c0-0.3,0-0.6,0-1C501.6,236.9,500.4,221.9,498.7,207z" class="st0"/><path d="M505,206.4c0.4,5.7,0.7,11.5,0.8,17.3c-0.3-5.8-0.7-11.5-1.1-17.2c-0.1,0-0.3,0.1-0.4,0.1 c1,14.8,1.7,29.6,2.1,44.4c4.3-2.5,8.5-5.2,12.5-8.1c-0.5-14.6-1.2-29.1-1.8-43.7C514.5,202.9,510.5,205.3,505,206.4z" class="st0"/><path d="M485,194.2h-6.4c1.5,6.4,2.7,12.8,3.6,19.4c1.1,15.7,1.8,31.4,2,47c2.9-0.9,5.7-2,8.4-3.1 c-0.6-21.5-2.6-43-6.7-63.8C485.6,194,485.3,194.2,485,194.2z" class="st0"/><path d="M480.1,176.8h-6.9c0.5,1.3,1,2.7,1.5,4h6.6c0.6,0,1.1,0.5,1.1,1.1l2.8,8.4c-1-4.9-2.2-9.7-3.4-14.5 C481.4,176.4,480.8,176.8,480.1,176.8z" class="st0"/><path d="M437.2,197.7H448h5.6c-0.5-1.2-1-2.3-1.5-3.4h-17C435.8,195.4,436.5,196.5,437.2,197.7z" class="st0"/><path d="M470.1,169.5c0.6,1.2,1.2,2.5,1.7,3.8h8.3c0.3,0,0.7,0.1,0.9,0.3c-1.8-6.6-3.9-13.2-6.3-19.7 c0.9,8.7,4.1,15.3,4.3,15.6L470.1,169.5z" class="st0"/><path d="M430.3,169.5c-0.5,1.3-1.1,2.5-1.6,3.8h12.4c-0.8-1.3-1.6-2.5-2.4-3.8L430.3,169.5z" class="st0"/><path d="M423.1,140.5c7-5.3,13.9-9.4,19.3-13.2c-1.5-4.2-2.9-8.5-4.1-12.9c-1.1-0.2-2.3-0.5-3.5-0.9 c-1.6-0.6-3-0.7-4.3-0.5c-2.2,9.6-5.2,19.1-8.4,28.5C422.4,141.2,422.7,140.8,423.1,140.5z" class="st0"/><path d="M412.6,122l-1.5,0.5c-1.3,5.1-2.7,10.1-4.3,15.1c-5.6,16.8-12.8,32.4-16.6,49.9c-1,4.6-1.8,9.3-2.6,14 c2.2,1.5,4.8,2.4,8,2.7c2.2-14.8,5.5-29.2,10.8-42.3c0.7-1.6,1.3-3.3,2-4.9c3.8-11,8-21.9,12-32.9L412.6,122z" class="st0"/><path d="M460.1,216c-0.9-3.1-1.9-6.2-3-9.3c-0.4,1-0.7,2.1-0.7,3.2C456.4,211.8,458.1,214,460.1,216z" class="st0"/><path d="M535.2,153.6c-0.2-27.4,2.6-54.7,7.2-81.7c-6.3-8.2-13.7-15.5-21.9-21.8c0.1,23.5,0.3,46.9,0.5,70.4 c0.1,1.3,0.2,2.6,0.3,3.9c1.2,10.5,5.6,17.1,13.2,19.7v3.3c-7.3,2.4-11.6,8.3-13,17.6c0.1,6.7,0.2,13.3,0.3,20 c0.3,18.3,0.5,36.6,0.6,54.9c4.6-3.7,9-7.8,13.1-12.2C534.6,202.9,534.3,178.3,535.2,153.6z" class="st0"/><path d="M481.2,97.4c-2.5-22.8-3.6-45.7-4.1-68.6c-5.2-1.3-10.6-2.4-16.1-3c0.2,17,0.6,34,2.1,50.8 C469.9,80,478.8,86.4,481.2,97.4z" class="st0"/><path d="M502.7,186.2c0.4,5.4,0.8,10.8,1.2,16.2c0.1-0.1,0.3-0.1,0.4-0.2c-1-13.1-2.3-26.1-3.7-39.1 c-4.8-38.6-11.4-77-12.8-116c3.4,38.9,8.7,77.3,12.8,116c1.6,12.9,3,25.9,4,38.9c1.5-0.8,2.8-1.8,3.9-3c2.7-3,4-6.6,4-11 c0-1.9-0.1-4.7-0.4-8.4c-0.3-3.7-0.4-6.5-0.4-8.3c0-6.7,1.2-12.3,3.6-16.8c-0.1-2.1-0.1-4.2-0.2-6.2c-0.1-4.2-0.2-8.4-0.3-12.7 c-2-4.3-3-9.5-3-15.7c0-1.9,0.1-4.7,0.3-8.4c0.2-3.7,0.3-6.5,0.3-8.3c0-4.4-1.3-8.1-3.9-11c-2.6-3-6.3-4.6-11-4.9v-2.9h2.7 c6,0,10.7,1.5,14,4.5c-0.1-14.5-0.2-29-0.2-43.5c-8.5-5.7-17.9-10.4-27.8-13.8c1.2,18.4,2.6,36.7,4.2,55.1 C493.4,120,500.1,152.9,502.7,186.2z" class="st0"/><path d="M342.3,205.7c3.2-27.2,8-54.3,16.6-80.3c6.4-19.3,13.6-37.5,19.2-56.9c1.6-5.6,3-11.3,4.4-17 c-1.3,5.8-2.8,11.5-4.4,17c-6.8,24.7-15.3,48.8-21.7,73.4c7.4-24.3,16.2-48.3,22.4-73.6c2.1-8.7,4.1-17.4,6-26.1 c-5.3,3.2-10.3,6.7-15,10.7c-6.4,26.5-15.1,52.1-27.4,75.6c-3.8-6.1-7.3-12.3-10.7-18.5c-1.6,5.2-2.9,10.5-3.8,15.9 c-1.1,6.4-1.6,13-1.6,19.8c0,1,0,2,0,3.1c3.1,8.9,5.8,18,8.2,27.1C337.6,185.6,340.3,195.5,342.3,205.7z" class="st0"/><path d="M472.2,194.2H465c6.7,22.3,8.4,46.7,8.3,69.4c2.5-0.5,4.9-1.2,7.3-1.9c-0.2-7.5-0.5-14.9-1-22.3 C478.7,223,476.5,208.5,472.2,194.2z" class="st0"/><path d="M415.3,102.2c6.4-5.6,13.4-11.8,13.4-11.8l-1.9-6.3c0,0,1.8-2.6,5.7-5.1c0.6-2.8,1.1-5.6,1.6-8.4 c-0.3,2.7-0.6,5.4-1.1,8c0,0,0,0,0,0c0.7-3.5,1.2-7.1,1.7-10.6c-0.2-14.1-0.3-28.2-0.5-42.3c-3.8,0.4-7.5,1-11.1,1.7 c-0.4,18.6-1.5,37.2-4.6,55.8C417.5,89.4,416.5,95.8,415.3,102.2z" class="st0"/><path d="M438.3,76.1c2.5-0.9,5.3-1.5,8.7-1.7v-16c0,0,5.2,3.8,7.8,8c-0.4-14.1-0.1-28.1-0.5-41.2 c-2.4-0.1-4.9-0.2-7.4-0.2c-3.1,0-6.3,0.1-9.3,0.4c0.1,16.2,0.2,32.4,0.4,48.6C438.1,74.7,438.2,75.4,438.3,76.1z" class="st0"/><path d="M432.3,194.2h-10.7c-6.2,21.5-9.6,44.2-11.5,66.5c2,0.7,4.1,1.3,6.2,1.8c1.2-14.7,3.2-29.4,7.1-43.3 C425.1,210.2,427.8,201.5,432.3,194.2z" class="st0"/><path d="M380.1,158.8c1.2,3.7,1.8,7.9,1.8,12.7c0,1.9-0.1,4.7-0.3,8.4c-0.2,3.7-0.3,6.5-0.3,8.3c0,2.7,0.5,5,1.4,7.2 c0.8-3.8,1.6-7.6,2.5-11.4c4-16.6,13.1-31.9,16.9-47.8c0-0.1,0.1-0.2,0.1-0.4c-0.3,0.6-0.5,1.2-0.8,1.8 c-5.6,11.8-11.9,24.8-14.9,37.9c-0.5,2.5-0.9,4.9-1.3,7.3c0.3-2.4,0.8-4.8,1.3-7.3c2.3-12,5.4-25,11.7-34.8c2.2-3.5,4-7.4,5.5-11.6 c0.8-3.2,1.5-6.3,2.2-9.5c-1.4-3.1-2.7-7.4,0-9.6c0.6-0.5,1.5-1.2,2.6-2.1c1.9-8.8,3.7-17.5,5.4-26.3c3.4-17.6,4.8-35.4,5.2-53.3 c-4.3,1-8.5,2.2-12.6,3.7c-3.8,33.5-9.3,66.7-17.6,99.8C387,140.6,383.3,149.7,380.1,158.8z" class="st0"/><path d="M524,145.7c-0.9-0.5-1.8-1.2-2.6-1.8c0,1.2,0,2.4,0,3.5C522.3,146.8,523.1,146.2,524,145.7z" class="st0"/><path d="M434.1,224.8c-5.8,11.9-9.8,25.3-12.3,39.1c2.9,0.6,5.8,1.1,8.7,1.5c0.5-1.4,1-2.8,1.5-4.2 c0.9-2.8,2.1-5.5,3.8-7.8c2.2,4.1,4,8.4,5.4,12.9c1.9,0.1,3.8,0.1,5.7,0.1c1.6,0,3.1,0,4.7-0.1c-3-14.2-8.4-28-16-41.6H434.1z" class="st0"/><path d="M566.9,159.6c0.5-4.5,0.8-9.1,0.8-13.8c0-1.9,0-3.7-0.1-5.6c-0.4,4.8-0.6,9.7-0.7,14.6 C566.9,156.4,566.9,158,566.9,159.6z" class="st0"/><path d="M449.1,224.8c4.2,13.3,6.7,27.2,8.1,41.3c3.8-0.3,7.5-0.8,11.2-1.5c-0.7-13.6-2.6-26.9-5.8-39.8H449.1z" class="st0"/><path d="M380.9,88.3c3.4-2.4,8.1-3.7,13.9-3.8c1-4.3,2-8.6,2.7-12.9c-0.5,4.3-1.1,8.6-1.8,12.9c0,0,0,0,0,0 c0.8-3.5,1.5-7,2.1-10.6c2.2-13.5,3.9-27.1,5.4-40.7c-4.2,1.6-8.3,3.5-12.3,5.6c-2.1,14.7-4.5,29.5-8.4,43.8 C382.1,84.5,381.5,86.4,380.9,88.3z" class="st0"/><path d="M427.4,176.8c-0.5,1.3-1,2.7-1.5,4h19.6c-0.7-1.3-1.5-2.7-2.2-4H427.4z" class="st0"/><path d="M458.9,176.8c0.5,1.3,1,2.7,1.4,4h7.1c-0.5-1.3-1.1-2.7-1.7-4H458.9z" class="st0"/><path d="M369.1,164.5c-0.7,1.9-1.4,3.8-2,5.7c-1.3,4.8-2.4,9.7-3.3,14.7c0.6-5,1.8-9.9,3.3-14.7 c1-3.9,2.1-7.8,3.3-11.7c-1.9-4.7-4.8-8.1-8.9-10.1c-5.5,23-9,46.4-11.1,69.9c2.8,3.8,5.9,7.4,9.2,10.8c0.9-17.5,2.6-34.8,6.2-51.6 C366.7,173.1,367.8,168.8,369.1,164.5z" class="st0"/><path d="M345.9,86c3.7-6.3,6.9-12.8,9.8-19.4c-5.8,6.7-10.9,14-15.1,21.9c0.4,0.6,0.8,1.1,1.1,1.7 C343.2,88.9,344.6,87.5,345.9,86z" class="st0"/><path d="M374.6,193.6c-0.2-2.7-0.4-5.4-0.6-8c-2.1,17.4-3.6,34.8-5,52.3c2.3,1.9,4.6,3.8,7,5.5 c1.2-13.3,2.9-26.5,5.3-39.6C377.9,201.5,375.7,198.2,374.6,193.6z" class="st0"/><path d="M552.2,86.5c-0.1-0.3-0.3-0.5-0.4-0.8c-1.6,12.1-3.1,24.2-4.5,36.4C548.7,110.2,550.4,98.4,552.2,86.5z" class="st0"/><path d="M464.2,173.3c-0.6-1.3-1.2-2.5-1.8-3.8l-6.5,0c0.6,1.3,1.1,2.5,1.6,3.8H464.2z" class="st0"/><path d="M539.5,201.2c0.3,6.9,0.7,13.7,1.2,20.6c2.1-2.6,4.1-5.3,6-8.1c-3.1-23.8-3.4-47.5-1.4-72.7c0-0.2,0-0.3,0-0.5 c-0.6,6.4-1.1,12.9-1.6,19.3c1-25.3,3.5-50.5,7-75.5c-1.3-2.3-2.8-4.5-4.2-6.6c-0.2,1.6-0.4,3.1-0.7,4.7 C540.2,121.6,537.9,161.5,539.5,201.2z" class="st0"/><path d="M448.3,122.6c3.7-3.6,5.6-7.3,4.4-11.9c0,0-2.5,2.1-6.6,3.2c0.5,2.3,1.1,4.6,1.7,6.9 C447.9,121.4,448.1,122,448.3,122.6z" class="st0"/><path d="M369.7,53c-3.7,3.1-7.1,6.3-10.4,9.8c-1.5,3.8-3.2,7.5-5,10.9c-3.3,6.8-7.3,13.5-12.5,19.9 c-0.9-0.8-1.7-1.6-2.5-2.5c-3.1,6-5.7,12.4-7.7,19c3.4,6.2,6.9,12.4,10.7,18.5C354.6,105.1,363.3,79.5,369.7,53z" class="st1"/><path d="M354.3,73.7c1.6-3.4,3.1-6.8,4.4-10.2c-1,1.1-1.9,2.1-2.9,3.2c-2.9,6.6-6.1,13-9.8,19.4 C349.1,82.4,351.9,78.2,354.3,73.7z" class="st1"/><path d="M328.8,159.4c2,5.4,3.9,10.9,5.6,16.4c-2.4-9.1-5.1-18.1-8.2-27.1c0,1.2,0.1,2.4,0.1,3.5 C327.3,154.7,328.1,157.1,328.8,159.4z" class="st1"/><path d="M359.3,147.5v-3.3c1.4-0.4,2.6-1,3.8-1.7c0.4-1.7,0.9-3.4,1.3-5.1c2.6-9.5,5.9-18.7,9.3-27.8 c0.3-4,0.6-8,0.8-12c1.2-4,3.3-7.1,6.5-9.2c0.6-1.9,1.2-3.9,1.7-5.8c3.9-14.3,6.3-29,8.4-43.8c-2.1,1.1-4.3,2.3-6.3,3.6 c-1.9,8.7-3.8,17.5-6,26.1c-6.2,25.3-15,49.2-22.4,73.6c-0.8,3.1-1.6,6.3-2.4,9.4c-4.7,19.9-7.4,39.3-9,59c1.7,2.7,3.6,5.4,5.5,7.9 c2.1-23.5,5.5-46.9,11.1-69.9C360.8,148.1,360,147.7,359.3,147.5z" class="st1"/><path d="M328.8,159.4c-0.8-2.1-1.6-4.3-2.4-6.4c0.9,15.3,4.6,29.7,10.7,43c-1.7-10.8-3.9-21.6-7-32.2 C329.7,162.3,329.3,160.9,328.8,159.4z" class="st1"/><path d="M372.5,167.2c-0.3-2.7-0.8-5.2-1.6-7.4c-0.6,1.6-1.3,3.1-1.8,4.7c-1.2,4.3-2.3,8.6-3.3,13 c-3.6,16.8-5.3,34.1-6.2,51.6c2.9,3.1,6.1,6,9.3,8.8c1.4-17.5,2.9-34.9,5-52.3C373.5,179.4,373,173.3,372.5,167.2z" class="st1"/><path d="M395.8,84.5c0.2,0,0.4,0,0.6,0v3c-0.4,0-0.8,0.1-1.2,0.1c-2.6,15-6.6,29.8-12.1,44c-2.4,6.1-5.2,12.2-8,18.4 c2.2,2.4,3.9,5.3,5,8.8c3.2-9.1,6.9-18.2,9.1-27.2c8.3-33,13.9-66.3,17.6-99.8c-1.2,0.4-2.4,0.9-3.6,1.3 c-1.5,13.7-3.3,27.3-5.4,40.7C397.3,77.4,396.6,81,395.8,84.5z" class="st1"/><path d="M408.8,107.8c0.2-0.2,0.5-0.4,0.8-0.6c1.5-7.5,2.8-14.8,4.5-21.3c-1.5,6.6-2.7,13.7-4,20.8 c1.6-1.3,3.4-2.9,5.3-4.6c1.2-6.4,2.2-12.7,3.2-19c3.1-18.5,4.2-37.1,4.6-55.8c-1.2,0.2-2.5,0.5-3.7,0.8 c-0.5,17.9-1.9,35.8-5.2,53.3C412.5,90.3,410.7,99.1,408.8,107.8z" class="st1"/><path d="M406.1,119.6c-0.7,3.2-1.5,6.3-2.2,9.5c1-2.8,1.9-5.7,2.6-8.6C406.4,120.2,406.3,119.9,406.1,119.6z" class="st1"/><path d="M387.6,201.3c0.7-4.7,1.5-9.4,2.6-14c3.9-17.5,11-33,16.6-49.9c1.7-4.9,3.1-10,4.3-15.1l-2.9,0.9 c0,0-0.5-0.8-1.1-1.9c-1.3,5.1-2.8,10-4.7,14.5c0,0.1-0.1,0.2-0.1,0.4c-3.9,16-13,31.2-16.9,47.8c-0.9,3.8-1.7,7.6-2.5,11.4 c0.6,1.4,1.4,2.7,2.5,3.9C386,200.1,386.7,200.7,387.6,201.3z" class="st1"/><path d="M381.2,203.8c-2.4,13-4,26.3-5.3,39.6c2.6,1.9,5.3,3.7,8.1,5.4c0.3-14.3,1-28.6,2.9-42.6 C384.7,205.7,382.8,204.9,381.2,203.8z" class="st1"/><path d="M448.2,122.6C448.3,122.6,448.3,122.6,448.2,122.6c-0.2-0.6-0.3-1.2-0.5-1.8 C447.9,121.4,448.1,122,448.2,122.6z" class="st1"/><path d="M467.4,180.8h7.2c-0.5-1.3-0.9-2.7-1.5-4h-7.5C466.3,178.1,466.9,179.4,467.4,180.8z" class="st1"/><path d="M445.4,114.1c-2.1,0.5-4.5,0.7-7.1,0.3c1.2,4.4,2.6,8.7,4.1,12.9c2.1-1.5,3.9-2.9,5.4-4.3 C446.9,120.1,446.1,117.1,445.4,114.1z" class="st1"/><path d="M464.2,173.3h7.7c-0.5-1.3-1.1-2.5-1.7-3.8l-7.7,0C463,170.7,463.6,172,464.2,173.3z" class="st1"/><path d="M434.8,74.8c0-2.3,0-4.5-0.1-6.8c-0.5,3.5-1,7.1-1.7,10.6c0.8-0.5,1.7-1,2.7-1.4 C435.4,76.4,435.1,75.6,434.8,74.8z" class="st1"/><path d="M438.3,76.1c-0.1-0.7-0.2-1.5-0.3-2.2c0,0.8,0,1.5,0,2.3C438.1,76.2,438.2,76.2,438.3,76.1z" class="st1"/><path d="M478.5,194.2h-6.4c4.3,14.2,6.6,28.8,7.5,45.2c0.4,7.4,0.8,14.9,1,22.3c1.2-0.3,2.4-0.7,3.6-1.1 c-0.2-15.6-0.9-31.3-2-47C481.2,207,480.1,200.6,478.5,194.2z" class="st1"/><path d="M415.8,160c0.8-6.4,2.4-14.5,6.3-18.5c3.2-9.4,6.2-18.9,8.4-28.5c-3.9,0.6-6.5,4.1-7.9,7 c-1.4,4.9-3,9.7-4.6,14.5c-3.2,9.4-7.5,18.4-11.3,27.5c-3.3,10.3-6.2,20.7-7.9,31.4c0.4-11.2,3.8-21.4,7.9-31.4 c0.6-1.7,1.2-3.5,1.7-5.2c-0.7,1.6-1.3,3.3-2,4.9c-5.4,13.1-8.7,27.5-10.8,42.3c0.2,0,0.5,0.1,0.7,0.1v2.9h-1.1 c-2.1,15.2-3,30.8-3.7,46c2.4,1.3,4.9,2.5,7.5,3.6c2-21.8,4.7-43.5,8.5-65C409.3,180.9,412.4,170.4,415.8,160z" class="st1"/><path d="M411.4,194.2c-4.5,21.2-6.3,43.8-7.8,64.3c2.1,0.8,4.2,1.6,6.4,2.2c1.9-22.3,5.3-45,11.5-66.5H411.4z" class="st1"/><path d="M419,169.5l-0.7,0c-0.4,1.2-0.9,2.5-1.3,3.8h1C418.3,172,418.7,170.8,419,169.5z" class="st1"/><path d="M430.3,169.5l-10.8,0c-0.4,1.3-0.7,2.5-1.1,3.8h10.3C429.3,172,429.8,170.7,430.3,169.5z" class="st1"/><path d="M438.8,169.5c0.8,1.3,1.6,2.5,2.4,3.8h15.3c-0.5-1.3-1.1-2.5-1.6-3.8L438.8,169.5z" class="st1"/><path d="M417.5,176.8c-0.4,1.4-0.7,2.8-1,4h9.4c0.5-1.3,1-2.7,1.5-4H417.5z" class="st1"/><path d="M465,194.2h-0.9c0.2,0.9,0.4,1.8,0.6,2.7c-0.3-0.8-0.6-1.7-0.9-2.7h-11.8c0.5,1.1,1,2.3,1.5,3.4h7.5 c0.2,0,1,1.6,1,2.2c0,0-3.5,3-5,6.8c1.1,3.1,2.1,6.2,3,9.3c3.6,3.5,8.4,6.5,8.4,6.5c0.8,1.4-0.4,2.2-0.6,2.2h-5.4 c3.2,12.9,5.1,26.2,5.8,39.8c1.7-0.3,3.3-0.6,5-1C473.4,240.9,471.7,216.6,465,194.2z" class="st1"/><path d="M443.3,176.8c0.8,1.3,1.5,2.7,2.2,4h13.8c-0.5-1.3-1-2.7-1.5-4H443.3z" class="st1"/><path d="M416.2,180.8c0.3-1.3,0.6-2.7,0.9-4h-1.3c-0.4,1.3-0.8,2.7-1.2,4c0,0,0,0,0.1,0H416.2z" class="st1"/><path d="M435.9,57.6c0.6,5.4,1.3,10.9,2.1,16.4c-0.1-16.2-0.2-32.4-0.4-48.6c-1.1,0.1-2.2,0.2-3.3,0.3 c0.2,14.1,0.3,28.2,0.5,42.3C435.2,64.5,435.6,61,435.9,57.6z" class="st1"/><path d="M435.8,77.2c0.7-0.3,1.5-0.6,2.2-0.9c0-0.8,0-1.5,0-2.3c-0.8-5.5-1.5-10.9-2.1-16.4c-0.3,3.5-0.7,6.9-1.2,10.4 c0,2.3,0,4.5,0.1,6.8C435.1,75.6,435.4,76.4,435.8,77.2z" class="st1"/><path d="M482.9,160.7c1.5,4.4,2.9,8.8,4.2,13.3c2.3,7.4,4.1,15,4.9,22.9c-1-7.9-2.7-15.5-4.9-22.9 c-3.3-10.7-7.7-21.1-11.5-31.5c-0.6,2.9-1.1,5.5-1,7.8c0,1.3,0.1,2.5,0.2,3.7c2.4,6.5,4.4,13,6.3,19.7c0.5,0.3,0.8,0.9,0.8,1.5 c0,0.3-0.1,0.6-0.2,0.8c1.3,4.8,2.4,9.6,3.4,14.5l0.9,2.8c0,0.2-0.1,0.5-0.2,0.6c4.1,20.9,6.2,42.3,6.7,63.8 c0.8-0.3,1.5-0.6,2.2-0.9c-0.4-32.6-1.8-59.5-3.4-67.1C489.4,180.1,486.4,170.3,482.9,160.7z" class="st1"/><path d="M455,73.4c0,0.1,0,0.1,0,0.2c0.7,0.2,4,1.1,8.1,3.1c-1.4-16.8-1.9-33.8-2.1-50.8c-2.2-0.3-4.5-0.5-6.8-0.6 c0.3,13.1,0.1,27.1,0.5,41.2C456.3,68.8,456.9,71.4,455,73.4z" class="st1"/><path d="M481.9,102.2c0,0.4,0,0.7,0,1c1.6,13.6,3.7,27.2,6.4,40.7c4.1,20.2,7.6,40,10,60c2.1-0.2,4-0.7,5.6-1.4 c-0.4-5.4-0.8-10.8-1.2-16.2c-2.7-33.3-9.3-66.3-12.2-99.5c-1.6-18.4-2.9-36.7-4.2-55.1c-2.6-0.9-5.3-1.8-8-2.5 c-0.4-0.1-0.8-0.2-1.3-0.3c0.5,23,1.6,45.9,4.1,68.6C481.6,98.9,481.8,100.5,481.9,102.2z" class="st1"/><path d="M498.7,207c1.7,14.9,2.9,29.9,3.3,45.3c0,0.3,0,0.6,0,1c1.5-0.8,2.9-1.5,4.4-2.4c-0.4-14.8-1.1-29.6-2.1-44.4 C502.5,206.8,500.7,206.9,498.7,207z" class="st1"/><path d="M521.5,147.4c0-1.2,0-2.4,0-3.5c-2.7-2.2-4.9-4.9-6.4-8.2c0.1,4.2,0.2,8.4,0.3,12.7c0,2.1,0.1,4.2,0.2,6.2 C517,151.8,519,149.4,521.5,147.4z" class="st1"/><path d="M519.3,97.9c0.6,7.5,1.2,15.1,1.8,22.6c-0.2-23.5-0.4-46.9-0.5-70.4c-2.1-1.6-4.2-3.2-6.4-4.6 c0,14.5,0.1,29,0.2,43.5C516.8,91.2,518.4,94.1,519.3,97.9z" class="st1"/><path d="M521.7,164.9c-0.1,0.8-0.2,1.6-0.3,2.4c-0.7,8.8-1.4,17.7-2,26.6c-0.6,1.9-1.4,3.6-2.4,5.1 c0.6,14.5,1.3,29.1,1.8,43.7c1.3-0.9,2.5-1.9,3.8-2.9c-0.1-18.3-0.3-36.6-0.6-54.9C521.9,178.2,521.8,171.6,521.7,164.9z" class="st1"/><path d="M537.7,116.9c-1.2,12.8-2.1,25.7-2.5,38.6c0-0.6,0-1.3,0-1.9c-0.9,24.8-0.7,49.3,0.5,74 c1.7-1.9,3.4-3.8,5.1-5.8c-0.5-6.8-1-13.7-1.2-20.6c-1.6-39.7,0.7-79.6,6.5-118.8c0.2-1.6,0.4-3.1,0.7-4.7 c-0.8-1.2-1.7-2.5-2.6-3.7C541.7,88.2,539.3,102.5,537.7,116.9z" class="st1"/><path d="M545.4,140.5c0,0.2,0,0.3,0,0.5c-2,25.1-1.7,48.8,1.4,72.7c3.8-5.6,7.2-11.5,10-17.7 c-3.6-33.3-2.5-66.6,0.2-100c-1.5-3.2-3.1-6.4-4.8-9.4c-1.8,11.9-3.5,23.7-4.9,35.6C546.6,128.2,546,134.4,545.4,140.5z" class="st1"/><path d="M448.3,224.8c1.1,3.5,2.1,7.1,3,10.7c1.6,5.7,2.9,11.5,3.8,17.3c-1.1-5.8-2.3-11.6-3.8-17.3 c-1-3.6-2.2-7.2-3.5-10.7h-12.2c7.6,13.5,12.9,27.4,16,41.6c1.8-0.1,3.7-0.2,5.5-0.3c-1.4-14-3.9-28-8.1-41.3H448.3z" class="st1"/><path d="M428.1,224.8c-0.2,0-1.4-0.9-0.6-2.2c0,0,12.1-7.6,12.1-12.7c0-5.1-5.7-10-5.7-10c0-0.6,0.9-2.2,1-2.2h0.4 c-0.4-0.7-0.8-1.5-1.2-2.2c-8.6,15-11.5,33.5-14.9,50.2c1.1-8.2,2.2-17.5,4-26.5c-3.8,14-5.9,28.6-7.1,43.3 c1.9,0.5,3.7,0.9,5.6,1.3c2.5-13.8,6.5-27.1,12.3-39.1H428.1z" class="st1"/><path d="M437,197.7h0.2c-0.7-1.2-1.4-2.3-2.1-3.4h0C435.7,195.4,436.4,196.5,437,197.7z" class="st1"/><path d="M435.5,256.1c-1.4,3.1-2.7,6.2-3.8,9.4c2.7,0.3,5.4,0.6,8.1,0.7c-0.3-1.3-0.7-2.6-1-3.9 C437.8,260.3,436.8,258.2,435.5,256.1z" class="st1"/><path d="M561,185.6c2.9-8.3,4.9-17,6-26.1c0-1.6-0.1-3.2,0-4.8c0.1-4.9,0.3-9.8,0.7-14.6c-0.5-10-2.1-19.7-4.9-29 c-0.4,2.8-0.8,5.7-1.1,8.5c-0.5,7.4-0.9,14.8-1.2,22.2c0-7.5,0.4-14.9,1.2-22.2c0.2-3.2,0.5-6.4,0.8-9.6c-0.3-0.8-0.5-1.6-0.8-2.4 c-0.7,6.8-1.2,13.5-1.5,20.3C559.3,145.2,559.1,165.7,561,185.6z" class="st1"/><path d="M378.1,68.5c1.6-5.6,3.1-11.2,4.4-17C381.1,57.2,379.6,62.9,378.1,68.5z" class="st2"/><path d="M358.8,125.4c-8.6,26-13.4,53.2-16.6,80.3c-2-10.2-4.7-20.1-7.8-29.8c2.4,9.1,4.5,18.3,6.4,27.6 c0.6,1,1.1,2,1.7,3c2-22.5,7.4-43.6,13.7-64.5c6.4-24.7,14.9-48.8,21.7-73.4C372.5,87.9,365.3,106.1,358.8,125.4z" class="st2"/><path d="M356.3,142c-6.4,20.9-11.8,42-13.7,64.5c0.8,1.3,1.6,2.6,2.4,3.9c1.6-19.6,4.4-39.1,9-59 C354.7,148.3,355.5,145.1,356.3,142z" class="st2"/><path d="M326.4,152.3c0,0.2,0,0.5,0,0.7c0.8,2.1,1.6,4.3,2.4,6.4C328.1,157.1,327.3,154.7,326.4,152.3z" class="st2"/><path d="M334.5,175.9c-1.8-5.5-3.7-11-5.6-16.4c0.5,1.4,0.9,2.9,1.3,4.3c3.1,10.6,5.3,21.4,7,32.2 c1.2,2.5,2.4,5,3.7,7.5C338.9,194.2,336.9,185,334.5,175.9z" class="st2"/><path d="M342.3,92c1.3-2,2.5-4,3.7-6c-1.3,1.5-2.7,2.9-4.2,4.2c-0.4-0.5-0.8-1.1-1.1-1.7c-0.2,0.4-0.4,0.7-0.6,1.1 C340.8,90.4,341.5,91.2,342.3,92z" class="st2"/><path d="M342.3,92c-0.8-0.8-1.5-1.6-2.2-2.4c-0.3,0.5-0.5,1-0.8,1.5c0.8,0.8,1.6,1.7,2.5,2.5 c5.2-6.4,9.2-13.1,12.5-19.9c-2.4,4.6-5.2,8.7-8.4,12.3C344.8,88,343.6,90,342.3,92z" class="st2"/><path d="M354.3,73.7c1.8-3.4,3.5-7.1,5-10.9c-0.2,0.2-0.4,0.5-0.6,0.7C357.4,66.9,355.9,70.3,354.3,73.7z" class="st2"/><path d="M397.5,71.6c-0.8,4.4-1.7,8.7-2.7,12.9c0.3,0,0.6,0,1,0C396.4,80.2,397,75.9,397.5,71.6z" class="st2"/><path d="M376.7,139.8c-1,2.9-2.1,5.9-3,8.8c0.1,0.1,0.3,0.2,0.4,0.4c1.3-3.8,2.7-7.6,4.1-11.4 C377.7,138.3,377.2,139,376.7,139.8z" class="st2"/><path d="M395,87.6c-0.4,0-0.7,0.1-1.1,0.2c-3.3,12.8-7.7,25.2-12.1,37.6c-0.2,1.4-0.4,2.8-0.7,4.1 C386.3,115.7,391.5,101.9,395,87.6z" class="st2"/><path d="M370.4,158.5c-1.2,3.9-2.3,7.8-3.3,11.7c0.6-1.9,1.3-3.8,2-5.7c0.5-1.8,1.1-3.6,1.6-5.4 C370.6,158.9,370.5,158.7,370.4,158.5z" class="st2"/><path d="M367.1,170.2c-1.5,4.8-2.7,9.7-3.3,14.7C364.7,179.9,365.8,175.1,367.1,170.2z" class="st2"/><path d="M381.2,129.4c-0.7,3-1.7,5.7-3,8.1c-1.4,3.8-2.8,7.6-4.1,11.4c0.4,0.4,0.7,0.7,1.1,1.1 c2.8-6.2,5.6-12.3,8-18.4c5.5-14.2,9.5-29,12.1-44c-0.1,0-0.1,0-0.2,0C391.5,101.9,386.3,115.7,381.2,129.4z" class="st2"/><path d="M369.1,164.5c0.6-1.6,1.2-3.1,1.8-4.7c-0.1-0.2-0.2-0.4-0.2-0.7C370.1,160.9,369.6,162.7,369.1,164.5z" class="st2"/><path d="M398.4,140.7c-6.3,9.8-9.5,22.8-11.7,34.8c3-13.1,9.3-26,14.9-37.9c0.3-0.6,0.5-1.2,0.8-1.8 c0.5-2.3,1.1-4.5,1.6-6.8C402.4,133.3,400.6,137.2,398.4,140.7z" class="st2"/><path d="M386.6,175.5c-0.6,2.4-1,4.8-1.3,7.3C385.7,180.4,386.2,178,386.6,175.5z" class="st2"/><path d="M406.5,120.4c-0.8,3-1.6,5.9-2.6,8.6c-0.5,2.3-1.1,4.5-1.6,6.8c2-4.5,3.5-9.4,4.7-14.5 C406.9,121.1,406.7,120.8,406.5,120.4z" class="st2"/><path d="M414,85.9c-1.7,6.4-3,13.8-4.5,21.3c0.2-0.1,0.4-0.3,0.5-0.5C411.3,99.6,412.5,92.5,414,85.9z" class="st2"/><path d="M420.3,124c-4,11-8.2,21.9-12,32.9c4.3-10.7,8.5-21.6,12.4-32.8L420.3,124z" class="st2"/><path d="M434.1,70.6c-0.5,2.8-1.1,5.6-1.6,8.4c0.2-0.1,0.4-0.2,0.6-0.4C433.5,75.9,433.8,73.3,434.1,70.6z" class="st2"/><path d="M406.6,162.1c-4.1,10-7.5,20.2-7.9,31.4C400.4,182.8,403.3,172.4,406.6,162.1z" class="st2"/><path d="M420.8,124.1c-3.8,11.2-8.1,22.1-12.4,32.8c-0.6,1.7-1.2,3.5-1.7,5.2c3.7-9.1,8.1-18.1,11.3-27.5 c1.6-4.8,3.2-9.7,4.6-14.5c-1.1,2.2-1.7,4.1-1.7,4.1L420.8,124.1z" class="st2"/><path d="M456.9,173.3h0.7c-0.5-1.3-1.1-2.5-1.6-3.8l-1,0C455.6,170.7,456.2,172,456.9,173.3z" class="st2"/><path d="M458.5,176.8c0.6,1.3,1.2,2.7,1.7,4h0.1c-0.4-1.3-0.9-2.7-1.4-4H458.5z" class="st2"/><path d="M456.4,173.3h0.4c-0.6-1.3-1.3-2.5-2-3.8l-0.1,0C455.4,170.7,455.9,172,456.4,173.3z" class="st2"/><path d="M464.7,196.9c-0.2-0.9-0.4-1.8-0.6-2.7h-0.3C464.2,195.2,464.5,196.1,464.7,196.9z" class="st2"/><path d="M457.8,176.8c0.5,1.4,1,2.7,1.5,4h0.9c-0.6-1.3-1.1-2.7-1.7-4H457.8z" class="st2"/><path d="M419.5,169.5l-0.5,0c-0.4,1.3-0.7,2.5-1,3.8h0.4C418.8,172,419.1,170.8,419.5,169.5z" class="st2"/><path d="M417.1,176.8c-0.3,1.3-0.6,2.7-0.9,4h0.2c0.3-1.2,0.7-2.6,1-4H417.1z" class="st2"/><path d="M447.7,120.8c-0.6-2.3-1.2-4.6-1.7-6.9c-0.1,0-0.1,0-0.2,0.1C446.4,116.3,447.1,118.6,447.7,120.8z" class="st2"/><path d="M448.2,122.6c-0.2-0.6-0.3-1.2-0.5-1.8c-0.7-2.3-1.3-4.5-1.9-6.8c-0.1,0-0.3,0.1-0.4,0.1c0.7,3,1.5,6,2.4,8.9 C448,122.9,448.1,122.8,448.2,122.6z" class="st2"/><path d="M482.9,160.7c-2.3-6.7-4.7-13.4-6.9-20.1c-0.1,0.4-0.2,0.8-0.3,1.2C478.2,147.9,480.6,154.2,482.9,160.7z" class="st2"/><path d="M487.1,174c2.1,7.5,3.9,15.1,4.9,22.9C491.2,189,489.4,181.4,487.1,174z" class="st2"/><path d="M475.6,142.4c3.9,10.5,8.2,20.8,11.5,31.5c-1.3-4.5-2.7-8.9-4.2-13.3c-2.3-6.5-4.8-12.8-7.2-18.9 C475.7,142,475.6,142.2,475.6,142.4z" class="st2"/><path d="M432.3,194.2c-4.5,7.3-7.2,16-9,25c2.4-8.6,5.4-17,9.4-25H432.3z" class="st2"/><path d="M435.1,194.2h-2.4c-4,8-7,16.3-9.4,25c-1.9,9-2.9,18.2-4,26.5c3.3-16.7,6.3-35.3,14.9-50.2 c0.4,0.7,0.8,1.5,1.2,2.2h1.7C436.4,196.5,435.7,195.4,435.1,194.2z" class="st2"/><path d="M451.3,235.5c1.5,5.7,2.7,11.5,3.8,17.3C454.2,247,452.9,241.2,451.3,235.5z" class="st2"/><path d="M447.9,224.8c1.3,3.5,2.4,7.1,3.5,10.7c-0.9-3.6-1.9-7.2-3-10.7H448H447.9z" class="st2"/><path d="M438.8,262.4c0.6,1.3,1.1,2.6,1.5,3.9c0.3,0,0.7,0,1,0.1c-1.4-4.5-3.2-8.9-5.4-12.9 C437,256.4,437.9,259.4,438.8,262.4z" class="st2"/><path d="M432.1,261.2c1.1-2.7,2.4-5.3,3.8-7.8C434.2,255.7,433,258.4,432.1,261.2z" class="st2"/><path d="M431.7,265.5c1.1-3.2,2.5-6.3,3.8-9.4c1.2,2,2.3,4.1,3.2,6.3c-0.8-3-1.8-6-2.9-9c-1.5,2.5-2.7,5.1-3.8,7.8 c-0.4,1.4-0.8,2.8-1.1,4.2C431.2,265.5,431.5,265.5,431.7,265.5z" class="st2"/><path d="M500.7,163.2c1.4,13,2.7,26,3.7,39.1c0.1-0.1,0.2-0.1,0.3-0.2C503.7,189.1,502.3,176.1,500.7,163.2z" class="st2"/><path d="M500.7,163.2c-4.1-38.6-9.4-77.1-12.8-116C489.3,86.2,495.9,124.6,500.7,163.2z" class="st2"/><path d="M505.8,223.6c-0.2-5.8-0.5-11.5-0.8-17.3c-0.1,0-0.2,0-0.3,0.1C505.1,212.2,505.5,217.9,505.8,223.6z" class="st2"/><path d="M535.2,153.6c0.2-6.3,0.5-12.7,0.9-19c0.3-5.9,0.9-11.8,1.6-17.7c1.4-14.7,3.3-29.4,5.5-44 c-0.3-0.3-0.5-0.7-0.7-1C537.8,98.9,535.1,126.2,535.2,153.6z" class="st2"/><path d="M535.2,153.6c0,0.6,0,1.3,0,1.9c0.4-12.9,1.2-25.8,2.5-38.6c-0.7,5.9-1.2,11.8-1.6,17.7 C535.8,140.9,535.5,147.3,535.2,153.6z" class="st2"/><path d="M545.4,140.5c0.5-6.1,1.1-12.3,1.9-18.4c1.3-12.1,2.9-24.3,4.5-36.4c-0.3-0.5-0.6-1-0.8-1.5 c-3.5,25-6.1,50.2-7,75.5C544.3,153.4,544.8,146.9,545.4,140.5z" class="st2"/><path d="M545.4,140.5c0.6-6.1,1.2-12.3,1.9-18.4C546.5,128.2,545.9,134.4,545.4,140.5z" class="st2"/><path d="M561.6,119.7c0.3-2.9,0.7-5.7,1.1-8.5c-0.1-0.4-0.2-0.7-0.3-1.1C562.1,113.3,561.8,116.5,561.6,119.7z" class="st2"/><path d="M561.6,119.7c-0.8,7.3-1.3,14.7-1.2,22.2C560.7,134.5,561.1,127.1,561.6,119.7z" class="st2"/><path d="M414.8,180.8c-0.6,0-1.1,0.5-1.1,1.1l-3.7,11.2c0,0.6,0.5,1.1,1.1,1.1H485c0.6,0,1.1-0.5,1.1-1.1l-3.7-11.2 c0-0.6-0.5-1.1-1.1-1.1H414.8z" class="st3"/><path d="M456.4,209.9c0-5.1,5.7-10,5.7-10c0-0.6-0.9-2.2-1-2.2h-13h-13c-0.2,0-1,1.6-1,2.2c0,0,5.7,4.9,5.7,10 c0,5.1-12.1,12.7-12.1,12.7c-0.8,1.4,0.4,2.2,0.6,2.2H448h19.9c0.2,0,1.4-0.9,0.6-2.2C468.5,222.6,456.4,215,456.4,209.9z" class="st3"/><path d="M519.5,193.9c0.6-8.9,1.3-17.8,2-26.6c0.9-10.7,5.3-17.4,13.2-20V144c-7.6-2.6-12-9.2-13.2-19.7 c-0.7-8.8-1.4-17.6-2.1-26.5c-2.2-8.9-8.5-13.4-18.9-13.4h-2.7v2.9c4.7,0.3,8.4,1.9,11,4.9c2.6,3,3.9,6.6,3.9,11 c0,1.8-0.1,4.6-0.3,8.3c-0.2,3.7-0.3,6.5-0.3,8.4c0,12.3,4,20.9,12,25.7c-8.1,4.8-12.2,13.4-12.2,25.7c0,1.8,0.1,4.6,0.4,8.3 c0.2,3.7,0.4,6.5,0.4,8.4c0,4.4-1.3,8.1-4,11c-2.7,3-6.3,4.6-11,4.9v3C509.6,207.1,516.9,202.7,519.5,193.9z" class="st3"/><path d="M414.9,176.8h65.2c1,0,1.8-0.8,1.8-1.8c0-1-0.8-1.8-1.8-1.8h-65.2c-1,0-1.8,0.8-1.8,1.8 C413.2,176,414,176.8,414.9,176.8z" class="st3"/><path d="M372.5,167.2c0.7,8.8,1.4,17.6,2.1,26.5c2.2,8.9,8.5,13.4,18.9,13.4h2.7v-2.9c-4.7-0.3-8.4-1.9-11-4.9 c-2.6-3-3.9-6.6-3.9-11c0-1.8,0.1-4.6,0.3-8.3c0.2-3.7,0.3-6.5,0.3-8.4c0-12.3-4-20.9-12-25.7c8.1-4.8,12.2-13.4,12.2-25.7 c0-1.8-0.1-4.6-0.4-8.3c-0.3-3.7-0.4-6.5-0.4-8.4c0-4.4,1.3-8.1,4-11c2.7-3,6.3-4.6,11-4.9v-3c-12-0.1-19.3,4.3-21.9,13.1 c-0.6,8.9-1.3,17.8-2,26.6c-0.9,10.7-5.3,17.4-13.2,20v3.3C366.9,150.1,371.3,156.6,372.5,167.2z" class="st3"/><path d="M412.6,122l8.2,2.1c0,0,3.9-14.2,13.9-10.5c10,3.6,17.9-2.8,17.9-2.8c3,11.5-13,17.3-29.5,29.8 c-8,6.1-8,29-8,29l63.9,0c-0.3-0.4-4.3-8.8-4.5-19.3c-0.2-10.1,8.3-25.6,7.3-48c-1-22.4-27-28.7-27-28.7c5.5-5.4-7.9-15.1-7.9-15.1 v16c-14.3,0.9-20.2,9.6-20.2,9.6l1.9,6.3c0,0-18,16.1-22.5,19.6c-4.6,3.6,2,13.3,2,13.3L412.6,122z" class="st3"/></g><path d="M843.9,145.7c0,67.1-54.4,121.4-121.4,121.4s-121.4-54.3-121.4-121.4S655.5,24.3,722.5,24.3	S843.9,78.7,843.9,145.7z" class="st4"/><g><path d="M292.8,145.7c0,67.1-54.4,121.4-121.4,121.4S50,212.8,50,145.7S104.4,24.3,171.4,24.3S292.8,78.7,292.8,145.7z" class="st5"/><path d="M259.6,144c-7.7-2.6-12.1-9.2-13.3-19.8c-0.7-8.9-1.4-17.7-2.1-26.6c-2.2-9-8.6-13.5-19-13.5h-2.7V87 c4.7,0.3,8.4,1.9,11,4.9s3.9,6.7,3.9,11.1c0,1.8-0.1,4.6-0.3,8.3c-0.2,3.7-0.3,6.6-0.3,8.5c0,12.4,4,21,12.1,25.8 c-8.2,4.8-12.2,13.5-12.2,25.8c0,1.8,0.1,4.6,0.4,8.3c0.3,3.7,0.4,6.6,0.4,8.5c0,4.4-1.3,8.1-4,11.1s-6.4,4.6-11.1,4.9v3 c12.1,0.1,19.4-4.3,22.1-13.1c0.6-9,1.3-17.9,2-26.8c0.9-10.8,5.3-17.5,13.3-20.1V144H259.6z" class="st6"/><path d="M136.9,121.8l8.3,2.1c0,0,4-14.3,14-10.6c10.1,3.7,18-2.8,18-2.8c3,11.5-13,17.4-29.7,29.9 c-8.1,6.1-8,29.1-8,29.1h64.3c-0.3-0.4-4.3-8.8-4.5-19.4c-0.2-10.2,8.3-25.7,7.3-48.3s-27.2-28.9-27.2-28.9 c5.5-5.4-7.9-15.2-7.9-15.2v16.1c-14.4,1-20.3,9.7-20.3,9.7l1.9,6.3c0,0-18.1,16.1-22.7,19.8s2,13.4,2,13.4L136.9,121.8z" class="st7"/><path d="M206.5,175.1L206.5,175.1c0-1-0.8-1.8-1.8-1.8h-65.5c-1,0-1.8,0.8-1.8,1.8l0,0c0,1,0.8,1.8,1.8,1.8h65.6 C205.7,176.9,206.5,176.1,206.5,175.1z" class="st7"/><path d="M210.7,193.3L207,182c0-0.6-0.5-1.1-1.1-1.1H139c-0.6,0-1.1,0.5-1.1,1.1l-3.7,11.3c0,0.6,0.5,1.1,1.1,1.1h74.3 C210.2,194.4,210.7,193.9,210.7,193.3z" class="st7"/><path d="M193.1,222.9c0,0-12.2-7.6-12.2-12.7s5.7-10.1,5.7-10.1c0-0.6-0.9-2.2-1.1-2.2h-13.1h-13.1 c-0.2,0-1.1,1.6-1.1,2.2c0,0,5.7,4.9,5.7,10.1s-12.2,12.7-12.2,12.7c-0.8,1.4,0.4,2.2,0.6,2.2h20h20 C192.6,225.2,193.9,224.3,193.1,222.9z" class="st7"/><path d="M120.6,131.1c-3.6-11.9-8.5-24.7-11.9-39.6c-0.9,0.3-1.8,0.6-2.7,0.9c3.1,14.4,6.8,27,11,39.2 c0,0,5.7,30.1,14,26.9C138.3,155.6,124.7,144.5,120.6,131.1z" class="st7"/><path d="M243.2,168.2c-15.7-35.9-54.7-86.5-95.6-104.6c-44.4-19.6-51.1,20.3-31.1,64.1c1-0.6,0.9-1.1,1.9-1.6 c-27.8-63.4,2.9-81.8,49.8-47.6c14.8,10.8,38.2,33.1,56.2,59.9c31.7,47.3,42,109.1-17.4,84.7l0.4,0.7 C270.2,250.4,250.4,184.8,243.2,168.2z" class="st7"/><path d="M206.9,223.2c59.5,24.5,49.1-37.4,17.4-84.7c-18-26.8-40.1-48.1-56.2-59.9c-18.7-13.8-20.6-15-20.6-15 c41.9,19.9,79.9,68.6,95.6,104.6c7.2,16.6,27,82.3-35.9,55.7" class="st7"/><path d="M120.5,84.1c-12-0.1-19.4,4.3-22,13.2c-0.6,9-1.3,17.9-2,26.8c-0.9,10.8-5.3,17.5-13.3,20.1v3.3 c7.7,2.6,12.1,9.2,13.3,19.8c0.7,8.9,1.4,17.7,2.1,26.6c2.2,9,8.6,13.5,19,13.5h2.7v-2.9c-4.7-0.3-8.4-1.9-11-4.9 s-3.9-6.7-3.9-11.1c0-1.8,0.1-4.6,0.3-8.3c0.2-3.7,0.3-6.5,0.3-8.5c0-12.4-4-21-12.1-25.8c8.2-4.8,12.2-13.5,12.2-25.8 c0-1.8-0.1-4.6-0.4-8.3c-0.3-3.7-0.4-6.5-0.4-8.5c0-4.4,1.3-8.1,4-11.1c2.7-3,6.4-4.6,11.1-4.9v-3.2H120.5z" class="st6"/><path d="M173.6,30.5c0,0.5-0.4,1-1,1c-0.5,0-1-0.4-1-1c0-0.5,0.4-1,1-1C173.1,29.5,173.6,30,173.6,30.5" class="st7"/><path d="M180.2,45c0,0.6-0.5,1.2-1.2,1.2c-0.6,0-1.2-0.5-1.2-1.2c0-0.6,0.5-1.2,1.2-1.2 C179.7,43.9,180.2,44.4,180.2,45" class="st7"/><path d="M197.5,68.8c0,0.6-0.5,1.2-1.2,1.2c-0.6,0-1.2-0.5-1.2-1.2c0-0.6,0.5-1.2,1.1-1.2 C196.9,67.6,197.5,68.1,197.5,68.8" class="st7"/><path d="M169.7,53.2c0,0.5-0.4,1-1,1c-0.5,0-1-0.4-1-1c0-0.5,0.4-1,1-1C169.3,52.3,169.7,52.7,169.7,53.2" class="st7"/><path d="M180.1,58.7c0,0.5-0.4,1-1,1c-0.5,0-1-0.4-1-1c0-0.5,0.4-1,1-1C179.6,57.7,180.1,58.2,180.1,58.7" class="st7"/><path d="M166.6,43.4c0,0.6-0.5,1.2-1.2,1.2c-0.6,0-1.2-0.5-1.2-1.2c0-0.6,0.5-1.2,1.2-1.2 C166.1,42.2,166.6,42.8,166.6,43.4" class="st7"/><path d="M151,52.9c0,0.5-0.4,1-1,1c-0.5,0-1-0.4-1-1c0-0.5,0.4-1,1-1C150.5,52,151,52.4,151,52.9" class="st7"/><path d="M153.8,54.8c0,0.5-0.4,1-1,1c-0.5,0-1-0.4-1-1c0-0.5,0.4-1,1-1C153.3,53.9,153.8,54.3,153.8,54.8" class="st7"/><path d="M156.6,56.8c0,0.5-0.4,1-1,1c-0.5,0-1-0.4-1-1c0-0.5,0.4-1,1-1C156.1,55.8,156.6,56.2,156.6,56.8" class="st7"/><path d="M152.3,60.5c0,0.5-0.4,1-1,1c-0.5,0-1-0.4-1-1c0-0.5,0.4-1,1-1C151.9,59.5,152.3,59.9,152.3,60.5" class="st7"/><path d="M130,76.1c0,0.5-0.4,1-1,1c-0.5,0-1-0.4-1-1s0.4-1,1-1S130,75.6,130,76.1" class="st7"/><path d="M134.1,81.1c0,0.5-0.4,1-1,1c-0.5,0-1-0.4-1-1c0-0.5,0.4-1,1-1S134.1,80.6,134.1,81.1" class="st7"/><path d="M142.6,78.1c0,0.8-0.7,1.5-1.5,1.5c-0.8,0-1.5-0.7-1.5-1.5c0-0.8,0.7-1.5,1.5-1.5 C141.9,76.6,142.6,77.3,142.6,78.1" class="st7"/><path d="M141.1,73.6l-0.4,4.1l-4,0.4l4.1,0.4l0.4,4.2l0.4-4.2l4-0.5l-4-0.4L141.1,73.6" class="st7"/><path d="M197.5,42.4c0,0.8-0.7,1.5-1.5,1.5c-0.8,0-1.5-0.7-1.5-1.5c0-0.8,0.7-1.5,1.5-1.5 C196.9,40.9,197.5,41.6,197.5,42.4" class="st7"/><path d="M196.1,37.9l-0.4,4.1l-4,0.4l4.1,0.4l0.4,4.2l0.4-4.2l4-0.5l-4-0.4L196.1,37.9" class="st7"/><path d="M235,234.9c0,0.5-0.4,1-1,1c-0.5,0-1-0.4-1-1c0-0.5,0.4-1,1-1C234.6,233.9,235,234.4,235,234.9" class="st7"/><path d="M230.6,185.9c0,0.5-0.4,1-1,1c-0.5,0-1-0.4-1-1c0-0.5,0.4-1,1-1C230.1,185,230.6,185.4,230.6,185.9" class="st7"/><path d="M230.6,199.2c0,0.5-0.4,1-1,1c-0.5,0-1-0.4-1-1c0-0.5,0.4-1,1-1C230.1,198.2,230.6,198.7,230.6,199.2" class="st7"/><path d="M254.6,173.1c0,0.5-0.4,1-1,1c-0.5,0-1-0.4-1-1c0-0.5,0.4-1,1-1C254.2,172.1,254.6,172.5,254.6,173.1" class="st7"/><path d="M257,178.9c0,0.6-0.5,1.2-1.1,1.2c-0.6,0-1.2-0.5-1.2-1.2c0-0.6,0.5-1.2,1.2-1.2 C256.4,177.7,257,178.3,257,178.9" class="st7"/><path d="M273.6,185.8c0,0.6-0.5,1.2-1.2,1.2c-0.6,0-1.2-0.5-1.2-1.2c0-0.6,0.5-1.2,1.2-1.2 C273,184.7,273.6,185.2,273.6,185.8" class="st7"/><path d="M256.7,198.2c0,0.5-0.4,1-1,1c-0.5,0-1-0.4-1-1c0-0.5,0.4-1,1-1C256.3,197.2,256.7,197.6,256.7,198.2" class="st7"/><path d="M267.3,188.1c0,0.5-0.4,1-1,1c-0.5,0-1-0.4-1-1c0-0.5,0.4-1,1-1S267.3,187.6,267.3,188.1" class="st7"/><path d="M265.4,203.6c0,0.5-0.4,1-1,1c-0.5,0-1-0.4-1-1c0-0.5,0.4-1,1-1C265,202.7,265.4,203.1,265.4,203.6" class="st7"/><path d="M269.9,177.9c0,0.8-0.7,1.5-1.5,1.5c-0.8,0-1.5-0.7-1.5-1.5c0-0.8,0.7-1.5,1.5-1.5 C269.2,176.4,269.9,177.1,269.9,177.9" class="st7"/><path d="M268.4,173.4l-0.4,4.1l-4,0.4l4.1,0.4l0.4,4.2l0.4-4.2l4-0.5l-4-0.4L268.4,173.4" class="st7"/><path d="M259.5,203.6c0,0.8-0.7,1.5-1.5,1.5c-0.8,0-1.5-0.7-1.5-1.5c0-0.8,0.7-1.5,1.5-1.5 C258.9,202.1,259.5,202.7,259.5,203.6" class="st7"/><path d="M258.1,199.1l-0.4,4.1l-4,0.4l4.1,0.4l0.4,4.2l0.4-4.2l4-0.5l-4-0.4L258.1,199.1" class="st7"/><path d="M126.6,179.7c0,0.5-0.4,1-1,1c-0.5,0-1-0.4-1-1c0-0.5,0.4-1,1-1C126.1,178.7,126.6,179.2,126.6,179.7" class="st7"/><path d="M127.2,202.1c0,0.6-0.5,1.2-1.2,1.2c-0.6,0-1.2-0.5-1.2-1.2c0-0.6,0.5-1.2,1.2-1.2 C126.6,200.9,127.2,201.4,127.2,202.1" class="st7"/><path d="M114.4,213.5c0,0.5-0.4,1-1,1c-0.5,0-1-0.4-1-1c0-0.5,0.4-1,1-1C114,212.5,114.4,213,114.4,213.5" class="st7"/><path d="M99.2,218.1c0,0.6-0.5,1.2-1.2,1.2c-0.6,0-1.2-0.5-1.2-1.2c0-0.6,0.5-1.2,1.2-1.2 C98.7,217,99.2,217.5,99.2,218.1" class="st7"/><path d="M96.1,207.8c0,0.6-0.5,1.2-1.2,1.2c-0.6,0-1.2-0.5-1.2-1.2c0-0.6,0.5-1.2,1.2-1.2 C95.6,206.6,96.1,207.2,96.1,207.8" class="st7"/><path d="M94.4,214.4c0,0.5-0.4,1-1,1c-0.5,0-1-0.4-1-1c0-0.5,0.4-1,1-1C93.9,213.4,94.4,213.9,94.4,214.4" class="st7"/><path d="M83,208.9c0,0.5-0.4,1-1,1c-0.5,0-1-0.4-1-1c0-0.5,0.4-1,1-1C82.5,208,83,208.4,83,208.9" class="st7"/><path d="M122.7,227.4c0,0.5-0.4,1-0.9,1c-0.5,0-1-0.4-1-1c0-0.5,0.4-1,1-1C122.3,226.4,122.7,226.8,122.7,227.4" class="st7"/><path d="M134.7,218.6c0,0.6-0.5,1.2-1.1,1.2c-0.6,0-1.2-0.5-1.2-1.2c0-0.6,0.5-1.2,1.2-1.2 C134.2,217.4,134.7,217.9,134.7,218.6" class="st7"/><path d="M136.1,229.9c0,0.5-0.5,1-1,1c-0.5,0-1-0.4-1-1c0-0.5,0.4-1,1-1C135.6,228.9,136.1,229.4,136.1,229.9" class="st7"/><path d="M185.3,219.1c0,0.5-0.4,1-1,1c-0.5,0-1-0.4-1-1c0-0.5,0.4-1,1-1C184.8,218.1,185.3,218.6,185.3,219.1" class="st7"/><path d="M162.4,227.2c0,0.5-0.4,1-1,1c-0.5,0-1-0.4-1-1c0-0.5,0.4-1,1-1C161.9,226.3,162.4,226.7,162.4,227.2" class="st7"/><path d="M126.5,241.2c0,0.8-0.7,1.5-1.5,1.5c-0.8,0-1.5-0.7-1.5-1.5c0-0.8,0.7-1.5,1.5-1.5 C125.8,239.7,126.5,240.4,126.5,241.2" class="st7"/><path d="M125,236.7l-0.4,4.1l-4,0.4l4.1,0.4l0.4,4.2l0.4-4.2l4-0.5l-4-0.4L125,236.7" class="st7"/></g><path d="M671.6,84.1c-12-0.1-19.4,4.3-22,13.2c-0.6,9-1.3,17.9-2,26.8c-0.9,10.8-5.3,17.5-13.3,20.1v3.3	c7.7,2.6,12.1,9.2,13.3,19.8c0.7,8.9,1.4,17.7,2.1,26.6c2.2,9,8.6,13.5,19,13.5h2.7v-2.9c-4.7-0.3-8.4-1.9-11-4.9	c-2.6-3-3.9-6.7-3.9-11.1c0-1.8,0.1-4.6,0.3-8.3s0.3-6.5,0.3-8.5c0-12.4-4-21-12.1-25.8c8.2-4.8,12.2-13.5,12.2-25.8	c0-1.8-0.1-4.6-0.4-8.3c-0.3-3.7-0.4-6.5-0.4-8.5c0-4.4,1.3-8.1,4-11.1c2.7-3,6.4-4.6,11.1-4.9v-3.2H671.6z" class="st8"/><path d="M810.7,144c-7.7-2.6-12.1-9.2-13.3-19.8c-0.7-8.9-1.4-17.7-2.1-26.6c-2.2-9-8.6-13.5-19-13.5h-2.7V87	c4.7,0.3,8.4,1.9,11,4.9c2.6,3,3.9,6.7,3.9,11.1c0,1.8-0.1,4.6-0.3,8.3c-0.2,3.7-0.3,6.6-0.3,8.5c0,12.4,4,21,12.1,25.8	c-8.2,4.8-12.2,13.5-12.2,25.8c0,1.8,0.1,4.6,0.4,8.3s0.4,6.6,0.4,8.5c0,4.4-1.3,8.1-4,11.1c-2.7,3-6.4,4.6-11.1,4.9v3	c12.1,0.1,19.4-4.3,22.1-13.1c0.6-9,1.3-17.9,2-26.8c0.9-10.8,5.3-17.5,13.3-20.1V144H810.7z" class="st8"/><path d="M688,121.8l8.3,2.1c0,0,4-14.3,14-10.6c10.1,3.7,18-2.8,18-2.8c3,11.5-13,17.4-29.7,29.9	c-8.1,6.1-8,29.1-8,29.1h64.3c-0.3-0.4-4.3-8.8-4.5-19.4c-0.2-10.2,8.3-25.7,7.3-48.3s-27.2-28.9-27.2-28.9	c5.5-5.4-7.9-15.2-7.9-15.2v16.1c-14.4,1-20.3,9.7-20.3,9.7l1.9,6.3c0,0-18.1,16.1-22.7,19.8c-4.6,3.7,2,13.4,2,13.4L688,121.8z" class="st8"/><path d="M757.6,175.1L757.6,175.1c0-1-0.8-1.8-1.8-1.8h-65.5c-1,0-1.8,0.8-1.8,1.8l0,0c0,1,0.8,1.8,1.8,1.8h65.6	C756.8,176.9,757.6,176.1,757.6,175.1z" class="st8"/><path d="M761.8,193.3l-3.7-11.3c0-0.6-0.5-1.1-1.1-1.1h-66.9c-0.6,0-1.1,0.5-1.1,1.1l-3.7,11.3c0,0.6,0.5,1.1,1.1,1.1	h74.3C761.3,194.4,761.8,193.9,761.8,193.3z" class="st8"/><path d="M744.2,222.9c0,0-12.2-7.6-12.2-12.7s5.7-10.1,5.7-10.1c0-0.6-0.9-2.2-1.1-2.2h-13.1h-13.1	c-0.2,0-1.1,1.6-1.1,2.2c0,0,5.7,4.9,5.7,10.1s-12.2,12.7-12.2,12.7c-0.8,1.4,0.4,2.2,0.6,2.2h20h20	C743.7,225.2,745,224.3,744.2,222.9z" class="st8"/><g><rect width="242.8" height="0" x="876.7" y="145" class="st9"/><path d="M998.1,24.3c-35.7,0-67.8,15.4-90,39.9H1088C1065.8,39.7,1033.7,24.3,998.1,24.3z" class="st10"/><path d="M884,104.2h228.2c-5.3-14.5-13.3-27.7-23.3-39H907.3C897.3,76.4,889.3,89.7,884,104.2z" class="st11"/><path d="M1088.8,65.1c-0.3-0.3-0.5-0.6-0.8-0.9H908.1c-0.3,0.3-0.5,0.6-0.8,0.9H1088.8z" class="st12"/><path d="M883.7,105.1c-4.4,12.5-6.9,25.9-7,39.9h242.8c-0.1-14-2.5-27.4-7-39.9H883.7z" class="st13"/><path d="M883.7,105.1h228.8c-0.1-0.3-0.2-0.6-0.3-0.9H884C883.9,104.5,883.8,104.8,883.7,105.1z" class="st14"/><path d="M876.7,145.7c0,14,2.4,27.4,6.7,39.9h229.4c4.3-12.5,6.7-25.9,6.7-39.9c0-0.3,0-0.5,0-0.8H876.7 C876.7,145.2,876.7,145.5,876.7,145.7z" class="st15"/><path d="M907.3,226.3h181.6c10.4-11.7,18.6-25.4,23.8-40.5H883.5C888.7,200.9,896.9,214.6,907.3,226.3z" class="st16"/><path d="M1112.7,185.8c0,0,0-0.1,0.1-0.1H883.4c0,0,0,0.1,0.1,0.1H1112.7z" class="st17"/><path d="M1088.8,226.5H907.4c22.2,25,54.6,40.7,90.7,40.7C1034.1,267.1,1066.5,251.4,1088.8,226.5z" class="st18"/><path d="M907.4,226.5h181.3c0,0,0.1-0.1,0.1-0.1H907.3C907.4,226.4,907.4,226.4,907.4,226.5z" class="st19"/><path d="M947.2,86.1c-12-0.1-19.4,4.3-22,13.2c-0.6,9-1.3,17.9-2,26.8c-0.9,10.8-5.3,17.5-13.3,20.1v3.3 c7.7,2.6,12.1,9.2,13.3,19.8c0.7,8.9,1.4,17.7,2.1,26.6c2.2,9,8.6,13.5,19,13.5h2.7v-2.9c-4.7-0.3-8.4-1.9-11-4.9 s-3.9-6.7-3.9-11.1c0-1.8,0.1-4.6,0.3-8.3c0.2-3.7,0.3-6.5,0.3-8.5c0-12.4-4-21-12.1-25.8c8.2-4.8,12.2-13.5,12.2-25.8 c0-1.8-0.1-4.6-0.4-8.3c-0.3-3.7-0.4-6.5-0.4-8.5c0-4.4,1.3-8.1,4-11.1s6.4-4.6,11.1-4.9v-3.2H947.2z M1086.3,146 c-7.7-2.6-12.1-9.2-13.3-19.8c-0.7-8.9-1.4-17.7-2.1-26.6c-2.2-9-8.6-13.5-19-13.5h-2.7V89c4.7,0.3,8.4,1.9,11,4.9 c2.6,3,3.9,6.7,3.9,11.1c0,1.8-0.1,4.6-0.3,8.3c-0.2,3.7-0.3,6.6-0.3,8.5c0,12.4,4,21,12.1,25.8c-8.2,4.8-12.2,13.5-12.2,25.8 c0,1.8,0.1,4.6,0.4,8.3c0.3,3.7,0.4,6.6,0.4,8.5c0,4.4-1.3,8.1-4,11.1c-2.7,3-6.4,4.6-11.1,4.9v3c12.1,0.1,19.4-4.3,22.1-13.1 c0.6-9,1.3-17.9,2-26.8c0.9-10.8,5.3-17.5,13.3-20.1V146H1086.3z M963.6,123.8l8.3,2.1c0,0,4-14.3,14-10.6c10.1,3.7,18-2.8,18-2.8 c3,11.5-13,17.4-29.7,29.9c-8.1,6.1-8,29.1-8,29.1h64.3c-0.3-0.4-4.3-8.8-4.5-19.4c-0.2-10.2,8.3-25.7,7.3-48.3 s-27.2-28.9-27.2-28.9c5.5-5.4-7.9-15.2-7.9-15.2v16.1c-14.4,1-20.3,9.7-20.3,9.7l1.9,6.3c0,0-18.1,16.1-22.7,19.8 c-4.6,3.7,2,13.4,2,13.4L963.6,123.8z M1033.2,177.1L1033.2,177.1c0-1-0.8-1.8-1.8-1.8h-65.5c-1,0-1.8,0.8-1.8,1.8l0,0 c0,1,0.8,1.8,1.8,1.8h65.6C1032.4,178.9,1033.2,178.1,1033.2,177.1z M1037.4,195.3l-3.7-11.3c0-0.6-0.5-1.1-1.1-1.1h-66.9 c-0.6,0-1.1,0.5-1.1,1.1l-3.7,11.3c0,0.6,0.5,1.1,1.1,1.1h74.3C1036.9,196.4,1037.4,195.9,1037.4,195.3z M1019.8,224.9 c0,0-12.2-7.6-12.2-12.7s5.7-10.1,5.7-10.1c0-0.6-0.9-2.2-1.1-2.2h-13.1H986c-0.2,0-1.1,1.6-1.1,2.2c0,0,5.7,4.9,5.7,10.1 s-12.2,12.7-12.2,12.7c-0.8,1.4,0.4,2.2,0.6,2.2h20h20C1019.3,227.2,1020.6,226.3,1019.8,224.9z" class="st7"/></g><path d="M1329.2,219.6c-2.1,0.3-4.3,0.2-6.8-0.8c-7-2.9-13.1-9.9-18.9-15.7c-20.8-20.8,23.1-29.7,32.4-30	c9.9-0.2,20.3-12.7,28.1-5.2c5.3,5.1,5.4,8.7,13,5.3c3.6-1.7,13.1-13.8,16.8-10.1c0,0,0,0,0.1,0.1c0.8-5.7,1.2-11.5,1.2-17.4	c0-12.9-2-25.3-5.7-36.9c-4.3,2-9.5-2-14.7-0.1c-8.2,3-12,18.7-20.7,22.4c-3.9,1.7-8.9,2-12.7-0.7c-1.6-1.1-2.6-2.6-3.4-4.3	c-8,1.9-18.3,3.1-19.1,9.6c-1.3,10.8,14.1,26-4.8,23.2c-13.1-1.9-15.4-19.8-25-28.5c-7.6-6.9-14.1-5.6-9.9,6.1	c2.5,7,13.8,11.3,4.4,21.8c-5.3,6-19.2-0.3-23.2-7c-7.1-11.9-1.7-17.6-15.1-20.4c-5.7-1.2-11-0.1-16.4-4.1c-2.3-1.7-3.9-4.5-5.4-7.1	c-5.4,3.3-9.8,7.8-8.4,19.2c1.3,10.5,9.2,9.7,1.2,18c-2.8,2.9-12.9,4.1-15.7,0.8c-1.4-1.7-2.4-3.6-3.1-5.7c-0.8-0.1-1.7-0.4-2.6-0.9	c-10.6-5.1-3.2-33.5-8.1-44.9c-4.6-10.6-13.8-14.2-16.7-24.1c-11.4,18.5-17.9,40.2-17.9,63.5c0,11.1,1.5,21.8,4.3,32	c5.6-3.4,10.2,0.4,19,6.6c10.2,7.2,22.3,13.3,33,19.2c11.4,6.3,23.3-6.1,32.6,5.8c4.1-4,10.5-4.3,14-8c4.2-4.3,3.8-14.5,10-15.9	c7-1.6,17.3,14.2,20.7,21.1c4.6,9.2,4.7,19.3-3.1,25.6c-7.4,6-15,0.1-22.7-1c-7.3-1.1-14.5,3.6-21.6,2.2c-5.4-1.1-9.3-8.3-14.7-8.3	c-3.9,0-6.8,5.6-10.6,5.1c-0.9-0.1-1.9-0.9-2.9-1.8c-5.9-0.7-13.3-0.6-16.2,7.7c-0.1,0.3-0.2,0.6-0.3,0.9c3.2-0.8,6.4-0.6,9.3,2.5	c2.6,2.7,3.8,5.5,4,8c2.1,1.4,4.3,2.7,6.5,4c6.9-1.3,13.6-4.1,20.5-5.6c9.1-2,18.5-11.4,27.7-6.8c13.4,6.8,8.4,15.7-2,19.3	c-6.2,2.1-9.7,3.8-12.2,6.1c8.4,1.8,17.1,2.8,26.1,2.8c24.4,0,47.1-7.2,66.1-19.6C1340.7,237,1332.7,228.1,1329.2,219.6z M1247.9,184.7c-5.5,1.6-8.7-8-13.3-11c-3.4-2.3-14.6-2-12.6-10.5c2-8.3,13.5-3.5,17.4-1.7c1.8,0.8,15.1,6.2,15.9,7.9	C1257.6,174.1,1251.4,183.8,1247.9,184.7z" class="st20"/><path d="M1339.5,66.5c0.2,1.8,2.3,2.1,2.6,4.5c0.6,5-2.2,10.3-1.6,15.4c1.2,8.9,6.1,8.5,9.4,14.4	c7.8-6.7,17.2-16.3,26.6-19.6c-5.9-9.3-13-17.8-21.1-25.2c-2-1.5-4.1-3.2-6-5.1c-1.8-1.5-3.7-2.9-5.6-4.2	C1340.4,51.3,1338.7,57.6,1339.5,66.5z" class="st20"/><path d="M1194,235.9c2.9-8.3,10.4-8.4,16.2-7.7c-2.1-1.9-4.5-4.7-6.7-5.4c-5.4-1.8-11.1-3-16.6-4.8	c-3.2-1-6.8-0.4-9.9,1.3c4.9,6.4,10.4,12.3,16.4,17.6c0.1,0,0.2-0.1,0.3-0.1C1193.8,236.5,1193.9,236.2,1194,235.9z" class="st21"/><path d="M1261.8,238.9c-9.2-4.6-18.5,4.8-27.7,6.8c-6.9,1.5-13.6,4.3-20.5,5.6c10.4,6,21.9,10.4,33.9,13	c2.5-2.3,6.1-4,12.2-6.1C1270.2,254.7,1275.2,245.7,1261.8,238.9z" class="st21"/><path d="M1377,173.1c-7.6,3.5-7.6-0.2-13-5.3c-7.9-7.5-18.2,5-28.1,5.2c-9.3,0.2-53.2,9.2-32.4,30	c5.8,5.8,11.9,12.7,18.9,15.7c2.5,1,4.7,1.1,6.8,0.8c-2.4-5.8-2.7-11.5,3.6-17.4c10.6-10.2,27.6,2.5,37.3,9.8	c1.1,0.8,2.3,1.7,3.6,2.5c10.4-15,17.4-32.5,20.1-51.4c0,0,0,0-0.1-0.1C1390.1,159.3,1380.6,171.5,1377,173.1z" class="st21"/><path d="M1322.9,43.5c-1.3-2.3-3-6.2-4.3-10.6c-2.8-1.1-5.7-2.1-8.6-3.1C1312.6,36.7,1317.1,44.9,1322.9,43.5z" class="st21"/><path d="M1263.5,28.2c1.8-1.2,3.7-2.5,5.5-3.8c-3.1,0.1-6.2,0.4-9.3,0.7C1261.2,26,1262.5,27,1263.5,28.2z" class="st21"/><path d="M1194.9,151.2c0.9,0.4,1.8,0.7,2.6,0.9c-5.8-18.3,14.7-49.8-0.8-70.6c-6.8-9.1-9.4-1.2-16.6-0.5	c-3.8,0.4-5.2-1.5-6.3-4.4c-1.3,1.9-2.6,3.8-3.8,5.7c2.8,9.8,12.1,13.4,16.7,24.1C1191.7,117.7,1184.3,146.1,1194.9,151.2z" class="st22"/><path d="M1313.9,110.2c-12.5-10.7-2.6-24.1-2.6-39c0-9.3-14-30-20-23.8c-9.6,9.9,7.5,28.8,1.9,38.3	c-6.2,10.6-16.8-5.5-21.9-8c-10.2-4.9-23.1,7.1-29.6-11.2c-5.3-14.9,1.8-25.8,10.7-31.6c-2.1,0.5-4.3,1.3-6.4,2.3	c-6,2.7-17.7,17.1-23.6,15.6c-7.9-2-6.6-12.8-16.5-4.3c-3.5,3-6.6,7.3-6.1,13c0,0.5,20.7,1,22.8,2c10.3,5.1,9.7,12.9,12.6,25.1	c0.5,1.9,4.3,12.4,4.2,13.9c-0.9,11-9.1,13.2-15.8,17.2c1.6,2.7,3.2,5.5,5.4,7.1c5.3,4,10.7,2.9,16.4,4.1	c13.4,2.8,8.1,8.5,15.1,20.4c4,6.7,17.8,13,23.2,7c9.4-10.5-1.9-14.9-4.4-21.8c-4.2-11.7,2.3-13.1,9.9-6.1	c9.5,8.7,11.9,26.6,25,28.5c18.8,2.8,3.5-12.4,4.8-23.2c0.8-6.5,11.1-7.7,19.1-9.6c-1.5-3.3-2.2-7.2-4.4-9.9	C1328.2,109.8,1320.8,116.1,1313.9,110.2z" class="st22"/><path d="M1187,218c5.5,1.8,11.2,3,16.6,4.8c2.2,0.7,4.6,3.5,6.7,5.4c1.1,0.9,2.1,1.7,2.9,1.8c3.8,0.6,6.7-5.1,10.6-5.1	c5.4,0,9.3,7.2,14.7,8.3c7.1,1.4,14.3-3.3,21.6-2.2c7.7,1.1,15.3,7,22.7,1c7.8-6.3,7.7-16.4,3.1-25.6c-3.4-6.9-13.7-22.7-20.7-21.1	c-6.2,1.4-5.8,11.6-10,15.9c-3.5,3.6-9.9,4-14,8c-9.4-11.9-21.2,0.5-32.6-5.8c-10.7-5.9-22.8-12-33-19.2c-8.8-6.2-13.4-10-19-6.6	c4.2,15.3,11.2,29.3,20.5,41.6C1180.2,217.6,1183.8,217,1187,218z" class="st23"/><path d="M1193.8,236.8c-0.1,0-0.2,0.1-0.3,0.1c4.3,3.8,8.8,7.2,13.6,10.4c-0.2-2.5-1.4-5.3-4-8	C1200.1,236.2,1197,236,1193.8,236.8z" class="st23"/><path d="M1180.2,80.9c7.2-0.7,9.8-8.6,16.6,0.5c15.5,20.9-5.1,52.3,0.8,70.6c0.7,2.1,1.7,4,3.1,5.7	c2.8,3.3,12.9,2.1,15.7-0.8c8-8.2,0.1-7.5-1.2-18c-1.4-11.4,3-15.9,8.4-19.2c6.7-4,15-6.3,15.8-17.2c0.1-1.5-3.7-12-4.2-13.9	c-3-12.2-2.3-20-12.6-25.1c-2-1-22.7-1.5-22.8-2c-0.4-5.7,2.6-9.9,6.1-13c9.9-8.5,8.6,2.3,16.5,4.3c5.9,1.5,17.6-13,23.6-15.6	c2.2-1,4.3-1.8,6.4-2.3c-8.9,5.8-16,16.7-10.7,31.6c6.5,18.2,19.4,6.3,29.6,11.2c5.1,2.4,15.7,18.6,21.9,8	c5.6-9.5-11.5-28.4-1.9-38.3c6-6.2,20,14.5,20,23.8c0,14.9-9.9,28.3,2.6,39c6.9,5.9,14.2-0.3,19.6,6c2.2,2.7,2.9,6.6,4.4,9.9	c0.8,1.7,1.8,3.2,3.4,4.3c3.7,2.7,8.7,2.4,12.7,0.7c8.7-3.7,12.5-19.4,20.7-22.4c5.2-1.9,10.4,2.1,14.7,0.1	c-3.1-9.8-7.5-19.1-12.9-27.7c-9.4,3.3-18.8,12.9-26.6,19.6c-3.3-5.9-8.2-5.5-9.4-14.4c-0.7-5.2,2.1-10.4,1.6-15.4	c-0.3-2.4-2.4-2.7-2.6-4.5c-0.8-8.9,1-15.2,4.3-19.8c-7.8-5.5-16.2-10.1-25.2-13.7c1.4,4.3,3.1,8.2,4.3,10.6	c-5.8,1.3-10.4-6.8-12.9-13.6c-11.5-3.6-23.7-5.5-36.3-5.5c-1.6,0-3.1,0-4.6,0.1c-1.8,1.3-3.7,2.5-5.5,3.8c-1-1.2-2.3-2.2-3.8-3	c-35.5,4.1-66.3,23.4-85.8,51.3C1175,79.3,1176.4,81.2,1180.2,80.9z" class="st23"/><path d="M1239.4,161.5c-3.8-1.8-15.4-6.7-17.4,1.7c-2,8.5,9.1,8.3,12.6,10.5c4.5,3,7.8,12.6,13.3,11	c3.5-1,9.7-10.7,7.4-15.3C1254.5,167.7,1241.2,162.3,1239.4,161.5z" class="st22"/><path d="M1373.7,214.5c-1.3-0.8-2.5-1.7-3.6-2.5c-9.8-7.3-26.7-19.9-37.3-9.8c-6.2,5.9-5.9,11.6-3.6,17.4	c3.5,8.5,11.5,17.3,10.6,27.9C1353.2,238.9,1364.7,227.6,1373.7,214.5z" class="st22"/><path d="M1355.4,56c-1.9-1.8-4-3.5-6-5.1C1351.3,52.8,1353.4,54.5,1355.4,56z" class="st22"/><path d="M1222.8,84.1c-12-0.1-19.4,4.3-22,13.2c-0.6,9-1.3,17.9-2,26.8c-0.9,10.8-5.3,17.5-13.3,20.1v3.3	c7.7,2.6,12.1,9.2,13.3,19.8c0.7,8.9,1.4,17.7,2.1,26.6c2.2,9,8.6,13.5,19,13.5h2.7v-2.9c-4.7-0.3-8.4-1.9-11-4.9	c-2.6-3-3.9-6.7-3.9-11.1c0-1.8,0.1-4.6,0.3-8.3c0.2-3.7,0.3-6.5,0.3-8.5c0-12.4-4-21-12.1-25.8c8.2-4.8,12.2-13.5,12.2-25.8	c0-1.8-0.1-4.6-0.4-8.3c-0.3-3.7-0.4-6.5-0.4-8.5c0-4.4,1.3-8.1,4-11.1c2.7-3,6.4-4.6,11.1-4.9L1222.8,84.1L1222.8,84.1z" class="st7"/><path d="M1361.9,144c-7.7-2.6-12.1-9.2-13.3-19.8c-0.7-8.9-1.4-17.7-2.1-26.6c-2.2-9-8.6-13.5-19-13.5h-2.7V87	c4.7,0.3,8.4,1.9,11,4.9s3.9,6.7,3.9,11.1c0,1.8-0.1,4.6-0.3,8.3c-0.2,3.7-0.3,6.6-0.3,8.5c0,12.4,4,21,12.1,25.8	c-8.2,4.8-12.2,13.5-12.2,25.8c0,1.8,0.1,4.6,0.4,8.3c0.3,3.7,0.4,6.6,0.4,8.5c0,4.4-1.3,8.1-4,11.1c-2.7,3-6.4,4.6-11.1,4.9v3	c12.1,0.1,19.4-4.3,22.1-13.1c0.6-9,1.3-17.9,2-26.8c0.9-10.8,5.3-17.5,13.3-20.1V144H1361.9z" class="st7"/><path d="M1239.2,121.8l8.3,2.1c0,0,4-14.3,14-10.6c10.1,3.7,18-2.8,18-2.8c3,11.5-13,17.4-29.7,29.9	c-8.1,6.1-8,29.1-8,29.1h64.3c-0.3-0.4-4.3-8.8-4.5-19.4c-0.2-10.2,8.3-25.7,7.3-48.3s-27.2-28.9-27.2-28.9	c5.5-5.4-7.9-15.2-7.9-15.2v16.1c-14.4,1-20.3,9.7-20.3,9.7l1.9,6.3c0,0-18.1,16.1-22.7,19.8s2,13.4,2,13.4L1239.2,121.8z" class="st7"/><path d="M1308.8,175.1L1308.8,175.1c0-1-0.8-1.8-1.8-1.8h-65.5c-1,0-1.8,0.8-1.8,1.8l0,0c0,1,0.8,1.8,1.8,1.8h65.6	C1308,176.9,1308.8,176.1,1308.8,175.1z" class="st7"/><path d="M1313,193.3l-3.7-11.3c0-0.6-0.5-1.1-1.1-1.1h-66.9c-0.6,0-1.1,0.5-1.1,1.1l-3.7,11.3c0,0.6,0.5,1.1,1.1,1.1	h74.3C1312.5,194.4,1313,193.9,1313,193.3z" class="st7"/><path d="M1295.4,222.9c0,0-12.2-7.6-12.2-12.7s5.7-10.1,5.7-10.1c0-0.6-0.9-2.2-1.1-2.2h-13.1h-13.1	c-0.2,0-1.1,1.6-1.1,2.2c0,0,5.7,4.9,5.7,10.1s-12.2,12.7-12.2,12.7c-0.8,1.4,0.4,2.2,0.6,2.2h20h20	C1294.9,225.2,1296.2,224.3,1295.4,222.9z" class="st7"/></svg>