<svg xmlns="http://www.w3.org/2000/svg" xmlns:xlink="http://www.w3.org/1999/xlink" id="Layer_1" x="0" y="0" version="1.1" viewBox="0 0 796 402" xml:space="preserve" style="enable-background:new 0 0 796 402"><g><path d="M75.3,122.3c-18.2-0.1-29.3,6-33.3,18.4c-0.9,12.6-2,25-3,37.5c-1.4,15.1-8,24.5-20.1,28.1v4.6 c11.6,3.6,18.3,12.9,20.1,27.7c1.1,12.4,2.1,24.7,3.2,37.2c3.3,12.6,13,18.9,28.7,18.9H75v-4.1c-7.1-0.4-12.7-2.7-16.6-6.8 s-5.9-9.4-5.9-15.5c0-2.5,0.2-6.4,0.5-11.6c0.3-5.2,0.5-9.1,0.5-11.9c0-17.3-6.1-29.3-18.3-36.1c12.4-6.7,18.5-18.9,18.5-36.1 c0-2.5-0.2-6.4-0.6-11.6c-0.5-5.2-0.6-9.1-0.6-11.9c0-6.1,2-11.3,6.1-15.5c4.1-4.2,9.7-6.4,16.8-6.8v-4.5H75.3z"/><path d="M285.7,206.2c-11.6-3.6-18.3-12.9-20.1-27.7c-1.1-12.4-2.1-24.7-3.2-37.2c-3.3-12.6-13-18.9-28.7-18.9h-4.1v4.1 c7.1,0.4,12.7,2.7,16.6,6.8s5.9,9.4,5.9,15.5c0,2.5-0.2,6.4-0.5,11.6c-0.3,5.2-0.5,9.2-0.5,11.9c0,17.3,6.1,29.3,18.3,36.1 c-12.4,6.7-18.5,18.9-18.5,36.1c0,2.5,0.2,6.4,0.6,11.6c0.5,5.2,0.6,9.2,0.6,11.9c0,6.1-2,11.3-6.1,15.5c-4.1,4.2-9.7,6.4-16.8,6.8 v4.2c18.3,0.1,29.3-6,33.4-18.3c0.9-12.6,2-25,3-37.5c1.4-15.1,8-24.5,20.1-28.1v-4.5H285.7z"/><g><path d="M100.1,194.9l12.6,3.2c0,0,6.1-21.6,21.2-16c15.3,5.6,27.2-4.2,27.2-4.2c4.5,17.4-19.7,26.3-44.9,45.2 c-12.3,9.2-12.1,44-12.1,44h97.3c-0.5-0.6-6.5-13.3-6.8-29.3c-0.3-15.4,12.6-38.9,11-73.1c-1.5-34.2-41.1-43.7-41.1-43.7 c8.3-8.2-12-23-12-23v24.4c-21.8,1.5-30.7,14.7-30.7,14.7l2.9,9.5c0,0-27.4,24.4-34.3,30s3,20.3,3,20.3L100.1,194.9z"/><path d="M205.4,275.6L205.4,275.6c0-1.5-1.2-2.7-2.7-2.7h-99.1c-1.5,0-2.7,1.2-2.7,2.7l0,0c0,1.5,1.2,2.7,2.7,2.7h99.2 C204.1,278.3,205.4,277.1,205.4,275.6z"/><path d="M211.7,303.1l-5.6-17.1c0-0.9-0.8-1.7-1.7-1.7H103.2c-0.9,0-1.7,0.8-1.7,1.7L96,303.1c0,0.9,0.8,1.7,1.7,1.7H210 C211,304.7,211.7,304,211.7,303.1z"/></g></g><path id="XMLID_1_" d="M773.2,201.4c0,101.5-82.3,183.6-183.6,183.6s-183.6-82.1-183.6-183.6S488.2,17.7,589.5,17.7	S773.2,100,773.2,201.4z M512.5,108.2c-18.2-0.2-29.3,6.5-33.3,20c-0.9,13.6-2,27.1-3,40.5c-1.4,16.3-8,26.5-20.1,30.4v5	c11.6,3.9,18.3,13.9,20.1,30c1.1,13.5,2.1,26.8,3.2,40.2c3.3,13.6,13,20.4,28.7,20.4h4.1v-4.4c-7.1-0.5-12.7-2.9-16.6-7.4	c-3.9-4.5-5.9-10.1-5.9-16.8c0-2.7,0.2-7,0.5-12.6s0.5-9.8,0.5-12.9c0-18.8-6.1-31.8-18.3-39c12.4-7.3,18.5-20.4,18.5-39	c0-2.7-0.2-7-0.6-12.6c-0.5-5.6-0.6-9.8-0.6-12.9c0-6.7,2-12.3,6.1-16.8s9.7-7,16.8-7.4v-4.8H512.5z M722.9,198.8	c-11.6-3.9-18.3-13.9-20.1-30c-1.1-13.5-2.1-26.8-3.2-40.2c-3.3-13.6-13-20.4-28.7-20.4h-4.1v4.4c7.1,0.5,12.7,2.9,16.6,7.4	c3.9,4.5,5.9,10.1,5.9,16.8c0,2.7-0.2,7-0.5,12.6s-0.5,10-0.5,12.9c0,18.8,6.1,31.8,18.3,39c-12.4,7.3-18.5,20.4-18.5,39	c0,2.7,0.2,7,0.6,12.6c0.5,5.6,0.6,10,0.6,12.9c0,6.7-2,12.3-6.1,16.8s-9.7,7-16.8,7.4v4.5c18.3,0.2,29.3-6.5,33.4-19.8	c0.9-13.6,2-27.1,3-40.5c1.4-16.3,8-26.5,20.1-30.4v-4.8H722.9z M537.3,165.2l12.6,3.2c0,0,6.1-21.6,21.2-16	c15.3,5.6,27.2-4.2,27.2-4.2c4.5,17.4-19.7,26.3-44.9,45.2c-12.3,9.2-12.1,44-12.1,44h97.3c-0.5-0.6-6.5-13.3-6.8-29.3	c-0.3-15.4,12.6-38.9,11-73.1s-41.1-43.7-41.1-43.7c8.3-8.2-12-23-12-23v24.4c-21.8,1.5-30.7,14.7-30.7,14.7l2.9,9.5	c0,0-27.4,24.4-34.3,30c-7,5.6,3,20.3,3,20.3L537.3,165.2z M642.6,245.8L642.6,245.8c0-1.5-1.2-2.7-2.7-2.7h-99.1	c-1.5,0-2.7,1.2-2.7,2.7l0,0c0,1.5,1.2,2.7,2.7,2.7H640C641.4,248.5,642.6,247.3,642.6,245.8z M649,273.4l-5.6-17.1	c0-0.9-0.8-1.7-1.7-1.7H540.5c-0.9,0-1.7,0.8-1.7,1.7l-5.6,17.1c0,0.9,0.8,1.7,1.7,1.7h112.4C648.2,275,649,274.3,649,273.4z M622.3,318.1c0,0-18.5-11.5-18.5-19.2c0-7.7,8.6-15.3,8.6-15.3c0-0.9-1.4-3.3-1.7-3.3H591h-19.8c-0.3,0-1.7,2.4-1.7,3.3	c0,0,8.6,7.4,8.6,15.3c0,7.9-18.5,19.2-18.5,19.2c-1.2,2.1,0.6,3.3,0.9,3.3h30.3h30.3C621.6,321.6,623.6,320.3,622.3,318.1z"/></svg>